<?xml version="1.0" standalone="no"?>
<!DOCTYPE svg PUBLIC "-//W3C//DTD SVG 1.1//EN" "http://www.w3.org/Graphics/SVG/1.1/DTD/svg11.dtd" >
<svg xmlns="http://www.w3.org/2000/svg" xmlns:xlink="http://www.w3.org/1999/xlink" version="1.1">
<metadata>
Created by FontForge 20201107 at Fri Oct 18 06:49:56 2019
 By Jimmy Wärting
Typeface (c) Darrell Flood. 2019. All Rights Reserved
</metadata>
<defs>
<font id="VampireWars" horiz-adv-x="1150" >
  <font-face 
    font-family="Vampire Wars"
    font-weight="400"
    font-stretch="normal"
    units-per-em="2048"
    panose-1="2 0 5 0 0 0 0 0 0 0"
    ascent="1638"
    descent="-410"
    x-height="1400"
    cap-height="1400"
    bbox="-290 -400 9731 2033"
    underline-thickness="150"
    underline-position="-292"
    unicode-range="U+001D-2212"
  />
<missing-glyph horiz-adv-x="9800" 
d="M208 1432l204 -542l203 542h271l-474 -1220l-449 1154v-2l-68 68h313zM9256 822q-339 0 -339 308q0 302 339 302h407l-271 -271h-136q-67 0 -67 -31q0 -37 67 -37h136q339 0 339 -302q0 -308 -339 -308h-407l271 271h136q68 0 68 37q0 31 -68 31h-136zM7826 483l-23 68
h-319l103 271h125l-90 271l-239 -610l-364 -271l449 1173l-47 47h337l278 -778v710l-68 68h542q339 0 339 -339q0 -271 -135 -306l339 -575l-678 571l-2 242h137q68 0 68 68t-68 68h-203v-678h-481zM6176 1432l204 -542l203 610l204 -610l203 542h271l-339 -949h-271
l-68 190l-68 -190h-271l-317 888l-61 61h310zM5527 1432v-271h-339v-136h407l-407 -203v-68h339v-271h-611v881l-67 68h678zM5052 212l-678 571l-1 242h137q67 0 67 68t-67 68h-204v-678h-271v881l-68 68h543q339 0 339 -339q0 -271 -136 -306zM3967 1432v-949h-271v881
l-68 68h339zM3289 1432q339 0 339 -339t-339 -339h-136v271h136q68 0 68 68t-68 68h-203v-678h-272v881l-68 68h543zM1451 483l-22 68h-320l104 271h125l-90 271l-239 -610l-365 -271l450 1173l-47 47h336l278 -778v710l-67 68h407l203 -474l203 474h339v-949h-271v452
l-271 -588l-271 586v-450h-482z" />
    <glyph glyph-name=".notdef" horiz-adv-x="9800" 
d="M208 1432l204 -542l203 542h271l-474 -1220l-449 1154v-2l-68 68h313zM9256 822q-339 0 -339 308q0 302 339 302h407l-271 -271h-136q-67 0 -67 -31q0 -37 67 -37h136q339 0 339 -302q0 -308 -339 -308h-407l271 271h136q68 0 68 37q0 31 -68 31h-136zM7826 483l-23 68
h-319l103 271h125l-90 271l-239 -610l-364 -271l449 1173l-47 47h337l278 -778v710l-68 68h542q339 0 339 -339q0 -271 -135 -306l339 -575l-678 571l-2 242h137q68 0 68 68t-68 68h-203v-678h-481zM6176 1432l204 -542l203 610l204 -610l203 542h271l-339 -949h-271
l-68 190l-68 -190h-271l-317 888l-61 61h310zM5527 1432v-271h-339v-136h407l-407 -203v-68h339v-271h-611v881l-67 68h678zM5052 212l-678 571l-1 242h137q67 0 67 68t-67 68h-204v-678h-271v881l-68 68h543q339 0 339 -339q0 -271 -136 -306zM3967 1432v-949h-271v881
l-68 68h339zM3289 1432q339 0 339 -339t-339 -339h-136v271h136q68 0 68 68t-68 68h-203v-678h-272v881l-68 68h543zM1451 483l-22 68h-320l104 271h125l-90 271l-239 -610l-365 -271l450 1173l-47 47h336l278 -778v710l-67 68h407l203 -474l203 474h339v-949h-271v452
l-271 -588l-271 586v-450h-482z" />
    <glyph glyph-name="uni0000" horiz-adv-x="0" 
 />
    <glyph glyph-name="uni0000" horiz-adv-x="0" 
 />
    <glyph glyph-name="uni0009" horiz-adv-x="508" 
 />
    <glyph glyph-name="space" unicode=" " horiz-adv-x="800" 
 />
    <glyph glyph-name="space" unicode="&#xa0;" horiz-adv-x="800" 
 />
    <glyph glyph-name="exclam" unicode="!" horiz-adv-x="800" 
d="M201 500l-50 900h500l-50 -900h-400zM201 0v400h400v-400h-400z" />
    <glyph glyph-name="quotedbl" unicode="&#x22;" horiz-adv-x="922" 
d="M412 1400l-50 -600h-300l-50 600h400zM912 1400l-50 -600h-300l-50 600h400z" />
    <glyph glyph-name="numbersign" unicode="#" horiz-adv-x="1451" 
d="M239 600v200h-150l-50 400h200v200h400v-200h200v200h400v-200h150l50 -400h-200v-200h150l50 -400h-200v-200h-400v200h-200v-200h-400v200h-150l-50 400h200zM639 800v-200h200v200h-200z" />
    <glyph glyph-name="dollar" unicode="$" horiz-adv-x="1186" 
d="M400 1395v205h400v-200h300l-400 -400h-200q-100 0 -100 -46q0 -54 100 -54h200q500 0 500 -446q0 -406 -400 -449v-205h-400v200h-300l400 400h200q100 0 100 54q0 46 -100 46h-200q-500 0 -500 454q0 399 400 441z" />
    <glyph glyph-name="percent" unicode="%" horiz-adv-x="1355" 
d="M1336 1400l-849 -1400h-451l853 1400h447zM436 900h-400v400h400v-400zM1336 100h-400v400h400v-400z" />
    <glyph glyph-name="ampersand" unicode="&#x26;" horiz-adv-x="1375" 
d="M781 400q50 100 50 150t-100 50h-250q-100 0 -100 -100t100 -100h300zM581 900h50q100 0 100 75t-100 75h-50q-100 0 -100 -75t100 -75zM618 0h-137q-500 0 -500 500q0 200 200 300q-82 109 -82 218q0 91 57 182q114 183 374 198v2h152v-2q260 -15 374 -198
q57 -91 57 -182q0 -109 -82 -218q200 -100 200 -300q0 -53 -6 -100h256l-200 -400h-214l-50 -127l73 -73h-552z" />
    <glyph glyph-name="quotesingle" unicode="'" horiz-adv-x="423" 
d="M412 1400l-50 -600h-300l-50 600h400z" />
    <glyph glyph-name="parenleft" unicode="(" horiz-adv-x="811" 
d="M71 900q0 700 700 700v-400q-300 0 -300 -300v-400q0 -300 300 -300v-400q-700 0 -700 700v400z" />
    <glyph glyph-name="parenright" unicode=")" horiz-adv-x="779" 
d="M732 500q0 -700 -700 -700v400q300 0 300 300v400q0 300 -300 300v400q700 0 700 -700v-400z" />
    <glyph glyph-name="asterisk" unicode="*" horiz-adv-x="919" 
d="M562 1143l181 183l142 -141l-183 -185h260v-200h-260l183 -185l-142 -141l-181 183v-257h-200v257l-181 -183l-142 141l183 185h-260v200h260l-183 185l142 141l181 -183v257h200v-257z" />
    <glyph glyph-name="plus" unicode="+" horiz-adv-x="947" 
d="M669 900h300v-400h-300v-300h-400v300h-300v400h300v300h400v-300z" />
    <glyph glyph-name="comma" unicode="," horiz-adv-x="600" 
d="M500 200l-600 -600l200 600h400z" />
    <glyph glyph-name="hyphen" unicode="-" horiz-adv-x="737" 
d="M764 900v-400h-800v400h800z" />
    <glyph glyph-name="hyphen" unicode="&#xad;" horiz-adv-x="737" 
d="M764 900v-400h-800v400h800z" />
    <glyph glyph-name="period" unicode="." horiz-adv-x="600" 
d="M500 0h-400v400h400v-400z" />
    <glyph glyph-name="slash" unicode="/" horiz-adv-x="978" 
d="M1161 1600l-897 -1800h-418l909 1800h406z" />
    <glyph glyph-name="zero" unicode="0" horiz-adv-x="1306" 
d="M673 0q-290 0 -495 205t-205 495t205 495t495 205t495 -205t205 -495t-205 -495t-495 -205zM885 488q88 88 88 212t-88 212t-212 88t-212 -88t-88 -212t88 -212t212 -88t212 88z" />
    <glyph glyph-name="one" unicode="1" horiz-adv-x="700" 
d="M600 1500v-1500h-400v1000h-100z" />
    <glyph glyph-name="two" unicode="2" horiz-adv-x="1306" 
d="M1177 0h-1100v459q0 441 600 441h100q100 0 100 41q0 59 -100 59h-700l200 400h400q600 0 600 -459q0 -441 -600 -441q-200 0 -200 -41v-59h600l100 100v-500z" />
    <glyph glyph-name="three" unicode="3" horiz-adv-x="1306" 
d="M354 500v400h300q100 0 100 50t-100 50h-400l-200 400h600q500 0 500 -450q0 -163 -100 -250q100 -87 100 -250q0 -450 -500 -450h-600l200 400h400q100 0 100 50t-100 50h-300z" />
    <glyph glyph-name="four" unicode="4" horiz-adv-x="1306" 
d="M1114 500v-500h-400v500h-700l200 900h400l-100 -500h200v500h400v-500h150l50 -400h-200z" />
    <glyph glyph-name="five" unicode="5" horiz-adv-x="1306" 
d="M178 0v400h600q100 0 100 50t-100 50h-700v900h1200l-200 -400h-600v-100h400q400 0 400 -441q0 -459 -400 -459h-700z" />
    <glyph glyph-name="six" unicode="6" horiz-adv-x="1306" 
d="M593 1000q-100 0 -100 -100h300q500 0 500 -450t-500 -450h-200q-500 0 -500 450v500q0 450 500 450h700l-200 -400h-500zM793 400q100 0 100 50t-100 50h-200q-100 0 -100 -50t100 -50h200z" />
    <glyph glyph-name="seven" unicode="7" horiz-adv-x="1306" 
d="M489 591l164 409h-400l-200 400h1200l-318 -809l-203 -518l73 -73h-552z" />
    <glyph glyph-name="eight" unicode="8" horiz-adv-x="1306" 
d="M771 900q100 0 100 50t-100 50h-200q-100 0 -100 -50t100 -50h200zM771 1400q500 0 500 -450q0 -163 -100 -250q100 -87 100 -250q0 -450 -500 -450h-200q-500 0 -500 450q0 163 100 250q-100 87 -100 250q0 450 500 450h200zM771 400q100 0 100 50v3q0 47 -97 47h-200
q-100 0 -103 -50q0 -50 100 -50h200z" />
    <glyph glyph-name="nine" unicode="9" horiz-adv-x="1306" 
d="M555 1000q-100 0 -100 -50t100 -50h300v50q0 50 -100 50h-200zM755 500h-200q-500 0 -500 450t500 450h200q500 0 500 -450v-5q0 -247 -100 -545l-121 -327l73 -73h-552z" />
    <glyph glyph-name="colon" unicode=":" horiz-adv-x="600" 
d="M500 800h-400v400h400v-400zM500 200h-400v400h400v-400z" />
    <glyph glyph-name="semicolon" unicode=";" horiz-adv-x="600" 
d="M500 1200v-400h-400v400h400zM500 400l-600 -800l200 800h400z" />
    <glyph glyph-name="semicolon" unicode="&#x37e;" horiz-adv-x="600" 
d="M500 1200v-400h-400v400h400zM500 400l-600 -800l200 800h400z" />
    <glyph glyph-name="less" unicode="&#x3c;" horiz-adv-x="1098" 
d="M-35 900l1100 500v-400l-700 -300l700 -300v-400l-1100 500v400z" />
    <glyph glyph-name="equal" unicode="=" horiz-adv-x="1048" 
d="M988 1200l50 -400h-950l-50 400h950zM988 600l50 -400h-950l-50 400h950z" />
    <glyph glyph-name="greater" unicode="&#x3e;" horiz-adv-x="1155" 
d="M1174 500l-1100 -500v400l700 300l-700 300v400l1100 -500v-400z" />
    <glyph glyph-name="question" unicode="?" horiz-adv-x="1135" 
d="M247 900h350q100 0 100 41q0 59 -100 59h-550l-50 400h550q600 0 600 -459q0 -311 -500 -338v-103h-400v400zM647 0h-400v400h400v-400z" />
    <glyph glyph-name="at" unicode="@" horiz-adv-x="1379" 
d="M692 425q-79 -67 -201 -67q-113 0 -167 66q-38 46 -38 114q0 30 7 65q38 180 188 318.5t326 138.5q90 0 246 -77q-112 -235 -131 -291.5t-28 -95.5q-3 -14 -3 -24q0 -20 13 -20q73 0 141 92.5t95 221.5q18 62 18 112q0 86 -52 138q-82 83 -229 83q-233 0 -421 -175
t-244 -441q-12 -56 -12 -106q0 -102 52 -173q77 -105 236 -105q84 0 173 29t167 100l92 -164q-108 -80 -242.5 -122t-250.5 -42q-247 0 -369 157q-86 109 -86 264q0 67 16 142q76 357 344 596t606 239q243 0 361 -135q83 -95 83 -238q0 -61 -15 -130q-44 -206 -189 -366.5
t-326 -160.5q-122 0 -160 57zM764 886q-70 0 -142 -86t-94 -187q-3 -15 -3 -27q0 -38 34 -38q47 0 90 40t71.5 109t71.5 180q-7 9 -28 9z" />
    <glyph glyph-name="A" unicode="A" 
d="M800 1400l500 -1400h-400l-33 100h-471l152 400h185l-133 400l-352 -900l-538 -400l663 1731l-69 69h496z" />
    <glyph glyph-name="B" unicode="B" horiz-adv-x="1297" 
d="M799 400q100 0 100 100t-100 100h-300v-200h300zM699 900q100 0 100 75t-100 75h-200v-150h200zM699 1400q300 0 425 -200q57 -91 57 -182q0 -109 -82 -218q200 -100 200 -300q0 -500 -500 -500h-700v1300l-100 100h700z" />
    <glyph glyph-name="C" unicode="C" horiz-adv-x="1091" 
d="M686 1400h400l-100 -400h-300q-124 0 -212 -88t-88 -212t88 -212t212 -88h300l100 -400h-400q-290 0 -495 205t-205 495t205 495t495 205z" />
    <glyph glyph-name="D" unicode="D" horiz-adv-x="1282" 
d="M499 400h100q124 0 212 88t88 212t-88 212t-212 88h-100v-600zM599 1400q290 0 495 -205t205 -495t-205 -495t-495 -205h-500v1300l-100 100h600z" />
    <glyph glyph-name="E" unicode="E" horiz-adv-x="1063" 
d="M999 1400v-400h-500v-200h600l-600 -300v-100h500v-400h-900v1300l-100 100h1000z" />
    <glyph glyph-name="F" unicode="F" horiz-adv-x="1130" 
d="M1099 1400v-400h-600v-200h600l-600 -400v-400h-400v1300l-100 100h1100z" />
    <glyph glyph-name="G" unicode="G" horiz-adv-x="1155" 
d="M686 0q-290 0 -495 205t-205 495t205 495t495 205h400v-400h-400q-124 0 -212 -88t-88 -212t88 -212t212 -88v400h400v-1200z" />
    <glyph glyph-name="H" unicode="H" horiz-adv-x="1471" 
d="M499 1400v-500h500v500h400v-1400h-400v500h-500v-500h-400v1300l-100 100h500z" />
    <glyph glyph-name="I" unicode="I" horiz-adv-x="569" 
d="M499 1400v-1400h-400v1300l-100 100h500z" />
    <glyph glyph-name="J" unicode="J" horiz-adv-x="698" 
d="M640 1400v-700q0 -700 -597 -700l-100 400h97q200 0 200 300v603l-97 97h497z" />
    <glyph glyph-name="K" unicode="K" horiz-adv-x="1422" 
d="M499 517v-517h-400v1300l-100 100h500v-650l100 150l300 500h500l-454 -681l154 -270l500 -849z" />
    <glyph glyph-name="L" unicode="L" horiz-adv-x="754" 
d="M499 1400v-1000h400l-400 -400h-400v1300l-100 100h500z" />
    <glyph glyph-name="M" unicode="M" horiz-adv-x="1767" 
d="M599 1400l300 -700l300 700h500v-1400h-400v667l-400 -867l-400 864v-664h-400v1300l-100 100h600z" />
    <glyph glyph-name="N" unicode="N" horiz-adv-x="1478" 
d="M1408 1400v-1500l-900 700v-600h-400v1500l900 -750v550l-100 100h500z" />
    <glyph glyph-name="O" unicode="O" horiz-adv-x="1368" 
d="M686 0q-290 0 -495 205t-205 495t205 495t495 205t495 -205t205 -495t-205 -495t-495 -205zM898 488q88 88 88 212t-88 212t-212 88t-212 -88t-88 -212t88 -212t212 -88t212 88z" />
    <glyph glyph-name="P" unicode="P" horiz-adv-x="1350" 
d="M799 1400q500 0 500 -500t-500 -500h-200v400h200q100 0 100 100t-100 100h-300v-1000h-400v1300l-100 100h800z" />
    <glyph glyph-name="Q" unicode="Q" horiz-adv-x="1398" 
d="M986 700q0 124 -88 212t-212 88t-212 -88t-88 -212t88 -212t212 -88t212 88t88 212zM954 51q-123 -51 -268 -51q-290 0 -495 205t-205 495t205 495t495 205t495 -205t205 -495t-205 -495q-17 -17 -34 -32l339 -573z" />
    <glyph glyph-name="R" unicode="R" horiz-adv-x="1350" 
d="M1599 -400l-1000 843l-2 357h202q100 0 100 100t-100 100h-300v-1000h-400v1300l-100 100h800q500 0 500 -500q0 -400 -200 -451z" />
    <glyph glyph-name="S" unicode="S" horiz-adv-x="1190" 
d="M498 500q-500 0 -500 454q0 446 500 446h600l-400 -400h-200q-100 0 -100 -46q0 -54 100 -54h200q500 0 500 -446q0 -454 -500 -454h-600l400 400h200q100 0 100 54q0 46 -100 46h-200z" />
    <glyph glyph-name="T" unicode="T" horiz-adv-x="1042" 
d="M23 1400h1000v-400h-300v-1400l-400 400v1000h-200l-100 -100v500z" />
    <glyph glyph-name="U" unicode="U" horiz-adv-x="1325" 
d="M466 1400v-700q0 -300 200 -300t200 300v700h400v-700q0 -700 -600 -700t-600 700v600l-100 100h500z" />
    <glyph glyph-name="V" unicode="V" horiz-adv-x="1280" 
d="M356 1400l300 -800l300 800h400l-700 -1800l-662 1702v-2l-100 100h462z" />
    <glyph glyph-name="W" unicode="W" horiz-adv-x="1910" 
d="M359 1400l300 -800l300 900l300 -900l300 800h400l-500 -1400h-400l-100 280l-100 -280h-400l-468 1310l-90 90h458z" />
    <glyph glyph-name="X" unicode="X" horiz-adv-x="1284" 
d="M428 700l-476 700h453l244 -364l249 364h454l-470 -703l470 -697h-445l-261 362l-237 -362h-457z" />
    <glyph glyph-name="Y" unicode="Y" horiz-adv-x="1209" 
d="M1352 1400l-943 -1400h-457l476 700l-476 700h453l244 -364l190 277l-87 87h600z" />
    <glyph glyph-name="Z" unicode="Z" horiz-adv-x="1313" 
d="M1004 0h-1100l750 1000h-650l300 400h1100l-700 -1000h643z" />
    <glyph glyph-name="bracketleft" unicode="[" horiz-adv-x="800" 
d="M750 1600v-400h-300v-1000h300v-400h-700v1800h700z" />
    <glyph glyph-name="backslash" unicode="\" horiz-adv-x="1415" 
d="M456 1600l909 -1800h-418l-897 1800h406z" />
    <glyph glyph-name="bracketright" unicode="]" horiz-adv-x="800" 
d="M750 1600v-1800h-700v400h300v1000h-300v400h700z" />
    <glyph glyph-name="asciicircum" unicode="^" horiz-adv-x="1100" 
d="M850 1400l200 -500h-400l-100 250l-100 -250h-400l200 500h600z" />
    <glyph glyph-name="underscore" unicode="_" horiz-adv-x="1300" 
d="M1250 400l-50 -400h-1150l50 400h1150z" />
    <glyph glyph-name="grave" unicode="`" horiz-adv-x="700" 
d="M50 2000h400l200 -500h-400z" />
    <glyph glyph-name="a" unicode="a" 
d="M800 1400l500 -1400h-400l-33 100h-471l152 400h185l-133 400l-352 -900l-538 -400l663 1731l-69 69h496z" />
    <glyph glyph-name="b" unicode="b" horiz-adv-x="1293" 
d="M801 400q100 0 100 100t-100 100h-300v-200h300zM701 900q100 0 100 75t-100 75h-200v-150h200zM701 1400q300 0 425 -200q57 -91 57 -182q0 -109 -82 -218q200 -100 200 -300q0 -500 -500 -500h-700v1300l-100 100h700z" />
    <glyph glyph-name="c" unicode="c" horiz-adv-x="1086" 
d="M687 1400h400l-100 -400h-300q-124 0 -212 -88t-88 -212t88 -212t212 -88h300l100 -400h-400q-290 0 -495 205t-205 495t205 495t495 205z" />
    <glyph glyph-name="d" unicode="d" horiz-adv-x="1278" 
d="M501 400h100q124 0 212 88t88 212t-88 212t-212 88h-100v-600zM601 1400q290 0 495 -205t205 -495t-205 -495t-495 -205h-500v1300l-100 100h600z" />
    <glyph glyph-name="e" unicode="e" horiz-adv-x="1059" 
d="M1001 1400v-400h-500v-200h600l-600 -300v-100h500v-400h-900v1300l-100 100h1000z" />
    <glyph glyph-name="f" unicode="f" horiz-adv-x="1127" 
d="M1101 1400v-400h-600v-200h600l-600 -400v-400h-400v1300l-100 100h1100z" />
    <glyph glyph-name="g" unicode="g" 
d="M687 0q-290 0 -495 205t-205 495t205 495t495 205h400v-400h-400q-124 0 -212 -88t-88 -212t88 -212t212 -88v400h400v-1200z" />
    <glyph glyph-name="h" unicode="h" horiz-adv-x="1467" 
d="M501 1400v-500h500v500h400v-1400h-400v500h-500v-500h-400v1300l-100 100h500z" />
    <glyph glyph-name="i" unicode="i" horiz-adv-x="565" 
d="M501 1400v-1400h-400v1300l-100 100h500z" />
    <glyph glyph-name="j" unicode="j" horiz-adv-x="693" 
d="M641 1400v-700q0 -700 -597 -700l-100 400h97q200 0 200 300v603l-97 97h497z" />
    <glyph glyph-name="k" unicode="k" horiz-adv-x="1417" 
d="M501 517v-517h-400v1300l-100 100h500v-650l100 150l300 500h500l-454 -681l154 -270l500 -849z" />
    <glyph glyph-name="l" unicode="l" horiz-adv-x="749" 
d="M501 1400v-1000h400l-400 -400h-400v1300l-100 100h500z" />
    <glyph glyph-name="m" unicode="m" horiz-adv-x="1764" 
d="M601 1400l300 -700l300 700h500v-1400h-400v667l-400 -867l-400 864v-664h-400v1300l-100 100h600z" />
    <glyph glyph-name="n" unicode="n" horiz-adv-x="1475" 
d="M1410 1400v-1500l-900 700v-600h-400v1500l900 -750v550l-100 100h500z" />
    <glyph glyph-name="o" unicode="o" horiz-adv-x="1363" 
d="M687 0q-290 0 -495 205t-205 495t205 495t495 205t495 -205t205 -495t-205 -495t-495 -205zM899 488q88 88 88 212t-88 212t-212 88t-212 -88t-88 -212t88 -212t212 -88t212 88z" />
    <glyph glyph-name="p" unicode="p" horiz-adv-x="1350" 
d="M801 1400q500 0 500 -500t-500 -500h-200v400h200q100 0 100 100t-100 100h-300v-1000h-400v1300l-100 100h800z" />
    <glyph glyph-name="q" unicode="q" horiz-adv-x="1393" 
d="M987 700q0 124 -88 212t-212 88t-212 -88t-88 -212t88 -212t212 -88t212 88t88 212zM955 51q-123 -51 -268 -51q-290 0 -495 205t-205 495t205 495t495 205t495 -205t205 -495t-205 -495q-17 -17 -34 -32l339 -573z" />
    <glyph glyph-name="r" unicode="r" horiz-adv-x="1350" 
d="M1601 -400l-1000 843l-2 357h202q100 0 100 100t-100 100h-300v-1000h-400v1300l-100 100h800q500 0 500 -500q0 -400 -200 -451z" />
    <glyph glyph-name="s" unicode="s" horiz-adv-x="1185" 
d="M499 500q-500 0 -500 454q0 446 500 446h600l-400 -400h-200q-100 0 -100 -46q0 -54 100 -54h200q500 0 500 -446q0 -454 -500 -454h-600l400 400h200q100 0 100 54q0 46 -100 46h-200z" />
    <glyph glyph-name="t" unicode="t" horiz-adv-x="1037" 
d="M24 1400h1000v-400h-300v-1400l-400 400v1000h-200l-100 -100v500z" />
    <glyph glyph-name="u" unicode="u" horiz-adv-x="1320" 
d="M467 1400v-700q0 -300 200 -300t200 300v700h400v-700q0 -700 -600 -700t-600 700v600l-100 100h500z" />
    <glyph glyph-name="v" unicode="v" horiz-adv-x="1275" 
d="M357 1400l300 -800l300 800h400l-700 -1800l-662 1702v-2l-100 100h462z" />
    <glyph glyph-name="w" unicode="w" horiz-adv-x="1900" 
d="M360 1400l300 -800l300 900l300 -900l300 800h400l-500 -1400h-400l-100 280l-100 -280h-400l-468 1310l-90 90h458z" />
    <glyph glyph-name="x" unicode="x" horiz-adv-x="1278" 
d="M429 700l-476 700h453l244 -364l249 364h454l-470 -703l470 -697h-445l-261 362l-237 -362h-457z" />
    <glyph glyph-name="y" unicode="y" horiz-adv-x="1203" 
d="M1353 1400l-943 -1400h-457l476 700l-476 700h453l244 -364l190 277l-87 87h600z" />
    <glyph glyph-name="z" unicode="z" horiz-adv-x="1309" 
d="M1006 0h-1100l750 1000h-650l300 400h1100l-700 -1000h643z" />
    <glyph glyph-name="braceleft" unicode="{" horiz-adv-x="1000" 
d="M250 900q0 700 700 700v-400q-300 0 -300 -300v-400q0 -300 300 -300v-400q-700 0 -700 700h-200v400h200z" />
    <glyph glyph-name="bar" unicode="|" horiz-adv-x="500" 
d="M450 1600v-1800h-400v1800h400z" />
    <glyph glyph-name="braceright" unicode="}" horiz-adv-x="1000" 
d="M750 500q0 -700 -700 -700v400q300 0 300 300v400q0 300 -300 300v400q700 0 700 -700h200v-400h-200z" />
    <glyph glyph-name="asciitilde" unicode="~" horiz-adv-x="1100" 
d="M50 433v400q150 50 275 50t225 -50q67 -33 145 -33q155 0 355 133v-400q-200 -133 -355 -133q-78 0 -145 33q-100 50 -225 50t-275 -50z" />
    <glyph glyph-name="exclamdown" unicode="&#xa1;" horiz-adv-x="600" 
d="M500 900l50 -900h-500l50 900h400zM500 1000h-400v400h400v-400z" />
    <glyph glyph-name="sterling" unicode="&#xa3;" horiz-adv-x="1300" 
d="M917 900h-1q-51 100 -166 100t-164 -100h164l50 -400h-250v-102h700l-50 -398h-1050v500h-50l-50 400h114q79 500 586 500q293 0 444 -167l-194 -233z" />
    <glyph glyph-name="yen" unicode="&#xa5;" horiz-adv-x="1500" 
d="M950 200v-200h-400v200h-250l-50 400h300l-500 800h427l273 -400l273 400h427l-500 -800h250l50 -400h-300z" />
    <glyph glyph-name="dieresis" unicode="&#xa8;" horiz-adv-x="1000" 
d="M450 1500h-400v400h400v-400zM950 1500h-400v400h400v-400z" />
    <glyph glyph-name="degree" unicode="&#xb0;" horiz-adv-x="500" 
d="M450 1500h-400v400h400v-400z" />
    <glyph glyph-name="acute" unicode="&#xb4;" horiz-adv-x="700" 
d="M450 1500h-400l200 500h400z" />
    <glyph glyph-name="multiply" unicode="&#xd7;" horiz-adv-x="1218" 
d="M597 362l-94 -162h-453l329 500l-327 500h451l97 -164l111 163l457 1l-335 -503l335 -497h-465z" />
    <glyph glyph-name="divide" unicode="&#xf7;" horiz-adv-x="1100" 
d="M1050 900v-400h-1000v400h1000zM750 1000h-400v400h400v-400zM750 0h-400v400h400v-400z" />
    <glyph glyph-name="circumflex" unicode="&#x2c6;" horiz-adv-x="1100" 
d="M850 2000l200 -500h-400l-100 250l-100 -250h-400l200 500h600z" />
    <glyph glyph-name="caron" unicode="&#x2c7;" horiz-adv-x="1100" 
d="M550 1750l100 250h400l-200 -500h-600l-200 500h400z" />
    <glyph glyph-name="uni02C9" unicode="&#x2c9;" horiz-adv-x="900" 
d="M850 1900v-400h-800v400h800z" />
    <glyph glyph-name="dotaccent" unicode="&#x2d9;" horiz-adv-x="500" 
d="M450 1500h-400v400h400v-400z" />
    <glyph glyph-name="tilde" unicode="&#x2dc;" horiz-adv-x="1100" 
d="M50 1533v400q150 50 275 50t225 -50q67 -33 145 -33q155 0 355 133v-400q-200 -133 -355 -133q-78 0 -145 33q-100 50 -225 50t-275 -50z" />
    <glyph glyph-name="hungarumlaut" unicode="&#x2dd;" horiz-adv-x="1246" 
d="M450 900h-400l200 500h400zM996 900h-400l200 500h400z" />
    <glyph glyph-name="endash" unicode="&#x2013;" horiz-adv-x="1100" 
d="M1050 900v-400h-1000v400h1000z" />
    <glyph glyph-name="emdash" unicode="&#x2014;" horiz-adv-x="1999" 
d="M1949 900v-400h-1899v400h1899z" />
    <glyph glyph-name="quoteleft" unicode="&#x2018;" horiz-adv-x="500" 
d="M450 1400l-50 -600h-300l-50 600h400z" />
    <glyph glyph-name="quoteright" unicode="&#x2019;" horiz-adv-x="500" 
d="M450 1400l-50 -600h-300l-50 600h400z" />
    <glyph glyph-name="quotesinglbase" unicode="&#x201a;" horiz-adv-x="500" 
d="M450 200v-600h-400v600h400z" />
    <glyph glyph-name="quotedblleft" unicode="&#x201c;" horiz-adv-x="1000" 
d="M450 1400l-50 -600h-300l-50 600h400zM950 1400l-50 -600h-300l-50 600h400z" />
    <glyph glyph-name="quotedblright" unicode="&#x201d;" horiz-adv-x="1000" 
d="M450 1400l-50 -600h-300l-50 600h400zM950 1400l-50 -600h-300l-50 600h400z" />
    <glyph glyph-name="quotedblbase" unicode="&#x201e;" horiz-adv-x="1000" 
d="M450 200v-600h-400v600h400zM950 200v-600h-400v600h400z" />
    <glyph glyph-name="bullet" unicode="&#x2022;" horiz-adv-x="500" 
d="M250 500q-83 0 -141.5 58.5t-58.5 141.5t58.5 141.5t141.5 58.5t141.5 -58.5t58.5 -141.5t-58.5 -141.5t-141.5 -58.5z" />
    <glyph glyph-name="ellipsis" unicode="&#x2026;" horiz-adv-x="1700" 
d="M450 0h-400v400h400v-400zM1050 0h-400v400h400v-400zM1650 0h-400v400h400v-400z" />
    <glyph glyph-name="guilsinglleft" unicode="&#x2039;" horiz-adv-x="1200" 
d="M50 900l1100 500v-400l-700 -300l700 -300v-400l-1100 500v400z" />
    <glyph glyph-name="guilsinglright" unicode="&#x203a;" horiz-adv-x="1200" 
d="M1150 500l-1100 -500v400l700 300l-700 300v400l1100 -500v-400z" />
    <glyph glyph-name="Euro" unicode="&#x20ac;" horiz-adv-x="1367" 
d="M533 500q5 -6 11 -12q88 -88 212 -88t212 88q42 42 64 94l369 -158q-51 -120 -150 -219q-205 -205 -495 -205t-495 205q-130 130 -178 295h-77l-50 400h127q48 165 178 295q205 205 495 205t495 -205q99 -99 151 -218l-369 -159q-22 51 -65 94q-88 88 -212 88t-212 -88
q-6 -6 -11 -12h173l50 -400h-223z" />
    <glyph glyph-name="trademark" unicode="&#x2122;" horiz-adv-x="1174" 
d="M353 1258v-358h-143v358h-160v143h465v-143h-162zM1124 1401v-501h-143v239l-72 -239h-143l-71 238v-238h-143v501h178l108 -286l107 286h179z" />
    <glyph glyph-name="minus" unicode="&#x2212;" horiz-adv-x="1100" 
d="M1050 900v-400h-1000v400h1000z" />
    <glyph glyph-name="cent" unicode="&#xa2;" horiz-adv-x="1427" 
d="M650 1394v206h200v-206q226 -30 395 -199q83 -83 132 -179l-357 -184q-21 43 -58 80q-88 88 -212 88t-212 -88t-88 -212t88 -212t212 -88t212 88q25 25 43 53l338 -215q-41 -64 -98 -121q-169 -169 -395 -199v-206h-200v206q-226 30 -395 199q-205 205 -205 495t205 495
q169 169 395 199z" />
    <glyph glyph-name="currency" unicode="&#xa4;" horiz-adv-x="1350" 
d="M921 725q0 102 -72 174t-174 72t-174 -72t-72 -174t72 -174t174 -72t174 72t72 174zM380 230l-174 -218l-156 125l179 224q-129 156 -129 364q0 196 114 345l-164 205l156 125l154 -193q138 93 315 93t315 -93l154 193l156 -125l-164 -205q114 -149 114 -345
q0 -208 -129 -364l179 -224l-156 -125l-174 218q-131 -80 -295 -80t-295 80z" />
    <glyph glyph-name="brokenbar" unicode="&#xa6;" horiz-adv-x="500" 
d="M50 750v850h400v-850h-400zM450 650v-850h-400v850h400z" />
    <glyph glyph-name="section" unicode="&#xa7;" horiz-adv-x="9800" 
d="M208 1432l204 -542l203 542h271l-474 -1220l-449 1154v-2l-68 68h313zM9256 822q-339 0 -339 308q0 302 339 302h407l-271 -271h-136q-67 0 -67 -31q0 -37 67 -37h136q339 0 339 -302q0 -308 -339 -308h-407l271 271h136q68 0 68 37q0 31 -68 31h-136zM7826 483l-23 68
h-319l103 271h125l-90 271l-239 -610l-364 -271l449 1173l-47 47h337l278 -778v710l-68 68h542q339 0 339 -339q0 -271 -135 -306l339 -575l-678 571l-2 242h137q68 0 68 68t-68 68h-203v-678h-481zM6176 1432l204 -542l203 610l204 -610l203 542h271l-339 -949h-271
l-68 190l-68 -190h-271l-317 888l-61 61h310zM5527 1432v-271h-339v-136h407l-407 -203v-68h339v-271h-611v881l-67 68h678zM5052 212l-678 571l-1 242h137q67 0 67 68t-67 68h-204v-678h-271v881l-68 68h543q339 0 339 -339q0 -271 -136 -306zM3967 1432v-949h-271v881
l-68 68h339zM3289 1432q339 0 339 -339t-339 -339h-136v271h136q68 0 68 68t-68 68h-203v-678h-272v881l-68 68h543zM1451 483l-22 68h-320l104 271h125l-90 271l-239 -610l-365 -271l450 1173l-47 47h336l278 -778v710l-67 68h407l203 -474l203 474h339v-949h-271v452
l-271 -588l-271 586v-450h-482z" />
    <glyph glyph-name="copyright" unicode="&#xa9;" horiz-adv-x="1366" 
d="M689 0q-290 0 -495 205t-205 495t205 495t495 205t495 -205t205 -495t-205 -495t-495 -205zM692 200q206 0 351.5 145.5t145.5 352.5q0 206 -145.5 351.5t-351.5 145.5q-207 0 -352.5 -145.5t-145.5 -351.5q0 -207 145.5 -352.5t352.5 -145.5zM714 1050h175l25 -200h-200
q-62 0 -106 -44t-44 -106t44 -106t106 -44h175l25 -200h-200q-145 0 -247.5 102.5t-102.5 247.5t102.5 247.5t247.5 102.5z" />
    <glyph glyph-name="guillemotleft" unicode="&#xab;" horiz-adv-x="2250" 
d="M50 900l1100 500v-400l-700 -300l700 -300v-400l-1100 500v400zM1100 900l1100 500v-400l-700 -300l700 -300v-400l-1100 500v400z" />
    <glyph glyph-name="registered" unicode="&#xae;" horiz-adv-x="1500" 
d="M750 0q-290 0 -495 205t-205 495t205 495t495 205t495 -205t205 -495t-205 -495t-495 -205zM753 200q206 0 351.5 145.5t145.5 352.5q0 206 -145.5 351.5t-351.5 145.5q-207 0 -352.5 -145.5t-145.5 -351.5q0 -207 145.5 -352.5t352.5 -145.5zM674 851v-100h151
q50 0 50 50t-50 50h-151zM706 550h-32v-200h-200v701h351q250 0 250 -250q0 -196 -152 -239l152 -212h-225z" />
    <glyph glyph-name="macron" unicode="&#xaf;" horiz-adv-x="900" 
d="M850 1900v-400h-800v400h800z" />
    <glyph glyph-name="plusminus" unicode="&#xb1;" horiz-adv-x="1100" 
d="M750 900h300v-400h-300v-300h-400v300h-300v400h300v300h400v-300zM1050 -300h-1000v400h1000v-400z" />
    <glyph glyph-name="mu" unicode="&#xb5;" horiz-adv-x="1300" 
d="M450 700q0 -300 200 -300t200 300v700h400v-700q0 -700 -600 -700q-110 0 -200 24v-324h-400v1700h400v-700z" />
    <glyph glyph-name="paragraph" unicode="&#xb6;" horiz-adv-x="1300" 
d="M1250 1400v-400h-100v-1300h-400v1300h-200v-1300h-400v950h-100v750h1200z" />
    <glyph glyph-name="guillemotright" unicode="&#xbb;" horiz-adv-x="2250" 
d="M2200 900v-400l-1100 -500v400l700 300l-700 300v400zM1150 900v-400l-1100 -500v400l700 300l-700 300v400z" />
    <glyph glyph-name="questiondown" unicode="&#xbf;" horiz-adv-x="1250" 
d="M300 500v400h400v-103q500 -27 500 -338q0 -459 -600 -459h-550l50 400h550q100 0 100 59q0 41 -100 41h-350zM700 1400v-400h-400v400h400z" />
    <glyph glyph-name="Agrave" unicode="&#xc0;" 
d="M800 1400l500 -1400h-400l-33 100h-471l152 400h185l-133 400l-352 -900l-538 -400l663 1731l-69 69h496zM550 1500l-200 500h400l200 -500h-400z" />
    <glyph glyph-name="Aacute" unicode="&#xc1;" 
d="M800 1400l500 -1400h-400l-33 100h-471l152 400h185l-133 400l-352 -900l-538 -400l663 1731l-69 69h496zM950 1500h-400l200 500h400z" />
    <glyph glyph-name="Acircumflex" unicode="&#xc2;" 
d="M800 1400l500 -1400h-400l-33 100h-471l152 400h185l-133 400l-352 -900l-538 -400l663 1731l-69 69h496zM1050 2000l200 -500h-400l-100 250l-100 -250h-400l200 500h600z" />
    <glyph glyph-name="Atilde" unicode="&#xc3;" 
d="M800 1400l500 -1400h-400l-33 100h-471l152 400h185l-133 400l-352 -900l-538 -400l663 1731l-69 69h496zM250 1533v400q150 50 275 50t225 -50q67 -33 145 -33q155 0 355 133v-400q-200 -133 -355 -133q-78 0 -145 33q-100 50 -225 50t-275 -50z" />
    <glyph glyph-name="Adieresis" unicode="&#xc4;" 
d="M800 1400l500 -1400h-400l-33 100h-471l152 400h185l-133 400l-352 -900l-538 -400l663 1731l-69 69h496zM700 1500h-400v400h400v-400zM1200 1500h-400v400h400v-400z" />
    <glyph glyph-name="Aring" unicode="&#xc5;" 
d="M800 1400l500 -1400h-400l-33 100h-471l152 400h185l-133 400l-352 -900l-538 -400l663 1731l-69 69h496zM750 1500q-93 0 -159 63t-66 151q0 89 66 152t159 63t159 -63t66 -152q0 -88 -66 -151t-159 -63zM750 1600q52 0 88.5 36.5t36.5 88.5t-36.5 88.5t-88.5 36.5
t-88.5 -36.5t-36.5 -88.5t36.5 -88.5t88.5 -36.5z" />
    <glyph glyph-name="AE" unicode="&#xc6;" horiz-adv-x="2133" 
d="M1048 0l-33 100h-471l152 400h185l-133 400l-352 -900l-538 -400l663 1731l-69 69h496l233 -652v552l-100 100h1000v-400h-500v-200h600l-600 -300v-100h500v-400h-1033z" />
    <glyph glyph-name="Ccedilla" unicode="&#xc7;" horiz-adv-x="1086" 
d="M486 27q-165 48 -295 178q-205 205 -205 495t205 495t495 205h400l-100 -400h-300q-124 0 -212 -88t-88 -212t88 -212t212 -88h300l100 -400h-400q-51 0 -100 6v-56q200 0 200 -150t-200 -150h-150v100h100q100 0 125 25q13 13 13 25q0 13 -19 31.5t-169 18.5v177z" />
    <glyph glyph-name="Egrave" unicode="&#xc8;" horiz-adv-x="1063" 
d="M999 1400v-400h-500v-200h600l-600 -300v-100h500v-400h-900v1300l-100 100h1000zM300 1500l-200 500h400l200 -500h-400z" />
    <glyph glyph-name="Eacute" unicode="&#xc9;" horiz-adv-x="1063" 
d="M999 1400v-400h-500v-200h600l-600 -300v-100h500v-400h-900v1300l-100 100h1000zM700 1500h-400l200 500h400z" />
    <glyph glyph-name="Ecircumflex" unicode="&#xca;" horiz-adv-x="1063" 
d="M999 1400v-400h-500v-200h600l-600 -300v-100h500v-400h-900v1300l-100 100h1000zM800 2000l200 -500h-400l-100 250l-100 -250h-400l200 500h600z" />
    <glyph glyph-name="Edieresis" unicode="&#xcb;" horiz-adv-x="1063" 
d="M999 1400v-400h-500v-200h600l-600 -300v-100h500v-400h-900v1300l-100 100h1000zM450 1500h-400v400h400v-400zM950 1500h-400v400h400v-400z" />
    <glyph glyph-name="Igrave" unicode="&#xcc;" horiz-adv-x="569" 
d="M499 1400v-1400h-400v1300l-100 100h500zM50 1500l-200 500h400l200 -500h-400z" />
    <glyph glyph-name="Iacute" unicode="&#xcd;" horiz-adv-x="569" 
d="M499 1400v-1400h-400v1300l-100 100h500zM450 1500h-400l200 500h400z" />
    <glyph glyph-name="Icircumflex" unicode="&#xce;" horiz-adv-x="569" 
d="M499 1400v-1400h-400v1300l-100 100h500zM550 2000l200 -500h-400l-100 250l-100 -250h-400l200 500h600z" />
    <glyph glyph-name="Idieresis" unicode="&#xcf;" horiz-adv-x="569" 
d="M499 1400v-1400h-400v1300l-100 100h500zM200 1500h-400v400h400v-400zM700 1500h-400v400h400v-400z" />
    <glyph glyph-name="Eth" unicode="&#xd0;" horiz-adv-x="1335" 
d="M130 900v500h600q600 0 600 -700t-600 -700h-600v500h-100v400h100zM530 900h200v-400h-200v-100h200q200 0 200 300t-200 300h-200v-100z" />
    <glyph glyph-name="Ntilde" unicode="&#xd1;" horiz-adv-x="1478" 
d="M1408 1400v-1500l-900 700v-600h-400v1500l900 -750v550l-100 100h500zM200 1533v400q150 50 275 50t225 -50q67 -33 145 -33q155 0 355 133v-400q-200 -133 -355 -133q-78 0 -145 33q-100 50 -225 50t-275 -50z" />
    <glyph glyph-name="Ograve" unicode="&#xd2;" horiz-adv-x="1368" 
d="M686 0q-290 0 -495 205t-205 495t205 495t495 205t495 -205t205 -495t-205 -495t-495 -205zM898 488q88 88 88 212t-88 212t-212 88t-212 -88t-88 -212t88 -212t212 -88t212 88zM550 1500l-200 500h400l200 -500h-400z" />
    <glyph glyph-name="Oacute" unicode="&#xd3;" horiz-adv-x="1368" 
d="M686 0q-290 0 -495 205t-205 495t205 495t495 205t495 -205t205 -495t-205 -495t-495 -205zM898 488q88 88 88 212t-88 212t-212 88t-212 -88t-88 -212t88 -212t212 -88t212 88zM950 1500h-400l200 500h400z" />
    <glyph glyph-name="Ocircumflex" unicode="&#xd4;" horiz-adv-x="1368" 
d="M686 0q-290 0 -495 205t-205 495t205 495t495 205t495 -205t205 -495t-205 -495t-495 -205zM898 488q88 88 88 212t-88 212t-212 88t-212 -88t-88 -212t88 -212t212 -88t212 88zM1050 2000l200 -500h-400l-100 250l-100 -250h-400l200 500h600z" />
    <glyph glyph-name="Otilde" unicode="&#xd5;" horiz-adv-x="1368" 
d="M686 0q-290 0 -495 205t-205 495t205 495t495 205t495 -205t205 -495t-205 -495t-495 -205zM898 488q88 88 88 212t-88 212t-212 88t-212 -88t-88 -212t88 -212t212 -88t212 88zM250 1533v400q150 50 275 50t225 -50q67 -33 145 -33q155 0 355 133v-400
q-200 -133 -355 -133q-78 0 -145 33q-100 50 -225 50t-275 -50z" />
    <glyph glyph-name="Odieresis" unicode="&#xd6;" horiz-adv-x="1368" 
d="M686 0q-290 0 -495 205t-205 495t205 495t495 205t495 -205t205 -495t-205 -495t-495 -205zM898 488q88 88 88 212t-88 212t-212 88t-212 -88t-88 -212t88 -212t212 -88t212 88zM700 1500h-400v400h400v-400zM1200 1500h-400v400h400v-400z" />
    <glyph glyph-name="Oslash" unicode="&#xd8;" horiz-adv-x="1402" 
d="M642 996q-91 -16 -159 -84q-88 -88 -88 -212q0 -73 30 -133zM758 406q84 17 149 82q88 88 88 212q0 69 -27 127zM1164 1220q13 -12 26 -25q205 -205 205 -495t-205 -495t-495 -205q-69 0 -134 12l-105 -212h-418l191 378q-15 13 -29 27q-205 205 -205 495t205 495
t495 205q75 0 144 -14l108 214h406z" />
    <glyph glyph-name="Ugrave" unicode="&#xd9;" horiz-adv-x="1325" 
d="M466 1400v-700q0 -300 200 -300t200 300v700h400v-700q0 -700 -600 -700t-600 700v600l-100 100h500zM450 1500l-200 500h400l200 -500h-400z" />
    <glyph glyph-name="Uacute" unicode="&#xda;" horiz-adv-x="1325" 
d="M466 1400v-700q0 -300 200 -300t200 300v700h400v-700q0 -700 -600 -700t-600 700v600l-100 100h500zM850 1500h-400l200 500h400z" />
    <glyph glyph-name="Ucircumflex" unicode="&#xdb;" horiz-adv-x="1325" 
d="M466 1400v-700q0 -300 200 -300t200 300v700h400v-700q0 -700 -600 -700t-600 700v600l-100 100h500zM950 2000l200 -500h-400l-100 250l-100 -250h-400l200 500h600z" />
    <glyph glyph-name="Udieresis" unicode="&#xdc;" horiz-adv-x="1325" 
d="M466 1400v-700q0 -300 200 -300t200 300v700h400v-700q0 -700 -600 -700t-600 700v600l-100 100h500zM600 1500h-400v400h400v-400zM1100 1500h-400v400h400v-400z" />
    <glyph glyph-name="Yacute" unicode="&#xdd;" horiz-adv-x="1209" 
d="M1352 1400l-943 -1400h-457l476 700l-476 700h453l244 -364l190 277l-87 87h600zM950 1500h-400l200 500h400z" />
    <glyph glyph-name="Thorn" unicode="&#xde;" horiz-adv-x="1302" 
d="M508 1350h300q500 0 500 -550t-500 -550h-300v-250h-400v1550h400v-200zM508 650h300q100 0 100 150t-100 150h-300v-300z" />
    <glyph glyph-name="germandbls" unicode="&#xdf;" horiz-adv-x="1299" 
d="M708 900q100 0 100 75t-100 75h-200v-150h200zM508 0h-400v1400h600q300 0 425 -200q57 -91 57 -182q0 -109 -82 -218q200 -100 200 -300q0 -500 -500 -500h-200v400h200q100 0 100 100t-100 100h-300v-600z" />
    <glyph glyph-name="agrave" unicode="&#xe0;" 
d="M800 1400l500 -1400h-400l-33 100h-471l152 400h185l-133 400l-352 -900l-538 -400l663 1731l-69 69h496zM550 1500l-200 500h400l200 -500h-400z" />
    <glyph glyph-name="aacute" unicode="&#xe1;" 
d="M800 1400l500 -1400h-400l-33 100h-471l152 400h185l-133 400l-352 -900l-538 -400l663 1731l-69 69h496zM950 1500h-400l200 500h400z" />
    <glyph glyph-name="acircumflex" unicode="&#xe2;" 
d="M800 1400l500 -1400h-400l-33 100h-471l152 400h185l-133 400l-352 -900l-538 -400l663 1731l-69 69h496zM1050 2000l200 -500h-400l-100 250l-100 -250h-400l200 500h600z" />
    <glyph glyph-name="atilde" unicode="&#xe3;" 
d="M800 1400l500 -1400h-400l-33 100h-471l152 400h185l-133 400l-352 -900l-538 -400l663 1731l-69 69h496zM250 1533v400q150 50 275 50t225 -50q67 -33 145 -33q155 0 355 133v-400q-200 -133 -355 -133q-78 0 -145 33q-100 50 -225 50t-275 -50z" />
    <glyph glyph-name="adieresis" unicode="&#xe4;" 
d="M800 1400l500 -1400h-400l-33 100h-471l152 400h185l-133 400l-352 -900l-538 -400l663 1731l-69 69h496zM700 1500h-400v400h400v-400zM1200 1500h-400v400h400v-400z" />
    <glyph glyph-name="aring" unicode="&#xe5;" 
d="M800 1400l500 -1400h-400l-33 100h-471l152 400h185l-133 400l-352 -900l-538 -400l663 1731l-69 69h496zM750 1500q-93 0 -159 63t-66 151q0 89 66 152t159 63t159 -63t66 -152q0 -88 -66 -151t-159 -63zM750 1600q52 0 88.5 36.5t36.5 88.5t-36.5 88.5t-88.5 36.5
t-88.5 -36.5t-36.5 -88.5t36.5 -88.5t88.5 -36.5z" />
    <glyph glyph-name="ae" unicode="&#xe6;" horiz-adv-x="2135" 
d="M1051 0l-33 100h-471l152 400h185l-133 400l-352 -900l-538 -400l663 1731l-69 69h496l233 -652v552l-100 100h1000v-400h-500v-200h600l-600 -300v-100h500v-400h-1033z" />
    <glyph glyph-name="ccedilla" unicode="&#xe7;" horiz-adv-x="1088" 
d="M539 15q-195 40 -345 190q-205 205 -205 495t205 495t495 205h400l-100 -400h-300q-124 0 -212 -88t-88 -212t88 -212t212 -88h300l100 -400h-400q-25 0 -50 2v-52q200 0 200 -150t-200 -150h-150v100h100q100 0 125 25q13 13 13 25q0 13 -19 31.5t-169 18.5v165z" />
    <glyph glyph-name="egrave" unicode="&#xe8;" horiz-adv-x="1059" 
d="M1001 1400v-400h-500v-200h600l-600 -300v-100h500v-400h-900v1300l-100 100h1000zM276 1500l-200 500h400l200 -500h-400z" />
    <glyph glyph-name="eacute" unicode="&#xe9;" horiz-adv-x="1059" 
d="M1001 1400v-400h-500v-200h600l-600 -300v-100h500v-400h-900v1300l-100 100h1000zM676 1500h-400l200 500h400z" />
    <glyph glyph-name="ecircumflex" unicode="&#xea;" horiz-adv-x="1059" 
d="M1001 1400v-400h-500v-200h600l-600 -300v-100h500v-400h-900v1300l-100 100h1000zM776 2000l200 -500h-400l-100 250l-100 -250h-400l200 500h600z" />
    <glyph glyph-name="edieresis" unicode="&#xeb;" horiz-adv-x="1059" 
d="M1001 1400v-400h-500v-200h600l-600 -300v-100h500v-400h-900v1300l-100 100h1000zM426 1500h-400v400h400v-400zM926 1500h-400v400h400v-400z" />
    <glyph glyph-name="igrave" unicode="&#xec;" horiz-adv-x="571" 
d="M503 1400v-1400h-400v1400h400zM103 1500l-200 500h400l200 -500h-400z" />
    <glyph glyph-name="iacute" unicode="&#xed;" horiz-adv-x="573" 
d="M508 1400v-1400h-400v1400h400zM508 1500h-400l200 500h400z" />
    <glyph glyph-name="icircumflex" unicode="&#xee;" horiz-adv-x="659" 
d="M543 1400v-1400h-400v1400h400zM643 2000l200 -500h-400l-100 250l-100 -250h-400l200 500h600z" />
    <glyph glyph-name="idieresis" unicode="&#xef;" horiz-adv-x="580" 
d="M514 1400v-1400h-400v1400h400zM264 1500h-400v400h400v-400zM764 1500h-400v400h400v-400z" />
    <glyph glyph-name="eth" unicode="&#xf0;" horiz-adv-x="1367" 
d="M989 700q0 124 -88 212t-212 88t-212 -88t-88 -212t88 -212t212 -88t212 88t88 212zM730 1687l489 -527l-1 -1q171 -194 171 -459q0 -290 -205 -495t-495 -205t-495 205t-205 495t205 495q129 129 292 177l-61 67l-146 -117l-174 200l146 116l-92 99l294 243l95 -95
l138 109l193 -187z" />
    <glyph glyph-name="ntilde" unicode="&#xf1;" horiz-adv-x="1475" 
d="M1410 1400v-1500l-900 700v-600h-400v1500l900 -750v550l-100 100h500zM200 1533v400q150 50 275 50t225 -50q67 -33 145 -33q155 0 355 133v-400q-200 -133 -355 -133q-78 0 -145 33q-100 50 -225 50t-275 -50z" />
    <glyph glyph-name="ograve" unicode="&#xf2;" horiz-adv-x="1363" 
d="M687 0q-290 0 -495 205t-205 495t205 495t495 205t495 -205t205 -495t-205 -495t-495 -205zM899 488q88 88 88 212t-88 212t-212 88t-212 -88t-88 -212t88 -212t212 -88t212 88zM550 1500l-200 500h400l200 -500h-400z" />
    <glyph glyph-name="oacute" unicode="&#xf3;" horiz-adv-x="1363" 
d="M687 0q-290 0 -495 205t-205 495t205 495t495 205t495 -205t205 -495t-205 -495t-495 -205zM899 488q88 88 88 212t-88 212t-212 88t-212 -88t-88 -212t88 -212t212 -88t212 88zM950 1500h-400l200 500h400z" />
    <glyph glyph-name="ocircumflex" unicode="&#xf4;" horiz-adv-x="1363" 
d="M687 0q-290 0 -495 205t-205 495t205 495t495 205t495 -205t205 -495t-205 -495t-495 -205zM899 488q88 88 88 212t-88 212t-212 88t-212 -88t-88 -212t88 -212t212 -88t212 88zM1050 2000l200 -500h-400l-100 250l-100 -250h-400l200 500h600z" />
    <glyph glyph-name="otilde" unicode="&#xf5;" horiz-adv-x="1363" 
d="M687 0q-290 0 -495 205t-205 495t205 495t495 205t495 -205t205 -495t-205 -495t-495 -205zM899 488q88 88 88 212t-88 212t-212 88t-212 -88t-88 -212t88 -212t212 -88t212 88zM250 1533v400q150 50 275 50t225 -50q67 -33 145 -33q155 0 355 133v-400
q-200 -133 -355 -133q-78 0 -145 33q-100 50 -225 50t-275 -50z" />
    <glyph glyph-name="odieresis" unicode="&#xf6;" horiz-adv-x="1363" 
d="M687 0q-290 0 -495 205t-205 495t205 495t495 205t495 -205t205 -495t-205 -495t-495 -205zM899 488q88 88 88 212t-88 212t-212 88t-212 -88t-88 -212t88 -212t212 -88t212 88zM700 1500h-400v400h400v-400zM1200 1500h-400v400h400v-400z" />
    <glyph glyph-name="oslash" unicode="&#xf8;" horiz-adv-x="1404" 
d="M645 996q-91 -16 -159 -84q-88 -88 -88 -212q0 -73 30 -133zM761 406q84 17 149 82q88 88 88 212q0 69 -27 127zM1167 1220q13 -12 26 -25q205 -205 205 -495t-205 -495t-495 -205q-69 0 -134 12l-105 -212h-418l191 378q-15 13 -29 27q-205 205 -205 495t205 495
t495 205q75 0 144 -14l108 214h406z" />
    <glyph glyph-name="ugrave" unicode="&#xf9;" horiz-adv-x="1320" 
d="M467 1400v-700q0 -300 200 -300t200 300v700h400v-700q0 -700 -600 -700t-600 700v600l-100 100h500zM450 1500l-200 500h400l200 -500h-400z" />
    <glyph glyph-name="uacute" unicode="&#xfa;" horiz-adv-x="1320" 
d="M467 1400v-700q0 -300 200 -300t200 300v700h400v-700q0 -700 -600 -700t-600 700v600l-100 100h500zM850 1500h-400l200 500h400z" />
    <glyph glyph-name="ucircumflex" unicode="&#xfb;" horiz-adv-x="1320" 
d="M467 1400v-700q0 -300 200 -300t200 300v700h400v-700q0 -700 -600 -700t-600 700v600l-100 100h500zM950 2000l200 -500h-400l-100 250l-100 -250h-400l200 500h600z" />
    <glyph glyph-name="udieresis" unicode="&#xfc;" horiz-adv-x="1320" 
d="M467 1400v-700q0 -300 200 -300t200 300v700h400v-700q0 -700 -600 -700t-600 700v600l-100 100h500zM600 1500h-400v400h400v-400zM1100 1500h-400v400h400v-400z" />
    <glyph glyph-name="yacute" unicode="&#xfd;" horiz-adv-x="1203" 
d="M1353 1400l-943 -1400h-457l476 700l-476 700h453l244 -364l190 277l-87 87h600zM950 1500h-400l200 500h400z" />
    <glyph glyph-name="thorn" unicode="&#xfe;" horiz-adv-x="1286" 
d="M508 1350h300q500 0 500 -550t-500 -550h-300v-250h-400v1550h400v-200zM508 650h300q100 0 100 150t-100 150h-300v-300z" />
    <glyph glyph-name="ydieresis" unicode="&#xff;" horiz-adv-x="1203" 
d="M1353 1400l-943 -1400h-457l476 700l-476 700h453l244 -364l190 277l-87 87h600zM700 1500h-400v400h400v-400zM1200 1500h-400v400h400v-400z" />
    <glyph glyph-name="gravecomb" unicode="&#x300;" horiz-adv-x="700" 
d="M250 1500l-200 500h400l200 -500h-400z" />
    <glyph glyph-name="acutecomb" unicode="&#x301;" horiz-adv-x="700" 
d="M450 1500h-400l200 500h400z" />
    <glyph glyph-name="uni0302" unicode="&#x302;" horiz-adv-x="1100" 
d="M850 2000l200 -500h-400l-100 250l-100 -250h-400l200 500h600z" />
    <glyph glyph-name="tildecomb" unicode="&#x303;" horiz-adv-x="1100" 
d="M50 1533v400q150 50 275 50t225 -50q67 -33 145 -33q155 0 355 133v-400q-200 -133 -355 -133q-78 0 -145 33q-100 50 -225 50t-275 -50z" />
    <glyph glyph-name="uni0304" unicode="&#x304;" horiz-adv-x="900" 
d="M850 1900v-400h-800v400h800z" />
    <glyph glyph-name="uni0305" unicode="&#x305;" horiz-adv-x="900" 
d="M850 1900v-400h-800v400h800z" />
    <glyph glyph-name="uni0306" unicode="&#x306;" horiz-adv-x="900" 
d="M800 1900l50 -400q-200 -50 -400 -50t-400 50l50 400q175 -50 350 -50t350 50z" />
    <glyph glyph-name="uni0307" unicode="&#x307;" horiz-adv-x="500" 
d="M450 1500h-400v400h400v-400z" />
    <glyph glyph-name="uni0308" unicode="&#x308;" horiz-adv-x="1000" 
d="M450 1500h-400v400h400v-400zM950 1500h-400v400h400v-400z" />
    <glyph glyph-name="hookabovecomb" unicode="&#x309;" horiz-adv-x="528" 
d="M350 1800q0 100 -100 100t-100 -150h-100q0 250 225 250q203 0 203 -162q0 -18 -14 -128t-164 -210h-100q150 200 150 300z" />
    <glyph glyph-name="uni030A" unicode="&#x30a;" horiz-adv-x="550" 
d="M275 1500q-93 0 -159 63t-66 151q0 89 66 152t159 63t159 -63t66 -152q0 -88 -66 -151t-159 -63zM275 1600q52 0 88.5 36.5t36.5 88.5t-36.5 88.5t-88.5 36.5t-88.5 -36.5t-36.5 -88.5t36.5 -88.5t88.5 -36.5z" />
    <glyph glyph-name="uni030B" unicode="&#x30b;" horiz-adv-x="1246" 
d="M450 1500h-400l200 500h400zM996 1500h-400l200 500h400z" />
    <glyph glyph-name="uni030C" unicode="&#x30c;" horiz-adv-x="1100" 
d="M550 1750l100 250h400l-200 -500h-600l-200 500h400z" />
    <glyph glyph-name="uni0327" unicode="&#x327;" horiz-adv-x="450" 
d="M100 -150v200h100v-100q200 0 200 -150t-200 -150h-150v100h100q100 0 125 25q13 13 13 25q0 13 -19 31.5t-169 18.5z" />
    <glyph glyph-name="OE" unicode="&#x152;" horiz-adv-x="2038" 
d="M986 700q0 124 -88 212t-212 88t-212 -88t-88 -212t88 -212t212 -88t212 88t88 212zM1086 124q-174 -124 -400 -124q-290 0 -495 205t-205 495t205 495t495 205q226 0 400 -124v24l-100 100h1000v-400h-500v-200h600l-600 -300v-100h500v-400h-900v124z" />
    <glyph glyph-name="oe" unicode="&#x153;" horiz-adv-x="2040" 
d="M989 700q0 124 -88 212t-212 88t-212 -88t-88 -212t88 -212t212 -88t212 88t88 212zM1089 124q-174 -124 -400 -124q-290 0 -495 205t-205 495t205 495t495 205q226 0 400 -124v24l-100 100h1000v-400h-500v-200h600l-600 -300v-100h500v-400h-900v124z" />
    <glyph glyph-name="uni0276" unicode="&#x276;" horiz-adv-x="2040" 
d="M989 700q0 124 -88 212t-212 88t-212 -88t-88 -212t88 -212t212 -88t212 88t88 212zM1089 124q-174 -124 -400 -124q-290 0 -495 205t-205 495t205 495t495 205q226 0 400 -124v24l-100 100h1000v-400h-500v-200h600l-600 -300v-100h500v-400h-900v124z" />
    <glyph glyph-name="uni0609" unicode="&#x609;" horiz-adv-x="1900" 
d="M1350 1400l-849 -1400h-451l853 1400h447zM450 900h-400v400h400v-400zM1350 100h-400v400h400v-400zM1850 100h-400v400h400v-400z" />
    <glyph glyph-name="onequarter" unicode="&#xbc;" horiz-adv-x="1600" 
d="M399 1397v-697h-199v498h-50l25 199h224zM1350 1400l-849 -1400h-451l853 1400h447zM1450 250v-250h-200v250h-350l100 450h200l-50 -250h100v250h200v-250h75l25 -200h-100z" />
    <glyph glyph-name="onehalf" unicode="&#xbd;" horiz-adv-x="1600" 
d="M399 1397v-697h-199v498h-50l25 199h224zM1350 1400l-849 -1400h-451l853 1400h447zM1250 700q300 0 300 -229q0 -221 -300 -221q-100 0 -100 -20v-30h375l25 -200h-600v230q0 220 300 220h50q50 0 50 21q0 29 -50 29h-300l-25 200h275z" />
    <glyph glyph-name="threequarters" unicode="&#xbe;" horiz-adv-x="1700" 
d="M1450 1400l-849 -1400h-451l853 1400h447zM1550 250v-250h-200v250h-350l100 450h200l-50 -250h100v250h200v-250h75l25 -200h-100zM201 948v201h150q51 0 51 25t-51 25h-276l-25 201h301q251 0 251 -226q0 -82 -50 -125q50 -44 50 -126q0 -226 -251 -226h-276l-25 201
h301q51 0 51 25t-51 25h-150z" />
    </font>
</defs>
</svg>
