<?xml version="1.0" standalone="no"?>
<!DOCTYPE svg PUBLIC "-//W3C//DTD SVG 20010904//EN"
 "http://www.w3.org/TR/2001/REC-SVG-20010904/DTD/svg10.dtd">
<svg version="1.0" xmlns="http://www.w3.org/2000/svg"
 width="254.000000pt" height="254.000000pt" viewBox="0 0 254.000000 254.000000"
 preserveAspectRatio="xMidYMid meet">
<metadata>
Created by potrace 1.14, written by Peter Selinger 2001-2017
</metadata>
<g transform="translate(0.000000,254.000000) scale(0.100000,-0.100000)"
fill="#000000" stroke="none">
<path d="M107 2156 c-59 -17 -83 -37 -98 -83 -21 -66 6 -136 66 -169 46 -24
50 -43 24 -93 -25 -48 -21 -87 14 -138 34 -51 84 -65 172 -49 37 6 41 5 52
-21 7 -15 33 -50 58 -76 24 -27 54 -69 65 -93 14 -34 24 -45 37 -42 10 2 17
10 15 17 -3 17 16 41 34 41 7 0 16 -9 19 -20 3 -11 17 -23 31 -26 23 -6 54
-57 54 -89 0 -19 -148 -77 -210 -82 -38 -4 -78 1 -125 14 -107 30 -179 13
-211 -49 -26 -51 -27 -85 -4 -130 26 -49 20 -70 -26 -94 -67 -36 -89 -118 -52
-198 26 -59 201 -84 266 -38 41 30 62 70 62 120 0 74 57 119 247 195 109 45
128 55 125 72 -3 17 -1 16 14 -5 34 -48 82 -83 134 -98 19 -6 68 -24 108 -40
77 -31 103 -32 282 -17 102 8 160 23 379 95 83 27 157 50 165 50 16 0 217 -80
273 -108 44 -23 113 -87 114 -106 4 -101 15 -125 72 -157 33 -18 50 -21 106
-17 92 7 147 36 160 85 15 53 14 71 -9 118 -13 27 -32 47 -55 58 -47 23 -53
42 -25 92 27 49 23 90 -13 142 -28 42 -63 56 -126 51 -28 -1 -51 -2 -51 -1 0
1 6 8 13 15 7 7 30 36 52 63 22 28 43 51 47 53 5 2 8 12 8 22 0 10 6 20 13 23
21 7 -10 34 -85 72 -110 56 -183 109 -173 125 5 8 76 -3 118 -19 103 -40 217
31 217 134 0 15 -11 41 -25 59 -22 29 -23 34 -10 53 8 11 28 26 44 33 43 17
75 87 67 143 -4 23 -12 49 -19 58 -38 51 -177 76 -247 44 -43 -19 -80 -79 -80
-129 0 -63 -39 -100 -178 -170 -40 -20 -72 -41 -72 -47 0 -6 -19 9 -42 33 -90
95 -178 135 -321 144 -52 4 -106 15 -147 31 -36 13 -78 29 -95 35 -16 6 -50
19 -75 30 -116 52 -199 68 -380 74 -172 6 -254 -14 -374 -89 -154 -96 -156
-96 -156 -27 0 41 -29 92 -64 115 -33 22 -121 27 -179 11z m2118 -136 c3 -5 1
-10 -4 -10 -6 0 -11 5 -11 10 0 6 2 10 4 10 3 0 8 -4 11 -10z m69 -18 c3 -5
-1 -9 -9 -9 -8 0 -12 4 -9 9 3 4 7 8 9 8 2 0 6 -4 9 -8z m-2169 -42 c3 -5 1
-10 -4 -10 -6 0 -11 5 -11 10 0 6 2 10 4 10 3 0 8 -4 11 -10z m2245 0 c0 -5
-2 -10 -4 -10 -3 0 -8 5 -11 10 -3 6 -1 10 4 10 6 0 11 -4 11 -10z m-255 -298
c-3 -3 -11 0 -18 7 -9 10 -8 11 6 5 10 -3 15 -9 12 -12z m-99 -198 c-4 -33 -2
-54 4 -54 5 0 26 16 45 36 l37 36 33 -18 c29 -15 32 -20 25 -46 -6 -19 -5 -28
3 -29 30 -3 54 4 73 22 11 11 30 18 42 16 29 -4 40 -17 16 -17 -11 0 -31 -14
-43 -31 -35 -47 -111 -73 -111 -37 0 17 -32 78 -41 78 -5 0 -9 -14 -9 -30 0
-100 -86 -124 -229 -66 -48 19 -61 22 -61 10 0 -15 -18 -18 -36 -6 -6 4 -14
32 -17 62 -6 54 -6 56 26 77 17 12 45 27 62 33 38 15 133 27 164 21 22 -4 23
-7 17 -57z m364 -324 c0 -5 -2 -10 -4 -10 -3 0 -8 5 -11 10 -3 6 -1 10 4 10 6
0 11 -4 11 -10z m-56 -236 c3 -8 2 -12 -4 -9 -6 3 -10 10 -10 16 0 14 7 11 14
-7z"/>
<path d="M1759 851 c-141 -89 -63 -312 102 -291 86 11 139 68 139 152 0 26 -4
49 -8 52 -15 9 -72 -38 -72 -60 0 -24 -17 -47 -44 -62 -29 -15 -72 5 -97 44
-18 30 -19 39 -9 64 12 28 62 56 82 44 12 -8 79 38 75 51 -6 17 -50 35 -88 35
-22 0 -52 -11 -80 -29z"/>
<path d="M693 753 c-42 -65 -76 -124 -77 -132 -1 -8 32 -35 73 -61 60 -37 80
-45 110 -42 59 7 85 42 70 94 -6 24 -4 27 22 33 50 11 71 81 37 123 -13 15
-143 102 -153 102 -3 0 -40 -53 -82 -117z m145 1 c43 -30 18 -73 -29 -48 -33
16 -33 18 -19 45 13 23 19 24 48 3z m-63 -100 c27 -18 33 -51 11 -60 -21 -8
-78 24 -70 39 11 18 26 37 31 37 2 0 15 -7 28 -16z"/>
<path d="M1432 700 c-40 -9 -74 -19 -76 -21 -2 -2 11 -69 29 -149 l32 -145 28
2 c53 4 55 6 40 68 -13 56 -12 56 12 66 13 5 33 9 44 9 21 0 25 21 9 50 -8 16
-15 17 -46 8 -28 -7 -39 -7 -45 4 -21 32 -10 45 52 58 45 10 59 17 55 27 -4 8
-6 21 -6 29 0 18 -35 17 -128 -6z"/>
<path d="M1076 683 c-5 -19 -21 -108 -31 -178 -3 -22 -8 -54 -11 -71 l-6 -32
74 -12 c40 -6 79 -12 87 -13 8 -1 17 10 22 25 7 29 -3 38 -44 38 -46 0 -47 9
-26 129 22 124 21 131 -33 131 -17 0 -29 -6 -32 -17z"/>
</g>
</svg>
