<?xml version="1.0" standalone="no"?>
<!DOCTYPE svg PUBLIC "-//W3C//DTD SVG 1.1//EN" "http://www.w3.org/Graphics/SVG/1.1/DTD/svg11.dtd" >
<svg>
<metadata>
Created by FontForge 20120731 at Tue Sep  3 10:48:24 2019
 By ffonts
Copyright (c) 2007 by Miguel Hernandez. All rights reserved.
</metadata>
<defs>
<font id="iCielCadena" horiz-adv-x="516" >
  <font-face 
    font-family="iCiel Cadena"
    font-weight="900"
    font-stretch="normal"
    units-per-em="1000"
    panose-1="2 0 5 3 0 0 0 2 0 4"
    ascent="800"
    descent="-200"
    x-height="539"
    cap-height="651"
    bbox="-371 -234 1310 1149"
    underline-thickness="20"
    underline-position="-123"
    unicode-range="U+001D-FB02"
  />
<missing-glyph horiz-adv-x="446" 
d="M-1 0v626h447v-626h-447zM208 196q-74 0 -74 -62q0 -59 74 -59q75 0 75 59q0 62 -75 62zM223 539q-95 0 -139 -25q-8 -26 -7 -52q1 -53 43 -53q10 0 35 3q23 2 34 2q35 -1 35 -34q0 -21 -37 -49t-37 -59q0 -38 37 -47q18 -5 36 -2q8 13 90 75q59 44 59 117
q0 124 -149 124z" />
    <glyph glyph-name="uniFB01" unicode="fi" horiz-adv-x="672" 
d="M451 536l-157 18q-72 9 -72 -30q0 -16 14 -32h101q45 0 45 -77q0 -54 -22 -81h-85v-288q0 -54 -105 -54t-105 54v288q-64 0 -62 82q0 23 5 42l63 24q-44 56 -44 109q0 126 153 133q63 0 126 -20q63 -21 89 -21q39 0 50 34q6 16 4 33q30 15 75 15q60 0 87 -22
q29 -25 29 -80q0 -127 -189 -127zM633 46q0 -54 -105 -54t-105 54v394q0 52 104 52q106 0 106 -52v-394z" />
    <glyph glyph-name="uniFB02" unicode="fl" horiz-adv-x="688" 
d="M632 145q0 -24 41 -20q13 -33 6 -66q-14 -67 -115 -67q-142 0 -142 133v414l-145 14q-55 5 -55 -29q0 -16 14 -32h101q45 0 45 -77q0 -54 -22 -81h-85v-288q0 -54 -105 -54t-105 54v288q-64 0 -62 82q0 23 5 42l63 24q-44 56 -44 109q0 133 164 133q116 0 231 -49v59
q38 21 102 21q128 0 128 -101q0 -44 -20 -68v-441z" />
    <glyph glyph-name=".notdef" horiz-adv-x="446" 
d="M-1 0v626h447v-626h-447zM208 196q-74 0 -74 -62q0 -59 74 -59q75 0 75 59q0 62 -75 62zM223 539q-95 0 -139 -25q-8 -26 -7 -52q1 -53 43 -53q10 0 35 3q23 2 34 2q35 -1 35 -34q0 -21 -37 -49t-37 -59q0 -38 37 -47q18 -5 36 -2q8 13 90 75q59 44 59 117
q0 124 -149 124z" />
    <glyph glyph-name=".notdef" horiz-adv-x="446" 
d="M-1 0v626h447v-626h-447zM208 196q-74 0 -74 -62q0 -59 74 -59q75 0 75 59q0 62 -75 62zM223 539q-95 0 -139 -25q-8 -26 -7 -52q1 -53 43 -53q10 0 35 3q23 2 34 2q35 -1 35 -34q0 -21 -37 -49t-37 -59q0 -38 37 -47q18 -5 36 -2q8 13 90 75q59 44 59 117
q0 124 -149 124z" />
    <glyph glyph-name=".null" horiz-adv-x="0" 
 />
    <glyph glyph-name="CR" horiz-adv-x="0" 
 />
    <glyph glyph-name="nonmarkingreturn" unicode=" " horiz-adv-x="209" 
 />
    <glyph glyph-name="numbersign" unicode="#" horiz-adv-x="591" 
d="M101 384q-67 0 -65 69q1 35 15 69l82 3l3 32q5 54 22 74t60 20q44 0 61 -15l-12 -106l87 3l2 24q5 54 21 74q17 20 60 20q44 0 62 -15q-6 -41 -13 -100q81 -1 74 -77q-3 -38 -23 -76h-69l-10 -85h1q83 0 76 -76q-3 -39 -23 -77h-71q-2 -22 -2 -28q-6 -71 -27 -96
q-17 -21 -55 -21q-47 0 -59 15l14 131h-88q-2 -22 -2 -28q-6 -71 -26 -100q-19 -25 -56 -25q-47 0 -59 15l14 138h-19q-67 0 -65 69q1 35 15 69l83 3q4 33 10 97h-18zM240 292l88 3q4 27 10 89h-88z" />
    <glyph glyph-name="dollar" unicode="$" horiz-adv-x="550" 
d="M227 655q-5 18 -5 43q0 78 74 78q36 0 56 -14q0 -47 -3 -100q124 -4 163 -33q14 -43 10 -86q-8 -86 -96 -86q-25 0 -61 7q-37 7 -61 7q-75 0 -75 -42q0 -31 48 -36q15 -2 49 -2l57 -2q153 -12 153 -162q0 -191 -189 -232q8 -16 8 -44q0 -76 -74 -76q-36 0 -56 14
q0 46 3 97q-205 6 -205 127q0 71 52 85q73 -42 172 -42q84 0 84 41q0 30 -48 37q-14 2 -49 4q-36 2 -56 5q-153 19 -153 180q0 195 202 232z" />
    <glyph glyph-name="percent" unicode="%" horiz-adv-x="932" 
d="M572 673q26 6 53 1q52 -10 52 -64q0 -45 -47 -123l-103 -169q-95 -156 -197 -329q-6 -4 -23 -4q-103 0 -28 141zM576 44q-49 51 -49 136q0 220 198 220q175 0 175 -199q0 -100 -55 -156q-52 -53 -137 -53q-82 0 -132 52zM760 194q0 48 -9 67q-9 16 -30 16q-36 0 -36 -84
q0 -90 38 -90q37 0 37 91zM72 309q-49 51 -49 136q0 220 198 220q175 0 175 -199q0 -100 -55 -156q-52 -53 -137 -53q-82 0 -132 52zM256 459q0 48 -9 67q-9 16 -30 16q-36 0 -36 -84q0 -90 38 -90q37 0 37 91z" />
    <glyph glyph-name="ampersand" unicode="&#x26;" horiz-adv-x="724" 
d="M374 357q44 -53 119 -119q24 56 19 133q7 15 53 15q35 0 56 -29q19 -29 19 -76q0 -67 -37 -130q51 -38 88 -62q3 -26 -6 -52q-19 -52 -82 -52q-66 0 -134 45q-88 -45 -200 -45q-117 0 -182 50q-66 52 -66 146q0 79 44 127q41 43 104 45q-59 93 -59 158q0 86 59 138
q60 53 159 53q100 0 156 -48q57 -49 57 -137q0 -71 -40 -118q-40 -46 -99 -46q-17 0 -28 4zM235 262q-21 -25 -21 -62q0 -80 95 -80q31 0 50 5q-74 74 -124 137zM343 398q41 60 37 116q-4 53 -40 53q-43 0 -43 -53q0 -50 46 -116z" />
    <glyph glyph-name="quotesingle" unicode="'" horiz-adv-x="254" 
d="M20 591q0 99 113 99q55 0 84 -26q14 -14 17 -27q0 -153 -36 -218q-33 -61 -109 -61q-37 0 -69 13v220z" />
    <glyph glyph-name="parenleft" unicode="(" horiz-adv-x="363" 
d="M87 610q57 108 146 108q68 0 92 -49q12 -25 10 -50q-87 -96 -87 -297q0 -227 84 -360q0 -15 -10 -30q-21 -31 -73 -31q-85 0 -148 114q-70 127 -70 329q0 160 56 266z" />
    <glyph glyph-name="parenright" unicode=")" horiz-adv-x="363" 
d="M276 9q-57 -108 -146 -108q-68 0 -92 50q-12 24 -10 49q87 96 87 297q0 227 -84 360q0 15 10 31q21 30 73 30q85 0 148 -114q70 -127 70 -329q0 -160 -56 -266z" />
    <glyph glyph-name="asterisk" unicode="*" horiz-adv-x="442" 
d="M313 454l57 -75q-12 -62 -75 -62q-61 0 -91 80l-57 -75q-30 0 -53 18q-26 21 -26 54q0 46 51 84l-85 19q-7 20 -7 39q0 67 69 67q35 0 70 -19l5 109q20 13 53 13q76 0 76 -79q0 -22 -6 -51l86 20q39 -17 39 -69q0 -73 -106 -73z" />
    <glyph glyph-name="plus" unicode="+" 
d="M182 242h-76q-72 0 -72 80q0 46 25 73h123v76q0 72 80 72q46 0 73 -25v-123h82q66 0 66 -79q0 -55 -32 -74h-116v-82q0 -66 -79 -66q-55 0 -74 32v116z" />
    <glyph glyph-name="comma" unicode="," horiz-adv-x="314" 
d="M244 -91q-40 -53 -103 -53q-57 0 -71 32q21 37 21 83q0 76 -61 117q0 49 34 77q34 27 92 27q128 0 128 -149q0 -82 -40 -134z" />
    <glyph glyph-name="hyphen" unicode="-" horiz-adv-x="495" 
d="M87 237q-63 22 -63 86q0 44 36 64q265 14 348 -12q63 -20 63 -88q0 -44 -36 -66q-261 -14 -348 16z" />
    <glyph glyph-name="period" unicode="." horiz-adv-x="314" 
d="M156 -15q-126 0 -126 103q0 104 126 104q128 0 128 -104q0 -103 -128 -103z" />
    <glyph glyph-name="slash" unicode="/" horiz-adv-x="437" 
d="M205 36q-25 -67 -47 -93q-29 -33 -75 -33q-70 0 -88 42l208 622q25 72 49 97q27 30 81 30q53 0 78 -39q12 -19 14 -39z" />
    <glyph glyph-name="zero" unicode="0" horiz-adv-x="623" 
d="M536 565q67 -89 67 -239q0 -149 -72 -240q-79 -101 -223 -101t-220 98q-68 88 -68 239q0 160 74 249q77 92 224 92q143 0 218 -98zM373 450q-16 24 -54 24q-37 0 -54 -27q-21 -34 -21 -122q0 -103 21 -136q15 -24 55 -24q37 0 53 25q22 36 22 136q0 91 -22 124z" />
    <glyph glyph-name="one" unicode="1" horiz-adv-x="444" 
d="M27 71q0 84 96 100v259q-98 0 -98 86q0 54 17 66q145 69 195 69q117 0 117 -58v-427l62 -6q17 -13 17 -66q0 -54 -33 -76q-40 -27 -143 -27q-60 0 -219 18q-11 6 -11 62z" />
    <glyph glyph-name="two" unicode="2" horiz-adv-x="514" 
d="M125 463q-31 -11 -51 -11q-32 0 -49 31q-14 25 -14 61q0 51 16 73q71 48 226 48q231 0 231 -213q0 -105 -103 -202q-57 -53 -111 -80h215q18 -23 18 -67q0 -103 -133 -103h-259q-77 0 -89 81q-6 41 4 81q230 162 230 254q0 57 -71 57q-28 0 -60 -10z" />
    <glyph glyph-name="three" unicode="3" horiz-adv-x="514" 
d="M73 320q0 42 37 67q35 23 196 91h-201q-86 0 -86 90q0 53 29 83h359q32 0 57 -31q27 -34 28 -86q0 -67 -34 -108q-38 -46 -133 -85q92 -10 132 -46t40 -108q0 -97 -73 -150q-72 -52 -202 -52q-96 0 -151 31q-55 32 -55 87q0 71 45 84q74 -40 143 -40q94 0 94 52
q0 27 -43 37q-40 9 -144 9q-38 23 -38 75z" />
    <glyph glyph-name="four" unicode="4" horiz-adv-x="609" 
d="M513 50q0 -66 -106 -66q-113 0 -113 66v68h-141q-147 0 -147 94q0 31 7 53l160 284q30 52 65 74q44 27 125 27q108 0 150 -38v-346h65q15 -26 15 -66q0 -42 -14 -59q-17 -22 -66 -22v-69zM294 474l-110 -213h110v213z" />
    <glyph glyph-name="five" unicode="5" horiz-adv-x="514" 
d="M219 384q69 13 138 -2q137 -31 137 -172q0 -101 -69 -162q-72 -63 -196 -63q-212 0 -212 113q0 66 51 79q69 -29 139 -29q86 0 86 51q0 33 -48 47q-50 14 -206 23l14 382h406q23 -29 23 -89q0 -92 -93 -92q-79 0 -166 5z" />
    <glyph glyph-name="six" unicode="6" horiz-adv-x="583" 
d="M517 394q51 -56 51 -156q0 -118 -73 -185q-74 -68 -208 -68q-131 0 -202 79q-66 73 -66 196q0 150 94 273q99 130 238 130q57 0 80 -33q12 -17 12 -34q-78 -56 -136 -153q30 6 69 6q90 0 141 -55zM295 144q52 0 52 86q0 97 -93 85q-9 -40 -9 -85q0 -86 50 -86z" />
    <glyph glyph-name="seven" unicode="7" horiz-adv-x="507" 
d="M339 150q-44 -94 -74 -123q-37 -35 -103 -35q-65 0 -86 40q-10 20 -8 40l220 406h-193q-86 0 -86 90q0 53 29 83h366q85 0 85 -115q0 -67 -150 -386z" />
    <glyph glyph-name="eight" unicode="8" horiz-adv-x="558" 
d="M451 324q87 -51 87 -141q0 -198 -274 -198q-115 0 -180 53q-64 52 -64 138q0 102 96 153q-87 60 -87 142q0 87 65 139q67 53 183 53q114 0 182 -56q65 -53 65 -132q0 -90 -73 -151zM245 256q-33 -41 -33 -77q0 -57 56 -57q53 0 53 52q0 40 -76 82zM319 379q22 36 22 65
q0 63 -55 63q-54 0 -54 -53q0 -41 87 -75z" />
    <glyph glyph-name="nine" unicode="9" horiz-adv-x="583" 
d="M67 254q-51 56 -51 156q0 118 73 185q74 68 208 68q131 0 202 -79q66 -73 66 -196q0 -150 -94 -273q-99 -130 -238 -130q-57 0 -80 34q-12 16 -12 33q78 55 136 152q-33 -5 -69 -5q-90 0 -141 55zM289 504q-52 0 -52 -86q0 -98 92 -86q10 45 10 86q0 86 -50 86z" />
    <glyph glyph-name="colon" unicode=":" horiz-adv-x="325" 
d="M160 21q-126 0 -126 103q0 104 126 104q128 0 128 -104q0 -103 -128 -103zM160 332q-126 0 -126 103q0 104 126 104q128 0 128 -104q0 -103 -128 -103z" />
    <glyph glyph-name="semicolon" unicode=";" horiz-adv-x="325" 
d="M160 332q-126 0 -126 103q0 104 126 104q128 0 128 -104q0 -103 -128 -103zM244 -53q-40 -53 -103 -53q-57 0 -71 32q21 37 21 83q0 76 -61 117q0 49 34 77q34 27 92 27q128 0 128 -149q0 -82 -40 -134z" />
    <glyph glyph-name="less" unicode="&#x3c;" horiz-adv-x="398" 
d="M386 186q1 -28 -9 -56q-22 -56 -82 -56q-87 0 -188 88q-96 83 -96 139q0 49 113 146q112 97 168 97q45 0 69 -28q20 -24 20 -59q0 -56 -92 -111q-46 -28 -92 -44z" />
    <glyph glyph-name="equal" unicode="=" horiz-adv-x="511" 
d="M100 346q-82 0 -82 86q0 65 36 80h348q83 0 83 -86q0 -65 -36 -80h-349zM100 129q-82 0 -82 86q0 65 36 80h348q83 0 83 -86q0 -65 -36 -80h-349z" />
    <glyph glyph-name="greater" unicode="&#x3e;" horiz-adv-x="398" 
d="M14 427q-1 28 10 56q21 56 81 56q87 0 188 -88q96 -83 96 -139q0 -49 -113 -146q-112 -97 -168 -97q-45 0 -69 29q-20 23 -20 58q0 56 92 111q46 28 92 44z" />
    <glyph glyph-name="question" unicode="?" horiz-adv-x="480" 
d="M201 -15q-126 0 -126 103q0 104 126 104q128 0 128 -104q0 -103 -128 -103zM377 335q-144 -98 -152 -107q-31 -3 -63 5q-63 16 -63 70q0 59 71 94q70 36 70 63q0 42 -53 38q-12 -1 -51 -7q-34 -6 -53 -6q-64 0 -65 79q-1 39 11 78q56 38 198 38q109 0 171 -48
q64 -49 64 -139q0 -99 -85 -158z" />
    <glyph glyph-name="at" unicode="@" horiz-adv-x="871" 
d="M228 198q0 130 69 216q72 90 193 90q146 0 146 -146q0 -25 -23 -122q-15 -68 7 -68q26 0 50 50q29 60 29 157q0 95 -46 141q-50 51 -166 51q-135 0 -224 -104q-92 -108 -92 -282q0 -128 64 -187q50 -45 130 -45q37 0 84 9q48 9 65 9q43 0 58 -28q16 -27 1 -74
q-45 -47 -219 -47q-156 0 -244 100q-84 96 -84 260q0 231 129 370q131 140 353 140q169 0 257 -82q84 -80 84 -228q0 -157 -71 -249q-72 -93 -194 -93q-65 0 -98 33q-27 -48 -111 -48q-147 0 -147 177zM452 147q-1 6 -1 20q0 51 27 155q7 30 4 42q-4 14 -26 14
q-27 0 -51 -48q-27 -54 -27 -127q0 -62 42 -62q12 0 32 6z" />
    <glyph glyph-name="A" unicode="A" horiz-adv-x="611" 
d="M353 108h-129l-3 -23q-11 -92 -114 -92q-56 0 -83 28q-13 13 -15 27q60 345 112 510q32 101 182 101q154 0 186 -101q102 -317 102 -480q0 -85 -118 -85q-59 0 -85 22q-23 20 -31 69zM266 421q-3 -16 -9 -69q-7 -60 -13 -102h87q-7 47 -14 102l-9 69q-7 50 -22 50
q-13 0 -20 -50z" />
    <glyph glyph-name="B" unicode="B" horiz-adv-x="613" 
d="M564 472q0 -102 -65 -135q24 -8 48 -30q47 -43 47 -109q0 -212 -308 -212q-150 0 -208 51q-40 36 -40 108v417q0 60 56 82q55 21 204 21q266 0 266 -193zM260 152q21 -8 58 -8q68 0 68 51q0 54 -63 60q-31 3 -63 -5v-98zM299 494q-14 0 -39 -2v-128q16 6 41 12q24 6 33 9
q28 12 28 51q0 58 -63 58z" />
    <glyph glyph-name="C" unicode="C" horiz-adv-x="537" 
d="M280 439q-21 -31 -21 -108q0 -161 116 -161q51 0 112 20q33 -16 33 -74q0 -131 -200 -131q-137 0 -217 86q-83 87 -83 241q0 176 89 267q82 84 229 84q123 0 176 -36q10 -43 7 -86q-6 -86 -72 -86q-24 0 -57 6q-34 5 -50 5q-44 0 -62 -27z" />
    <glyph glyph-name="D" unicode="D" horiz-adv-x="642" 
d="M267 170q16 -5 43 -5q81 0 81 153q0 92 -23 128q-19 30 -61 30q-30 0 -40 -5v-301zM540 580q82 -84 82 -242q0 -176 -92 -268q-85 -85 -232 -85q-256 0 -256 133v429q0 65 50 90q55 28 204 28q161 0 244 -85z" />
    <glyph glyph-name="E" unicode="E" horiz-adv-x="522" 
d="M478 153q23 -16 23 -61q0 -54 -25 -75q-29 -25 -104 -25h-163q-96 0 -135 31q-33 25 -33 78v483q0 29 23 49q22 18 54 18h331q29 -26 29 -84q-2 -55 -22 -76q-22 -23 -81 -23h-116v-82h186q44 0 44 -68q0 -46 -25 -65q-26 -20 -86 -20h-119v-80h219z" />
    <glyph glyph-name="F" unicode="F" horiz-adv-x="507" 
d="M259 468v-107h186q44 0 44 -68q0 -46 -25 -65q-26 -20 -86 -20h-107v-156q0 -32 -26 -46t-88 -14q-116 0 -116 60v532q0 29 23 49q22 18 54 18h327q29 -26 29 -84q-2 -55 -22 -76q-22 -23 -81 -23h-112z" />
    <glyph glyph-name="G" unicode="G" horiz-adv-x="596" 
d="M280 440q-21 -31 -21 -109q0 -91 27 -130q25 -35 78 -35q15 0 23 1v167q25 23 90 23q53 0 75 -25q24 -27 24 -89q0 -145 -48 -198q-53 -60 -208 -60q-137 0 -217 86q-83 87 -83 241q0 176 89 267q82 84 229 84q123 0 196 -32q12 -43 8 -87q-7 -87 -83 -87q-24 0 -62 6
q-39 5 -55 5q-44 0 -62 -28z" />
    <glyph glyph-name="H" unicode="H" horiz-adv-x="655" 
d="M613 52q0 -60 -115 -60q-116 0 -116 60v167h-109v-167q0 -60 -115 -60q-116 0 -116 60v541q0 58 114 58q117 0 117 -58v-222h109v222q0 58 114 58q117 0 117 -58v-541z" />
    <glyph glyph-name="I" unicode="I" horiz-adv-x="321" 
d="M276 52q0 -60 -115 -60q-116 0 -116 60v541q0 58 114 58q117 0 117 -58v-541z" />
    <glyph glyph-name="J" unicode="J" horiz-adv-x="321" 
d="M276 53q0 -83 -42 -130q-42 -48 -119 -48q-75 0 -104 47q-15 24 -15 47q49 42 49 108v516q0 58 114 58q117 0 117 -58v-540z" />
    <glyph glyph-name="K" unicode="K" horiz-adv-x="616" 
d="M272 361l102 225q17 36 40 51q29 17 89 17q92 0 92 -53q0 -32 -50 -125q-26 -48 -68 -117l137 -283q0 -21 -15 -42q-28 -42 -99 -42q-59 0 -93 24q-29 20 -53 70q-25 49 -82 194v-228q0 -60 -115 -60q-116 0 -116 60v541q0 58 114 58q117 0 117 -58v-232z" />
    <glyph glyph-name="L" unicode="L" horiz-adv-x="433" 
d="M42 594q0 57 112 57q113 0 113 -57l-1 -441h141q23 -16 23 -61q0 -100 -119 -100h-102q-96 0 -135 31q-33 25 -33 78z" />
    <glyph glyph-name="M" unicode="M" horiz-adv-x="908" 
d="M851 551q17 -176 29 -483q0 -76 -103 -76q-91 0 -106 47l-12 456l-74 -403q-15 -100 -142 -100q-133 0 -151 102l-81 408l-6 -449q-1 -61 -92 -61q-71 0 -84 47q13 362 29 514q6 56 38 81q39 30 127 30q86 0 124 -32q31 -25 40 -83q16 -100 64 -375l69 379q9 58 41 82
q38 29 132 29q147 0 158 -113z" />
    <glyph glyph-name="N" unicode="N" horiz-adv-x="651" 
d="M450 265q-19 111 -19 319q0 67 91 67q89 0 89 -67v-474q0 -61 -30 -88q-34 -30 -119 -30q-64 0 -98 33q-28 27 -57 101l-104 261q19 -111 19 -328q0 -67 -93 -67q-89 0 -89 67v484q0 65 37 88q32 20 114 20q79 0 110 -31q20 -20 53 -105z" />
    <glyph glyph-name="O" unicode="O" horiz-adv-x="661" 
d="M569 565q72 -89 72 -239q0 -149 -77 -241q-84 -101 -237 -101t-234 98q-73 88 -73 239q0 161 80 250q82 92 238 92q151 0 231 -98zM381 458q-16 34 -53 34q-71 0 -71 -170q0 -107 19 -146q15 -34 54 -34q35 0 51 35q19 42 19 146q0 96 -19 135z" />
    <glyph glyph-name="P" unicode="P" horiz-adv-x="600" 
d="M370 387q0 92 -98 92v-187q9 -1 18 -1q80 0 80 96zM508 592q82 -70 82 -191q0 -120 -70 -187q-70 -66 -196 -66q-29 0 -51 3v-99q0 -60 -115 -60q-116 0 -116 60v509q0 60 54 81q50 21 186 21q144 0 226 -71z" />
    <glyph glyph-name="Q" unicode="Q" horiz-adv-x="661" 
d="M315 -91q0 50 40 76l-28 -1q-153 0 -234 98q-73 88 -73 239q0 161 80 250q82 92 238 92q151 0 231 -98q72 -89 72 -239q0 -239 -175 -315q60 1 101 34q18 -3 35 -15q35 -25 35 -71q-3 -99 -151 -99q-57 0 -117 -28q-54 7 -54 77zM381 458q-16 34 -53 34q-71 0 -71 -170
q0 -107 19 -146q15 -34 54 -34q35 0 51 35q19 42 19 146q0 96 -19 135z" />
    <glyph glyph-name="R" unicode="R" horiz-adv-x="607" 
d="M512 593q76 -66 76 -183q0 -107 -67 -172l75 -174q-1 -18 -17 -36q-30 -36 -99 -36q-71 0 -99 29q-33 33 -63 149q-26 0 -46 2v-120q0 -60 -115 -60q-116 0 -116 60v509q0 60 54 81q50 21 186 21q150 0 231 -70zM369 405q0 84 -98 84v-178q9 -1 18 -1q80 0 80 95z" />
    <glyph glyph-name="S" unicode="S" horiz-adv-x="550" 
d="M512 629q14 -43 10 -86q-8 -86 -96 -86q-25 0 -61 7q-37 7 -61 7q-75 0 -75 -42q0 -31 48 -36q15 -2 49 -2l57 -2q153 -12 153 -162q0 -108 -67 -171q-74 -71 -220 -71q-226 0 -226 128q0 71 52 85q73 -42 172 -42q84 0 84 41q0 30 -48 37q-14 2 -49 4q-36 2 -56 5
q-153 19 -153 180q0 111 71 174q76 66 221 66q150 0 195 -34z" />
    <glyph glyph-name="T" unicode="T" horiz-adv-x="561" 
d="M395 468v-416q0 -60 -115 -60q-116 0 -116 60v416h-68q-86 0 -86 95q0 56 29 88h430q79 0 79 -95q0 -65 -38 -88h-115z" />
    <glyph glyph-name="U" unicode="U" horiz-adv-x="641" 
d="M605 262q0 -123 -67 -196q-74 -81 -216 -81q-283 0 -283 274l-1 334q0 58 114 58q117 0 117 -58v-357q0 -52 15 -73q14 -20 48 -20t49 20q16 22 16 76l-1 354q0 58 103 58q106 0 106 -58v-331z" />
    <glyph glyph-name="V" unicode="V" horiz-adv-x="614" 
d="M319 171q55 209 70 447q22 45 117 45q108 0 108 -83q0 -149 -143 -505q-36 -90 -154 -90q-103 0 -145 57l-172 564q15 57 104 57q59 0 89 -19q32 -20 47 -72q48 -171 79 -401z" />
    <glyph glyph-name="W" unicode="W" horiz-adv-x="904" 
d="M642 158q37 331 37 468q18 37 110 37q108 0 108 -82q0 -185 -119 -523q-25 -73 -146 -73q-101 0 -136 44q-32 259 -45 442q-12 -291 -57 -416q-27 -70 -140 -70q-91 0 -121 42l-133 580q1 14 15 28q28 28 96 28q108 0 129 -92q32 -133 35 -413q50 330 50 466
q36 39 128 39q121 0 137 -82q40 -192 52 -423z" />
    <glyph glyph-name="X" unicode="X" horiz-adv-x="602" 
d="M462 334l130 -268q0 -18 -15 -37q-29 -37 -102 -37q-105 0 -138 96q-20 61 -50 164l-48 -207q-3 -13 -20 -27q-34 -27 -103 -28q-99 -1 -99 72q0 77 131 278l-132 248q1 19 16 38q31 37 100 37q104 0 135 -80q32 -87 46 -199l55 254q32 25 104 25q107 0 107 -75
q0 -104 -117 -254z" />
    <glyph glyph-name="Y" unicode="Y" horiz-adv-x="591" 
d="M182 51v156q-111 174 -182 385q0 30 33 51q32 21 78 21q58 0 87 -21q30 -21 48 -74q35 -103 67 -261l63 324q26 31 102 31q107 0 107 -72q0 -99 -73 -239q-63 -122 -104 -150v-151q0 -59 -113 -59t-113 59z" />
    <glyph glyph-name="Z" unicode="Z" horiz-adv-x="508" 
d="M472 153q21 -24 21 -70q0 -91 -101 -91h-297q-35 0 -58 28q-22 27 -22 67q0 39 33 99l175 295h-136q-78 0 -78 92q0 49 25 78h425q38 -13 38 -85q0 -65 -38 -125l-183 -288h196z" />
    <glyph glyph-name="bracketleft" unicode="[" horiz-adv-x="385" 
d="M41 564q0 95 51 133q46 33 155 33q67 0 93 -18q24 -18 24 -61q0 -39 -11 -64q-71 0 -91 -21q-21 -22 -21 -100v-346q0 -47 20 -63t80 -16q16 -16 16 -51q0 -51 -34 -74q-38 -26 -125 -26q-157 0 -157 154v520z" />
    <glyph glyph-name="backslash" unicode="\" horiz-adv-x="437" 
d="M15 641q0 87 93 87q49 0 63 -11q248 -655 248 -752q0 -74 -79 -74q-35 0 -51 11q-274 697 -274 739z" />
    <glyph glyph-name="bracketright" unicode="]" horiz-adv-x="385" 
d="M344 56q0 -95 -51 -132q-46 -34 -155 -34q-67 0 -93 19q-24 17 -24 60q0 39 11 64q71 0 91 21q21 22 21 100v346q0 47 -20 63t-80 16q-16 16 -16 51q0 51 35 74q37 26 124 26q157 0 157 -154v-520z" />
    <glyph glyph-name="asciicircum" unicode="^" horiz-adv-x="480" 
d="M226 558q1 1 -9 -38q-10 -42 -20 -75q-34 -108 -68 -108q-26 0 -51 10q-52 20 -52 73q0 75 72 178q74 107 135 107q75 0 151 -114q70 -106 70 -186q0 -26 -26 -45q-30 -23 -83 -23q-54 0 -91 108z" />
    <glyph glyph-name="underscore" unicode="_" horiz-adv-x="396" 
d="M98 -162q-36 0 -61 21t-25 52q0 42 23 67h265q81 0 81 -72q0 -51 -30 -68h-253z" />
    <glyph glyph-name="grave" unicode="`" horiz-adv-x="327" 
d="M135 708q-111 35 -111 102q0 57 46 84q22 14 45 16q175 -71 175 -150q0 -58 -44 -73q-55 4 -111 21z" />
    <glyph glyph-name="a" unicode="a" 
d="M289 34q-50 -42 -114 -42q-77 0 -119 40q-38 37 -38 97q0 72 51 105q60 39 204 39l1 51q0 45 -47 45q-23 0 -62 -16q-39 -17 -63 -17q-82 0 -82 90q0 51 18 80q100 46 207 46q122 0 175 -42q60 -48 60 -168q0 -44 -7 -112t-7 -83q0 -26 41 -22q13 -33 6 -66
q-14 -67 -115 -67q-78 0 -109 42zM190 141q0 -37 40 -37q21 0 36 14v7q0 20 2 58q-60 -6 -72 -11q-6 -10 -6 -31z" />
    <glyph glyph-name="b" unicode="b" horiz-adv-x="562" 
d="M103 25q-65 42 -65 119v520q0 54 105 54t105 -54v-194q23 82 122 82q174 0 174 -270q0 -296 -283 -296q-98 0 -158 39zM323 358q-16 23 -51 23q-13 0 -24 -4v-251q50 -20 72 16q20 33 20 122q0 68 -17 94z" />
    <glyph glyph-name="c" unicode="c" horiz-adv-x="454" 
d="M216 273q0 -137 107 -137q38 0 82 16q35 -11 35 -66q0 -101 -167 -101q-122 0 -189 72q-68 71 -68 201q0 147 75 224q69 70 191 70q115 0 150 -28q11 -39 7 -78q-6 -78 -75 -78q-23 0 -50 5q-27 4 -39 4q-59 0 -59 -104z" />
    <glyph glyph-name="d" unicode="d" horiz-adv-x="571" 
d="M311 549v117q0 52 104 52q106 0 106 -52v-521q0 -24 41 -20q13 -33 6 -66q-14 -67 -115 -67q-77 0 -115 44q-25 -44 -109 -44q-211 0 -211 266q0 146 71 222q67 72 188 72q7 0 34 -3zM311 127v282q-89 5 -89 -148q0 -82 21 -113q15 -23 46 -23q10 0 22 2z" />
    <glyph glyph-name="e" unicode="e" horiz-adv-x="508" 
d="M218 226q13 -87 107 -87q61 0 113 29q41 -16 41 -68q0 -49 -45 -79q-53 -36 -156 -36q-128 0 -197 76q-65 71 -65 189q0 148 73 227q69 75 190 75q102 0 158 -54q55 -54 55 -151q0 -75 -28 -113zM217 317l104 8q2 10 2 25q0 44 -42 44q-56 0 -64 -77z" />
    <glyph glyph-name="f" unicode="f" horiz-adv-x="386" 
d="M65 334q-64 0 -62 82q0 23 5 42l63 24q-44 39 -44 109q0 135 198 135q97 0 149 -12q12 -41 10 -83q-4 -83 -72 -83q-13 0 -35 2q-21 3 -29 3q-27 -1 -27 -29q0 -20 16 -32h100q45 0 45 -77q0 -54 -22 -81h-85v-288q0 -54 -105 -54t-105 54v288z" />
    <glyph glyph-name="g" unicode="g" horiz-adv-x="552" 
d="M468 525q52 -25 52 -58l-2 -1l2 -1v-404q0 -206 -270 -206q-102 0 -159 33q-55 32 -55 85q0 61 42 73q67 -42 145 -42q59 0 79 20q14 14 11 49q-29 -19 -86 -19q-96 0 -150 53q-59 58 -59 169q0 133 75 204q76 72 224 72q93 0 151 -27zM310 190v203q-91 -5 -91 -112
q0 -93 63 -93q12 0 28 2z" />
    <glyph glyph-name="h" unicode="h" horiz-adv-x="561" 
d="M248 482q27 70 118 70q161 0 161 -205v-301q0 -54 -105 -54t-105 54v277q0 33 -10 46q-10 12 -39 12q-8 0 -20 -3v-332q0 -54 -105 -54t-105 54v620q0 52 104 52q106 0 106 -52v-184z" />
    <glyph glyph-name="i" unicode="i" horiz-adv-x="292" 
d="M251 46q0 -54 -105 -54t-105 54v441q0 52 104 52q106 0 106 -52v-441zM32 668q0 97 114 97t114 -97q0 -95 -114 -95t-114 95z" />
    <glyph glyph-name="j" unicode="j" horiz-adv-x="290" 
d="M41 487q0 52 104 52q106 0 106 -52v-476q0 -170 -145 -170q-73 0 -97 48q-12 23 -9 47q41 33 41 97v454zM32 668q0 97 114 97t114 -97q0 -95 -114 -95t-114 95z" />
    <glyph glyph-name="k" unicode="k" horiz-adv-x="538" 
d="M242 318l90 175q30 59 112 59q80 0 80 -46q0 -29 -43 -108q-15 -29 -59 -101l115 -227q1 -20 -11 -39q-24 -40 -85 -40t-91 21q-22 15 -44 60q-14 27 -64 143v-169q0 -54 -105 -54t-105 54v620q0 52 104 52q106 0 106 -52v-348z" />
    <glyph glyph-name="l" unicode="l" horiz-adv-x="292" 
d="M32 666q0 52 104 52q106 0 106 -52v-521q0 -24 41 -20q13 -33 6 -66q-14 -67 -115 -67q-142 0 -142 133v541z" />
    <glyph glyph-name="m" unicode="m" horiz-adv-x="825" 
d="M793 54q0 -54 -105 -54t-105 54v269q0 33 -10 46q-10 12 -39 12l-15 -1l1 -16v-318q0 -54 -105 -54t-105 54v277q0 33 -10 46q-10 12 -39 12q-10 0 -19 -3v-332q0 -54 -105 -54t-105 54v441q0 52 104 52q106 0 106 -52v-20q28 85 123 85q111 0 139 -80q27 80 128 80
q161 0 161 -205v-293z" />
    <glyph glyph-name="n" unicode="n" horiz-adv-x="553" 
d="M32 487q0 52 104 52q106 0 106 -52v-5q27 70 118 70q161 0 161 -205v-301q0 -54 -105 -54t-105 54v277q0 33 -10 46q-10 12 -39 12q-8 0 -20 -3v-332q0 -54 -105 -54t-105 54v441z" />
    <glyph glyph-name="o" unicode="o" horiz-adv-x="545" 
d="M468 471q61 -76 61 -199q0 -125 -63 -202q-69 -85 -197 -85t-194 83q-59 74 -59 201q0 134 67 208q69 75 200 75q118 0 185 -81zM271 392q-53 0 -53 -125q0 -79 14 -108q12 -25 41 -25q51 0 51 134q0 124 -53 124z" />
    <glyph glyph-name="p" unicode="p" horiz-adv-x="558" 
d="M38 498q0 54 105 54t105 -54v-28q23 82 122 82q170 0 170 -273q0 -144 -68 -220q-60 -67 -155 -67q-43 0 -69 12v-97q0 -52 -104 -52q-106 0 -106 52v591zM323 358q-16 23 -51 23q-13 0 -24 -4v-259q43 -9 69 37q23 42 23 109q0 68 -17 94z" />
    <glyph glyph-name="q" unicode="q" horiz-adv-x="558" 
d="M365 500l27 45q26 6 49 6q42 0 60 -14q19 -14 19 -50v-578q0 -54 -105 -54t-105 54v101q-33 -18 -81 -18q-211 0 -211 266q0 293 247 293q78 0 100 -51zM310 118v275q-91 -3 -91 -122q0 -86 13 -118q14 -37 57 -37q9 0 21 2z" />
    <glyph glyph-name="r" unicode="r" horiz-adv-x="418" 
d="M242 483q25 62 96 62q48 0 70 -20q10 -27 10 -67q0 -125 -103 -125q-41 0 -73 19v-306q0 -54 -105 -54t-105 54v441q0 52 104 52q106 0 106 -52v-4z" />
    <glyph glyph-name="s" unicode="s" horiz-adv-x="483" 
d="M448 523q10 -38 6 -76q-9 -77 -79 -77q-22 0 -59 8q-37 7 -58 7q-55 0 -55 -34q0 -24 41 -27q13 -2 43 -2q32 0 49 -2q132 -11 132 -135q0 -86 -55 -138q-66 -62 -201 -62q-196 0 -196 111q0 58 42 72q55 -37 153 -37q65 0 65 38q0 22 -40 26q-10 2 -41 3q-29 1 -47 4
q-128 16 -128 149q0 93 63 146q66 55 193 55q122 0 172 -29z" />
    <glyph glyph-name="t" unicode="t" horiz-adv-x="396" 
d="M347 9q-33 -24 -107 -24q-89 0 -137 53q-46 51 -46 138v205q-47 0 -53 62q-3 31 4 62q51 43 74 120q27 26 91 26q90 0 90 -58v-54h77q44 0 44 -85q0 -42 -23 -73h-98v-204q0 -33 48 -33q24 0 48 6q20 -21 20 -65q0 -53 -32 -76z" />
    <glyph glyph-name="u" unicode="u" horiz-adv-x="571" 
d="M34 487q0 52 104 52q106 0 106 -52v-310q0 -47 42 -47q15 0 27 3v354q0 52 104 52q106 0 106 -52v-342q0 -24 41 -20q13 -33 6 -66q-14 -67 -115 -67q-83 0 -118 48q-34 -48 -130 -48q-86 0 -131 46q-42 42 -42 114v335z" />
    <glyph glyph-name="v" unicode="v" horiz-adv-x="542" 
d="M277 112q48 290 48 405q26 35 104 35q98 0 98 -70q0 -132 -118 -422q-30 -74 -135 -74q-86 0 -120 48l-149 469q21 48 96 48q100 0 121 -77q41 -143 55 -362z" />
    <glyph glyph-name="w" unicode="w" horiz-adv-x="802" 
d="M566 131q33 276 33 391q15 30 93 30q95 0 95 -70q0 -135 -104 -435q-22 -62 -125 -62q-86 0 -116 39q-25 185 -39 334q-11 -219 -47 -313q-23 -59 -119 -59q-86 0 -104 35l-125 486q18 45 100 45q88 0 106 -79q33 -147 41 -342q42 272 42 387q31 34 109 34q103 0 117 -58
q38 -160 43 -363z" />
    <glyph glyph-name="x" unicode="x" horiz-adv-x="530" 
d="M401 277l115 -224q-1 -15 -13 -30q-26 -31 -86 -31q-96 0 -124 76q-27 70 -45 142l-43 -174q-10 -44 -108 -46q-87 -1 -87 60q0 64 115 233l-116 206q1 16 14 32q27 31 88 31q92 0 119 -67q28 -73 41 -157l48 203q28 21 92 21q94 0 94 -63q0 -84 -104 -212z" />
    <glyph glyph-name="y" unicode="y" horiz-adv-x="529" 
d="M328 -110q-33 -35 -108 -35q-94 0 -94 82q0 55 48 92l-169 463q0 15 12 30q24 30 84 30q82 0 112 -70q29 -67 60 -320l46 350q21 40 94 40q57 0 80 -16q21 -15 21 -52q0 -70 -186 -594z" />
    <glyph glyph-name="z" unicode="z" horiz-adv-x="477" 
d="M444 149q19 -22 19 -65q0 -84 -93 -84h-276q-32 0 -53 26q-21 25 -21 62q0 52 37 101l147 193h-108q-72 0 -72 85q0 45 23 72h376q35 -21 35 -79q0 -71 -43 -123l-153 -188h182z" />
    <glyph glyph-name="braceleft" unicode="{" horiz-adv-x="405" 
d="M30 281q0 44 8 44q72 21 72 74q0 18 -14 73q-15 55 -15 92q0 163 185 163q65 0 92 -18q26 -17 26 -59q0 -37 -12 -62q-75 0 -98 -28q-22 -28 -22 -121t-13 -141q26 -24 26 -57q0 -29 -6 -63q-7 -35 -7 -58q0 -46 26 -62q23 -14 87 -14q12 -20 12 -57q0 -50 -21 -72
q-30 -31 -112 -31q-162 0 -162 160q0 77 28 174q-80 6 -80 63z" />
    <glyph glyph-name="bar" unicode="|" horiz-adv-x="261" 
d="M206 80q-2 -121 -20 -165q-19 -48 -69 -48q-42 0 -58 22q-11 400 -11 769q0 52 31 80q26 23 65 23q28 0 49 -11q21 -12 21 -29z" />
    <glyph glyph-name="braceright" unicode="}" horiz-adv-x="405" 
d="M380 329q0 -44 -8 -44q-72 -21 -72 -74q0 -18 15 -73q14 -55 14 -92q0 -163 -185 -163q-65 0 -92 18q-26 17 -26 59q0 37 12 62q75 0 98 28q22 28 22 121t13 141q-26 24 -26 57q0 29 7 64q6 34 6 57q0 46 -26 62q-23 14 -87 14q-12 20 -12 57q0 50 22 72q29 31 111 31
q162 0 162 -160q0 -77 -28 -174q80 -6 80 -63z" />
    <glyph glyph-name="asciitilde" unicode="~" horiz-adv-x="426" 
d="M305 424q13 4 31 4q73 0 73 -78q0 -61 -34 -104q-39 -51 -109 -51q-83 0 -133 71q-13 -67 -14 -66q-13 -4 -30 -4q-73 0 -73 85q0 48 30 87q33 44 83 44q90 0 150 -70z" />
    <glyph glyph-name="uni00A0" unicode="&#xa0;" horiz-adv-x="187" 
 />
    <glyph glyph-name="exclamdown" unicode="&#xa1;" horiz-adv-x="308" 
d="M157 552q126 0 126 -103q0 -104 -126 -104q-128 0 -128 104q0 103 128 103zM67 270q22 20 83 20q126 0 126 -240q0 -194 -136 -194q-58 0 -91 35q-17 17 -22 34q40 193 40 345z" />
    <glyph glyph-name="cent" unicode="&#xa2;" horiz-adv-x="450" 
d="M139 15q-123 65 -123 243q0 252 202 288q8 65 25 91q18 28 59 28q55 0 62 -35l-18 -82q64 -7 86 -24q11 -39 7 -78q-6 -78 -75 -78q-23 0 -50 5q-27 4 -39 4q-59 0 -59 -104q0 -144 98 -144q35 0 92 18q27 -13 27 -68q0 -94 -166 -94h-17q-25 -110 -81 -110q-50 0 -48 30
z" />
    <glyph glyph-name="sterling" unicode="&#xa3;" horiz-adv-x="526" 
d="M256 235q-5 -30 -18 -75h241q19 -12 19 -52q0 -107 -124 -107h-194q-150 0 -150 109l-1 1q47 47 54 124h-51q-19 17 -19 56q0 47 64 64q-17 119 -17 126q0 91 60 135q64 47 207 47q47 0 110 -12q28 -26 28 -96q0 -54 -31 -70q-18 -9 -67 -8t-68 -10q-31 -18 -31 -75v-20
q94 2 166 2q23 -17 23 -66q0 -73 -85 -73h-116z" />
    <glyph glyph-name="currency" unicode="&#xa4;" horiz-adv-x="559" 
d="M354 572l67 85q30 9 60 4q60 -9 60 -74q0 -52 -40 -120q35 -62 35 -145q0 -106 -55 -176l54 -91q3 -18 -4 -35q-14 -36 -63 -36q-60 0 -133 80q-30 -5 -58 -5q-40 0 -75 8q-53 -55 -96 -85q-22 -3 -44 4q-44 15 -44 64q0 37 45 113q-38 63 -38 156q0 105 48 169
q-28 62 -47 109q1 17 11 33q20 33 65 33q40 0 64 -17q25 -18 59 -72q33 5 66 5q28 0 63 -7zM287 432q-63 0 -63 -114q0 -122 65 -122q61 0 61 122q0 114 -63 114z" />
    <glyph glyph-name="yen" unicode="&#xa5;" horiz-adv-x="651" 
d="M73 256q-55 0 -55 59q0 43 25 53h74q-60 122 -94 224q0 31 32 51q32 21 83 21q57 0 85 -21q28 -20 46 -74q35 -103 67 -261l63 327q26 31 102 31q107 0 107 -72q11 -78 -66 -226h40q56 0 56 -58q0 -44 -25 -54h-137l-28 -37h134q56 0 56 -58q0 -44 -25 -54h-182v-56
q0 -59 -113 -59t-113 59v56h-131q-55 0 -55 59q0 43 25 53h153l-21 37h-103z" />
    <glyph glyph-name="brokenbar" unicode="&#xa6;" horiz-adv-x="346" 
d="M229 -61q-13 -82 -60 -82q-42 0 -58 22q-11 131 -11 281q0 103 76 103q28 0 49 -11q21 -12 21 -29q-10 -239 -17 -284zM111 349q-11 152 -11 302q0 52 31 80q26 23 65 23q28 0 49 -11q21 -12 21 -29q0 -230 -23 -313q-20 -74 -74 -74q-42 0 -58 22z" />
    <glyph glyph-name="section" unicode="&#xa7;" horiz-adv-x="493" 
d="M425 624q9 -33 5 -67q-8 -67 -75 -67q-21 0 -59 6q-39 6 -59 6q-68 0 -68 -35q0 -25 43 -28q13 -1 45 -1q33 0 51 -1q139 -9 139 -139q0 -70 -55 -123q84 -29 84 -144q0 -206 -243 -206q-181 0 -181 107q0 72 60 87q35 -43 139 -43q72 0 72 36q0 21 -41 27q-12 2 -43 5
q-31 2 -48 5q-133 21 -133 139q0 74 57 126q-96 24 -96 148q0 93 63 146q65 55 187 55q126 0 156 -39zM249 304q-42 -29 -42 -69q0 -38 58 -43q41 25 41 60q0 45 -57 52z" />
    <glyph glyph-name="dieresis" unicode="&#xa8;" horiz-adv-x="624" 
d="M189 682q-109 0 -109 89q0 90 109 90q110 0 110 -90q0 -89 -110 -89zM434 682q-109 0 -109 89q0 90 109 90q110 0 110 -90q0 -89 -110 -89z" />
    <glyph glyph-name="copyright" unicode="&#xa9;" horiz-adv-x="739" 
d="M120 74q-90 92 -90 253q0 184 97 279q90 88 250 88q151 0 240 -88q92 -91 92 -253q0 -185 -95 -279q-90 -89 -257 -89q-149 0 -237 89zM605 347q0 111 -63 174q-62 60 -165 60q-109 0 -171 -61q-67 -65 -67 -191q0 -111 62 -174q60 -61 163 -61q241 0 241 253zM387 156
q-78 0 -123 46q-47 47 -47 131q0 96 50 145q47 46 130 46q64 0 93 -15q14 -19 14 -47q0 -47 -39 -53q-12 -2 -33 0l-29 3q-51 0 -51 -68q0 -80 71 -80q32 0 70 11q14 -10 14 -43q0 -76 -120 -76z" />
    <glyph glyph-name="ordfeminine" unicode="&#xaa;" horiz-adv-x="495" 
d="M279 212q-38 -26 -99 -26q-74 0 -113 38q-34 32 -34 85q0 133 222 129l1 17q0 37 -50 37q-22 0 -53 -11q-31 -12 -52 -12q-31 0 -49 30q-14 24 -14 56q0 45 14 63q85 44 177 44q109 0 156 -36q54 -41 54 -145q0 -66 -12 -175h25q10 -23 10 -45q0 -75 -101 -75
q-56 0 -82 26zM417 148q48 -8 48 -62q0 -38 -32 -64q-37 -30 -105 -30q-40 0 -86 16q-45 16 -68 16q-45 0 -97 -26q-47 9 -47 63q0 38 32 63q36 30 104 30q36 0 85 -15q48 -16 69 -16q45 0 97 25zM248 295v64q-62 -1 -62 -36t35 -35q19 0 27 7z" />
    <glyph glyph-name="guillemotleft" unicode="&#xab;" horiz-adv-x="607" 
d="M279 474q23 -23 23 -59q0 -56 -112 -145q21 -54 115 -149q-1 -17 -14 -35q-25 -35 -81 -35q-70 0 -133 86q-56 76 -56 133q0 35 76 129q79 97 120 97q39 0 62 -22zM560 474q23 -23 23 -59q0 -56 -112 -145q21 -54 115 -149q-1 -17 -14 -35q-25 -35 -81 -35q-70 0 -133 86
q-56 76 -56 133q0 35 76 129q79 97 120 97q39 0 62 -22z" />
    <glyph glyph-name="logicalnot" unicode="&#xac;" horiz-adv-x="713" 
d="M503 271q-70 -10 -217 -10t-208 29q-51 24 -51 75q0 41 24 62h529q103 0 103 -93q0 -201 -28 -279q-23 -63 -74 -63q-44 0 -63 18z" />
    <glyph glyph-name="uni00AD" unicode="&#xad;" 
d="M417 395q66 0 66 -79q0 -55 -32 -74h-345q-72 0 -72 80q0 46 25 73h358z" />
    <glyph glyph-name="registered" unicode="&#xae;" horiz-adv-x="739" 
d="M120 74q-90 92 -90 253q0 184 97 279q90 88 250 88q151 0 240 -88q92 -91 92 -253q0 -185 -95 -279q-90 -89 -257 -89q-149 0 -237 89zM605 347q0 111 -63 174q-62 60 -165 60q-109 0 -171 -61q-67 -65 -67 -191q0 -111 62 -174q60 -61 163 -61q241 0 241 253zM485 489
q43 -37 43 -102q0 -58 -37 -97l41 -97q-3 -40 -64 -40q-40 0 -56 16q-19 18 -35 83q-15 0 -26 1v-67q0 -33 -64 -33q-65 0 -65 33v285q0 33 30 45q28 12 104 12q84 0 129 -39zM360 330q46 0 46 53q0 48 -56 48v-100z" />
    <glyph glyph-name="macron" unicode="&#xaf;" horiz-adv-x="415" 
d="M212 576q-102 0 -143 17q-42 17 -42 60q0 40 16 53q43 9 165 9q181 0 181 -70q0 -43 -24 -59q-29 -10 -153 -10z" />
    <glyph glyph-name="degree" unicode="&#xb0;" horiz-adv-x="407" 
d="M69 342q-49 46 -49 126q0 87 53 135q50 45 134 45q81 0 129 -45q51 -47 51 -128q0 -88 -52 -134q-50 -44 -137 -44q-81 0 -129 45zM248 472q0 61 -41 61q-46 0 -46 -65q0 -61 40 -61q47 0 47 65z" />
    <glyph glyph-name="plusminus" unicode="&#xb1;" horiz-adv-x="549" 
d="M206 333h-84q-61 0 -61 68q0 39 21 61h124v54q0 61 67 61q39 0 62 -21v-94h89q55 0 55 -66q0 -47 -27 -63h-117v-59q0 -55 -67 -55q-46 0 -62 27v87zM122 59q-61 0 -61 68q0 39 21 61h342q55 0 55 -66q0 -47 -27 -63h-330z" />
    <glyph glyph-name="uni00B2" unicode="&#xb2;" horiz-adv-x="353" 
d="M105 537q-20 -7 -33 -7q-46 0 -46 62q0 34 9 47q42 33 141 33q149 0 149 -137q0 -82 -115 -169h115q13 -17 13 -46q0 -69 -89 -69h-150q-68 0 -68 71q0 21 4 36q136 101 136 155q0 30 -32 30q-14 0 -34 -6z" />
    <glyph glyph-name="uni00B3" unicode="&#xb3;" horiz-adv-x="369" 
d="M52 455q0 26 26 43q23 16 106 49h-96q-60 0 -60 60q0 34 22 56h213q22 0 39 -23q20 -25 20 -63q-1 -68 -52 -90l-39 -17q94 -17 94 -97q0 -61 -47 -95q-46 -33 -128 -33q-62 0 -98 21q-36 20 -36 56q0 47 35 57q47 -25 87 -25q51 0 51 27q0 25 -112 25q-25 15 -25 49z
" />
    <glyph glyph-name="acute" unicode="&#xb4;" horiz-adv-x="327" 
d="M31 650q0 49 88 105q43 27 87 45q23 -2 46 -16q45 -27 45 -84q0 -67 -111 -102q-55 -17 -111 -21q-44 15 -44 73z" />
    <glyph glyph-name="mu" unicode="&#xb5;" horiz-adv-x="566" 
d="M337 39q-27 -37 -98 -45q15 -57 39 -107q-4 -18 -21 -35q-34 -36 -98 -36q-125 0 -125 169v502q0 52 104 52q106 0 106 -52v-310q0 -47 42 -47q15 0 27 3v354q0 52 104 52q106 0 106 -52v-362h36q16 -33 11 -66q-11 -67 -119 -67q-81 0 -114 47z" />
    <glyph glyph-name="paragraph" unicode="&#xb6;" horiz-adv-x="640" 
d="M639 575q0 -70 -63 -72q-5 -287 -14 -495q-4 -75 -70 -75q-28 0 -55 13v563h-39q-7 -397 -14 -521q-4 -74 -70 -74q-28 0 -55 12v281q-12 -1 -36 -1q-207 0 -207 197q0 138 85 200q82 59 256 59q173 0 261 -15q21 -32 21 -72z" />
    <glyph glyph-name="periodcentered" unicode="&#xb7;" horiz-adv-x="314" 
d="M157 435q126 0 126 -116t-126 -116t-126 116t126 116z" />
    <glyph glyph-name="cedilla" unicode="&#xb8;" horiz-adv-x="645" 
d="M360 -49q53 -22 53 -67q0 -50 -39 -77q-35 -24 -87 -24q-63 0 -92 20q-2 15 2 29q7 29 37 29q9 0 26 -3l26 -5q28 -3 28 22q0 12 -36 28t-36 46q0 47 47 62q11 -35 71 -60z" />
    <glyph glyph-name="uni00B9" unicode="&#xb9;" horiz-adv-x="335" 
d="M43 261q-11 6 -11 42q0 54 60 67v153q-61 3 -61 59q0 32 16 46q89 43 124 43q79 0 79 -42v-261l36 -4q14 -10 14 -46t-22 -51q-26 -19 -95 -19q-38 0 -138 12z" />
    <glyph glyph-name="ordmasculine" unicode="&#xba;" horiz-adv-x="500" 
d="M420 593q50 -62 50 -168q0 -105 -54 -169q-59 -71 -168 -71t-166 69q-52 62 -52 167q0 114 56 176q58 65 169 65q108 0 165 -69zM249 534q-43 0 -43 -112q0 -70 12 -97q9 -22 32 -22q41 0 41 120q0 111 -42 111zM420 148q48 -8 48 -62q0 -38 -32 -64q-37 -30 -105 -30
q-40 0 -86 16q-45 16 -68 16q-45 0 -97 -26q-47 9 -47 63q0 38 32 63q36 30 104 30q36 0 85 -15q48 -16 69 -16q45 0 97 25z" />
    <glyph glyph-name="guillemotright" unicode="&#xbb;" horiz-adv-x="607" 
d="M328 74q-23 22 -23 58q0 56 112 145q-21 54 -115 149q2 18 14 35q25 35 81 35q70 0 133 -85q56 -77 56 -134q0 -35 -76 -129q-79 -97 -120 -97q-39 0 -62 23zM47 74q-23 22 -23 58q0 56 112 145q-21 54 -115 149q2 18 14 35q25 35 81 35q70 0 133 -85q56 -77 56 -134
q0 -35 -76 -129q-79 -97 -120 -97q-39 0 -62 23z" />
    <glyph glyph-name="onequarter" unicode="&#xbc;" horiz-adv-x="932" 
d="M43 262q-10 17 -10 43q0 55 56 65v153q-61 3 -61 59q0 35 16 46q89 43 124 43q79 0 79 -42v-262q22 -2 46 -3q13 -10 13 -46t-22 -50q-26 -18 -95 -18q-68 0 -141 10zM847 46q0 -46 -72 -46q-78 0 -78 46v37h-80q-99 0 -99 63q0 18 4 32l102 180q36 65 123 65
q71 0 100 -26v-212h38q12 -23 12 -46q0 -54 -50 -56v-37zM697 282l-52 -100h52v100zM419 600q17 77 89 77q60 0 68 -46l-134 -573q-17 -72 -79 -72q-46 0 -65 35z" />
    <glyph glyph-name="onehalf" unicode="&#xbd;" horiz-adv-x="932" 
d="M43 262q-10 17 -10 43q0 55 56 65v153q-61 3 -61 59q0 35 16 46q89 43 124 43q79 0 79 -42v-262q22 -2 46 -3q13 -10 13 -46t-22 -50q-26 -18 -95 -18q-68 0 -141 10zM636 288q-19 -7 -35 -7q-46 0 -46 62q0 33 10 47q42 32 141 32q150 0 150 -136q0 -100 -115 -171h114
q14 -18 14 -46q0 -69 -89 -69h-156q-63 0 -63 71q0 20 4 36q136 101 136 156q0 31 -31 31q-15 0 -34 -6zM411 600q17 77 89 77q60 0 68 -46l-134 -573q-17 -72 -79 -72q-46 0 -65 35z" />
    <glyph glyph-name="threequarters" unicode="&#xbe;" horiz-adv-x="958" 
d="M873 46q0 -46 -73 -46q-77 0 -77 46v37h-81q-98 0 -98 63q0 18 4 32l101 180q37 65 124 65q71 0 100 -26v-212h37q12 -23 12 -46q0 -54 -49 -56v-37zM723 282l-52 -100h52v100zM82 393q-27 16 -27 52q0 29 21 44q21 16 110 53h-93q-62 0 -62 63q0 34 23 58h223
q23 0 41 -21q20 -24 21 -60q-1 -77 -50 -101l-44 -19q97 -17 97 -103q0 -65 -49 -100q-48 -34 -135 -34q-65 0 -102 21q-37 22 -37 59q0 50 35 60q50 -26 92 -26q54 0 54 28q0 25 -114 25zM446 600q17 77 89 77q60 0 68 -46l-134 -573q-17 -72 -79 -72q-46 0 -65 35z" />
    <glyph glyph-name="questiondown" unicode="&#xbf;" horiz-adv-x="480" 
d="M279 550q126 0 126 -103q0 -104 -126 -104q-128 0 -128 104q0 103 128 103zM104 200q143 98 151 107q32 3 63 -5q63 -16 63 -70q0 -59 -70 -94q-71 -36 -71 -63q0 -42 53 -38q12 1 51 7q34 6 53 6q64 0 65 -78q1 -40 -11 -79q-56 -38 -198 -38q-109 0 -171 48
q-64 49 -64 139q0 99 86 158z" />
    <glyph glyph-name="Agrave" unicode="&#xc0;" horiz-adv-x="611" 
d="M353 108h-129l-3 -23q-11 -92 -114 -92q-56 0 -83 28q-13 13 -15 27q60 345 112 510q32 101 182 101q154 0 186 -101q102 -317 102 -480q0 -85 -118 -85q-59 0 -85 22q-23 20 -31 69zM266 421q-3 -16 -9 -69q-7 -60 -13 -102h87q-7 47 -14 102l-9 69q-7 50 -22 50
q-13 0 -20 -50zM255 708q-111 35 -111 102q0 57 46 84q22 14 45 16q175 -71 175 -150q0 -58 -44 -73q-55 4 -111 21z" />
    <glyph glyph-name="Aacute" unicode="&#xc1;" horiz-adv-x="611" 
d="M194 758q0 49 88 105q43 27 87 45q23 -2 46 -16q45 -27 45 -84q0 -67 -111 -102q-55 -17 -111 -21q-44 15 -44 73zM353 108h-129l-3 -23q-11 -92 -114 -92q-56 0 -83 28q-13 13 -15 27q60 345 112 510q32 101 182 101q154 0 186 -101q102 -317 102 -480q0 -85 -118 -85
q-59 0 -85 22q-23 20 -31 69zM266 421q-3 -16 -9 -69q-7 -60 -13 -102h87q-7 47 -14 102l-9 69q-7 50 -22 50q-13 0 -20 -50z" />
    <glyph glyph-name="Acircumflex" unicode="&#xc2;" horiz-adv-x="611" 
d="M353 108h-129l-3 -23q-11 -92 -114 -92q-56 0 -83 28q-13 13 -15 27q60 345 112 510q32 101 182 101q154 0 186 -101q102 -317 102 -480q0 -85 -118 -85q-59 0 -85 22q-23 20 -31 69zM266 421q-3 -16 -9 -69q-7 -60 -13 -102h87q-7 47 -14 102l-9 69q-7 50 -22 50
q-13 0 -20 -50zM184 685q-84 0 -84 60q0 38 64 82q67 46 136 46q102 0 200 -105q0 -29 -25 -54q-28 -29 -71 -29q-89 0 -133 77z" />
    <glyph glyph-name="Atilde" unicode="&#xc3;" horiz-adv-x="611" 
d="M456 850q34 -9 34 -70q0 -40 -27 -66q-29 -29 -82 -29q-31 0 -72 19q-40 18 -63 18q-39 0 -85 -19q-34 9 -34 69q0 40 29 67q31 28 83 28q29 0 70 -18q42 -18 63 -19q38 0 84 20zM353 108h-129l-3 -23q-11 -92 -114 -92q-56 0 -83 28q-13 13 -15 27q60 345 112 510
q32 101 182 101q154 0 186 -101q102 -317 102 -480q0 -85 -118 -85q-59 0 -85 22q-23 20 -31 69zM266 421q-3 -16 -9 -69q-7 -60 -13 -102h87q-7 47 -14 102l-9 69q-7 50 -22 50q-13 0 -20 -50z" />
    <glyph glyph-name="Adieresis" unicode="&#xc4;" horiz-adv-x="611" 
d="M353 108h-129l-3 -23q-11 -92 -114 -92q-56 0 -83 28q-13 13 -15 27q60 345 112 510q32 101 182 101q154 0 186 -101q102 -317 102 -480q0 -85 -118 -85q-59 0 -85 22q-23 20 -31 69zM266 421q-3 -16 -9 -69q-7 -60 -13 -102h87q-7 47 -14 102l-9 69q-7 50 -22 50
q-13 0 -20 -50zM179 682q-109 0 -109 89q0 90 109 90q110 0 110 -90q0 -89 -110 -89zM424 682q-109 0 -109 89q0 90 109 90q110 0 110 -90q0 -89 -110 -89z" />
    <glyph glyph-name="Aring" unicode="&#xc5;" horiz-adv-x="611" 
d="M461 608q17 -18 28 -50q102 -317 102 -480q0 -85 -118 -85q-59 0 -85 22q-23 20 -31 69l-4 24h-129l-3 -23q-11 -92 -114 -92q-56 0 -83 28q-13 13 -15 27q60 345 112 510q8 24 22 43q-40 40 -40 113q0 161 193 161q198 0 198 -161q0 -67 -33 -106zM266 421
q-3 -16 -9 -69q-7 -60 -13 -102h87q-7 47 -14 102l-9 69q-7 50 -22 50q-13 0 -20 -50zM298 757q-58 0 -58 -47q0 -46 58 -46q56 0 56 46q0 47 -56 47z" />
    <glyph glyph-name="AE" unicode="&#xc6;" horiz-adv-x="803" 
d="M269 421q-5 -25 -25 -171h83v175q0 46 -27 46q-20 0 -31 -50zM444 -7q-64 1 -91 29q-26 27 -26 86h-103l-3 -23q-7 -49 -33 -70q-26 -22 -81 -22q-56 0 -83 28q-13 13 -15 27q60 345 112 510q32 101 182 101q36 0 105 -4q70 -4 107 -4h218q29 -26 29 -84q-2 -55 -22 -76
q-22 -23 -81 -23h-116v-82h186q44 0 44 -68q0 -46 -25 -65q-26 -20 -86 -20h-119v-80h219q23 -16 23 -61q0 -54 -25 -75q-29 -25 -104 -25z" />
    <glyph glyph-name="Ccedilla" unicode="&#xc7;" horiz-adv-x="530" 
d="M280 439q-21 -31 -21 -108q0 -161 116 -161q51 0 112 20q33 -16 33 -74q0 -131 -200 -131l-17 1q110 -131 110 -102q0 -50 -39 -77q-35 -24 -87 -24q-63 0 -92 20q-2 15 2 29q7 29 37 29q9 0 26 -3l26 -5q28 -3 28 22q0 12 -36 28t-36 46q0 24 15 41q-110 19 -172 102
q-65 85 -65 220q0 176 89 267q82 84 229 84q123 0 176 -36q10 -43 7 -86q-6 -86 -72 -86q-24 0 -57 6q-34 5 -50 5q-44 0 -62 -27z" />
    <glyph glyph-name="Egrave" unicode="&#xc8;" horiz-adv-x="519" 
d="M478 153q23 -16 23 -61q0 -54 -25 -75q-29 -25 -104 -25h-163q-96 0 -135 31q-33 25 -33 78v483q0 29 23 49q22 18 54 18h331q29 -26 29 -84q-2 -55 -22 -76q-22 -23 -81 -23h-116v-82h186q44 0 44 -68q0 -46 -25 -65q-26 -20 -86 -20h-119v-80h219zM224 708
q-111 35 -111 102q0 57 46 84q22 14 45 16q175 -71 175 -150q0 -58 -44 -73q-55 4 -111 21z" />
    <glyph glyph-name="Eacute" unicode="&#xc9;" horiz-adv-x="519" 
d="M164 758q0 49 88 105q43 27 87 45q23 -2 46 -16q45 -27 45 -84q0 -67 -111 -102q-55 -17 -111 -21q-44 15 -44 73zM478 153q23 -16 23 -61q0 -54 -25 -75q-29 -25 -104 -25h-163q-96 0 -135 31q-33 25 -33 78v483q0 29 23 49q22 18 54 18h331q29 -26 29 -84
q-2 -55 -22 -76q-22 -23 -81 -23h-116v-82h186q44 0 44 -68q0 -46 -25 -65q-26 -20 -86 -20h-119v-80h219z" />
    <glyph glyph-name="Ecircumflex" unicode="&#xca;" horiz-adv-x="519" 
d="M478 153q23 -16 23 -61q0 -54 -25 -75q-29 -25 -104 -25h-163q-96 0 -135 31q-33 25 -33 78v483q0 29 23 49q22 18 54 18h331q29 -26 29 -84q-2 -55 -22 -76q-22 -23 -81 -23h-116v-82h186q44 0 44 -68q0 -46 -25 -65q-26 -20 -86 -20h-119v-80h219zM161 684
q-84 0 -84 60q0 38 64 82q67 46 136 46q102 0 200 -105q0 -29 -25 -54q-28 -29 -71 -29q-89 0 -133 77z" />
    <glyph glyph-name="Edieresis" unicode="&#xcb;" horiz-adv-x="519" 
d="M478 153q23 -16 23 -61q0 -54 -25 -75q-29 -25 -104 -25h-163q-96 0 -135 31q-33 25 -33 78v483q0 29 23 49q22 18 54 18h331q29 -26 29 -84q-2 -55 -22 -76q-22 -23 -81 -23h-116v-82h186q44 0 44 -68q0 -46 -25 -65q-26 -20 -86 -20h-119v-80h219zM149 682
q-109 0 -109 89q0 90 109 90q110 0 110 -90q0 -89 -110 -89zM394 682q-109 0 -109 89q0 90 109 90q110 0 110 -90q0 -89 -110 -89z" />
    <glyph glyph-name="Igrave" unicode="&#xcc;" horiz-adv-x="321" 
d="M276 52q0 -60 -115 -60q-116 0 -116 60v541q0 58 114 58q117 0 117 -58v-541zM130 708q-111 35 -111 102q0 57 46 84q22 14 45 16q175 -71 175 -150q0 -58 -44 -73q-55 4 -111 21z" />
    <glyph glyph-name="Iacute" unicode="&#xcd;" horiz-adv-x="321" 
d="M44 758q0 49 88 105q43 27 87 45q23 -2 46 -16q45 -27 45 -84q0 -67 -111 -102q-55 -17 -111 -21q-44 15 -44 73zM276 52q0 -60 -115 -60q-116 0 -116 60v541q0 58 114 58q117 0 117 -58v-541z" />
    <glyph glyph-name="Icircumflex" unicode="&#xce;" horiz-adv-x="321" 
d="M276 52q0 -60 -115 -60q-116 0 -116 60v541q0 58 114 58q117 0 117 -58v-541zM51 684q-84 0 -84 60q0 38 64 82q67 46 136 46q102 0 200 -105q0 -29 -25 -54q-28 -29 -71 -29q-89 0 -133 77z" />
    <glyph glyph-name="Idieresis" unicode="&#xcf;" horiz-adv-x="321" 
d="M276 52q0 -60 -115 -60q-116 0 -116 60v541q0 58 114 58q117 0 117 -58v-541zM39 682q-109 0 -109 89q0 90 109 90q110 0 110 -90q0 -89 -110 -89zM284 682q-109 0 -109 89q0 90 109 90q110 0 110 -90q0 -89 -110 -89z" />
    <glyph glyph-name="Eth" unicode="&#xd0;" horiz-adv-x="642" 
d="M540 580q82 -84 82 -242q0 -176 -92 -268q-85 -85 -232 -85q-256 0 -256 133v130q-39 15 -39 74q0 46 25 73h14v152q0 65 50 90q55 28 204 28q161 0 244 -85zM267 395h26q66 0 66 -79q0 -55 -32 -74h-60v-72q16 -5 43 -5q81 0 81 153q0 92 -23 128q-19 30 -61 30
q-30 0 -40 -5v-76z" />
    <glyph glyph-name="Ntilde" unicode="&#xd1;" horiz-adv-x="651" 
d="M481 850q34 -9 34 -70q0 -40 -27 -66q-29 -29 -82 -29q-31 0 -72 19q-40 18 -63 18q-39 0 -85 -19q-34 9 -34 69q0 40 29 67q31 28 83 28q29 0 70 -18q42 -18 63 -19q38 0 84 20zM450 265q-19 111 -19 319q0 67 91 67q89 0 89 -67v-474q0 -61 -30 -88q-34 -30 -119 -30
q-64 0 -98 33q-28 27 -57 101l-104 261q19 -111 19 -328q0 -67 -93 -67q-89 0 -89 67v484q0 65 37 88q32 20 114 20q79 0 110 -31q20 -20 53 -105z" />
    <glyph glyph-name="Ograve" unicode="&#xd2;" horiz-adv-x="661" 
d="M569 565q72 -89 72 -239q0 -149 -77 -241q-84 -101 -237 -101t-234 98q-73 88 -73 239q0 161 80 250q82 92 238 92q151 0 231 -98zM381 458q-16 34 -53 34q-71 0 -71 -170q0 -107 19 -146q15 -34 54 -34q35 0 51 35q19 42 19 146q0 96 -19 135zM275 708q-111 35 -111 102
q0 57 46 84q22 14 45 16q175 -71 175 -150q0 -58 -44 -73q-55 4 -111 21z" />
    <glyph glyph-name="Oacute" unicode="&#xd3;" horiz-adv-x="661" 
d="M220 758q0 49 88 105q43 27 87 45q23 -2 46 -16q45 -27 45 -84q0 -67 -111 -102q-55 -17 -111 -21q-44 15 -44 73zM569 565q72 -89 72 -239q0 -149 -77 -241q-84 -101 -237 -101t-234 98q-73 88 -73 239q0 161 80 250q82 92 238 92q151 0 231 -98zM381 458q-16 34 -53 34
q-71 0 -71 -170q0 -107 19 -146q15 -34 54 -34q35 0 51 35q19 42 19 146q0 96 -19 135z" />
    <glyph glyph-name="Ocircumflex" unicode="&#xd4;" horiz-adv-x="661" 
d="M569 565q72 -89 72 -239q0 -149 -77 -241q-84 -101 -237 -101t-234 98q-73 88 -73 239q0 161 80 250q82 92 238 92q151 0 231 -98zM381 458q-16 34 -53 34q-71 0 -71 -170q0 -107 19 -146q15 -34 54 -34q35 0 51 35q19 42 19 146q0 96 -19 135zM221 685q-84 0 -84 60
q0 38 64 82q67 46 136 46q102 0 200 -105q0 -29 -25 -54q-28 -29 -71 -29q-89 0 -133 77z" />
    <glyph glyph-name="Otilde" unicode="&#xd5;" horiz-adv-x="661" 
d="M485 850q34 -9 34 -70q0 -40 -27 -66q-29 -29 -82 -29q-31 0 -72 19q-40 18 -63 18q-39 0 -85 -19q-34 9 -34 69q0 40 29 67q31 28 83 28q29 0 70 -18q42 -18 63 -19q38 0 84 20zM569 565q72 -89 72 -239q0 -149 -77 -241q-84 -101 -237 -101t-234 98q-73 88 -73 239
q0 161 80 250q82 92 238 92q151 0 231 -98zM381 458q-16 34 -53 34q-71 0 -71 -170q0 -107 19 -146q15 -34 54 -34q35 0 51 35q19 42 19 146q0 96 -19 135z" />
    <glyph glyph-name="Odieresis" unicode="&#xd6;" horiz-adv-x="661" 
d="M569 565q72 -89 72 -239q0 -149 -77 -241q-84 -101 -237 -101t-234 98q-73 88 -73 239q0 161 80 250q82 92 238 92q151 0 231 -98zM381 458q-16 34 -53 34q-71 0 -71 -170q0 -107 19 -146q15 -34 54 -34q35 0 51 35q19 42 19 146q0 96 -19 135zM208 682q-109 0 -109 89
q0 90 109 90q110 0 110 -90q0 -89 -110 -89zM453 682q-109 0 -109 89q0 90 109 90q110 0 110 -90q0 -89 -110 -89z" />
    <glyph glyph-name="multiply" unicode="&#xd7;" horiz-adv-x="549" 
d="M454 575q58 -14 58 -75q0 -58 -102 -164q62 -84 106 -157q1 -18 -9 -35q-18 -36 -67 -36q-63 0 -169 102q-79 -65 -146 -112q-79 14 -79 79q0 53 102 168q-63 78 -108 145q-1 22 8 44q20 43 77 43q64 0 162 -96q61 56 109 96q29 5 58 -2z" />
    <glyph glyph-name="Oslash" unicode="&#xd8;" horiz-adv-x="661" 
d="M350 718q24 41 84 41q69 0 84 -48l-24 -84q147 -82 147 -301q0 -148 -76 -240q-83 -101 -235 -102l-3 -32q-9 -76 -88 -76q-60 0 -74 38l23 96q-168 74 -168 311q0 161 80 250q82 92 238 92q-2 30 12 55zM381 458q-16 34 -53 34q-71 0 -71 -170q0 -107 19 -146
q15 -34 54 -34q35 0 51 35q19 42 19 146q0 96 -19 135z" />
    <glyph glyph-name="Ugrave" unicode="&#xd9;" horiz-adv-x="641" 
d="M605 262q0 -123 -67 -196q-74 -81 -216 -81q-283 0 -283 274l-1 334q0 58 114 58q117 0 117 -58v-357q0 -52 15 -73q14 -20 48 -20t49 20q16 22 16 76l-1 354q0 58 103 58q106 0 106 -58v-331zM265 708q-111 35 -111 102q0 57 46 84q22 14 45 16q175 -71 175 -150
q0 -58 -44 -73q-55 4 -111 21z" />
    <glyph glyph-name="Uacute" unicode="&#xda;" horiz-adv-x="641" 
d="M216 758q0 49 88 105q43 27 87 45q23 -2 46 -16q45 -27 45 -84q0 -67 -111 -102q-55 -17 -111 -21q-44 15 -44 73zM605 262q0 -123 -67 -196q-74 -81 -216 -81q-283 0 -283 274l-1 334q0 58 114 58q117 0 117 -58v-357q0 -52 15 -73q14 -20 48 -20t49 20q16 22 16 76
l-1 354q0 58 103 58q106 0 106 -58v-331z" />
    <glyph glyph-name="Ucircumflex" unicode="&#xdb;" horiz-adv-x="641" 
d="M605 262q0 -123 -67 -196q-74 -81 -216 -81q-283 0 -283 274l-1 334q0 58 114 58q117 0 117 -58v-357q0 -52 15 -73q14 -20 48 -20t49 20q16 22 16 76l-1 354q0 58 103 58q106 0 106 -58v-331zM208 685q-84 0 -84 60q0 38 64 82q67 46 136 46q102 0 200 -105
q0 -29 -25 -54q-28 -29 -71 -29q-89 0 -133 77z" />
    <glyph glyph-name="Udieresis" unicode="&#xdc;" horiz-adv-x="641" 
d="M605 262q0 -123 -67 -196q-74 -81 -216 -81q-283 0 -283 274l-1 334q0 58 114 58q117 0 117 -58v-357q0 -52 15 -73q14 -20 48 -20t49 20q16 22 16 76l-1 354q0 58 103 58q106 0 106 -58v-331zM209 682q-109 0 -109 89q0 90 109 90q110 0 110 -90q0 -89 -110 -89z
M454 682q-109 0 -109 89q0 90 109 90q110 0 110 -90q0 -89 -110 -89z" />
    <glyph glyph-name="Yacute" unicode="&#xdd;" horiz-adv-x="591" 
d="M175 758q0 49 88 105q43 27 87 45q23 -2 46 -16q45 -27 45 -84q0 -67 -111 -102q-55 -17 -111 -21q-44 15 -44 73zM182 51v156q-111 174 -182 385q0 30 33 51q32 21 78 21q58 0 87 -21q30 -21 48 -74q35 -103 67 -261l63 324q26 31 102 31q107 0 107 -72q0 -99 -73 -239
q-63 -122 -104 -150v-151q0 -59 -113 -59t-113 59z" />
    <glyph glyph-name="Thorn" unicode="&#xde;" horiz-adv-x="555" 
d="M38 665q0 54 105 54t105 -54v-66q27 33 102 33q187 0 187 -273q0 -144 -68 -220q-60 -67 -155 -67q-39 0 -66 11v-72q0 -52 -104 -52q-106 0 -106 52v654zM320 438q-16 23 -51 23q-12 0 -21 -3v-261q41 -7 66 39q23 42 23 108q0 68 -17 94z" />
    <glyph glyph-name="germandbls" unicode="&#xdf;" horiz-adv-x="611" 
d="M40 469q0 230 265 230q127 0 195 -55q65 -52 65 -142q0 -87 -51 -136q-26 -24 -52 -31v-11q35 -4 69 -28q69 -48 69 -146q0 -69 -45 -114q-51 -51 -143 -51q-137 0 -137 91q0 52 23 69q33 -6 58 -6q29 0 29 29q0 17 -53 52q-53 36 -53 91q0 52 42 91q42 38 42 67
q0 55 -54 55q-33 0 -47 -18q-12 -18 -12 -58v-402q0 -54 -105 -54t-105 54v423z" />
    <glyph glyph-name="agrave" unicode="&#xe0;" 
d="M289 34q-50 -42 -114 -42q-77 0 -119 40q-38 37 -38 97q0 72 51 105q60 39 204 39l1 51q0 45 -47 45q-23 0 -62 -16q-39 -17 -63 -17q-82 0 -82 90q0 51 18 80q100 46 207 46q122 0 175 -42q60 -48 60 -168q0 -44 -7 -112t-7 -83q0 -26 41 -22q13 -33 6 -66
q-14 -67 -115 -67q-78 0 -109 42zM190 141q0 -37 40 -37q21 0 36 14v7q0 20 2 58q-60 -6 -72 -11q-6 -10 -6 -31zM220 600q-111 35 -111 102q0 57 46 84q22 14 45 16q175 -71 175 -150q0 -58 -44 -73q-55 4 -111 21z" />
    <glyph glyph-name="aacute" unicode="&#xe1;" 
d="M289 34q-50 -42 -114 -42q-77 0 -119 40q-38 37 -38 97q0 72 51 105q60 39 204 39l1 51q0 45 -47 45q-23 0 -62 -16q-39 -17 -63 -17q-82 0 -82 90q0 51 18 80q100 46 207 46q122 0 175 -42q60 -48 60 -168q0 -44 -7 -112t-7 -83q0 -26 41 -22q13 -33 6 -66
q-14 -67 -115 -67q-78 0 -109 42zM190 141q0 -37 40 -37q21 0 36 14v7q0 20 2 58q-60 -6 -72 -11q-6 -10 -6 -31zM140 651q0 49 88 105q43 27 87 45q23 -2 46 -16q45 -27 45 -84q0 -67 -111 -102q-55 -17 -111 -21q-44 15 -44 73z" />
    <glyph glyph-name="acircumflex" unicode="&#xe2;" 
d="M289 34q-50 -42 -114 -42q-77 0 -119 40q-38 37 -38 97q0 72 51 105q60 39 204 39l1 51q0 45 -47 45q-23 0 -62 -16q-39 -17 -63 -17q-82 0 -82 90q0 51 18 80q100 46 207 46q122 0 175 -42q60 -48 60 -168q0 -44 -7 -112t-7 -83q0 -26 41 -22q13 -33 6 -66
q-14 -67 -115 -67q-78 0 -109 42zM190 141q0 -37 40 -37q21 0 36 14v7q0 20 2 58q-60 -6 -72 -11q-6 -10 -6 -31zM150 578q-84 0 -84 60q0 38 64 82q67 46 136 46q102 0 200 -105q0 -29 -25 -54q-28 -29 -71 -29q-89 0 -133 77z" />
    <glyph glyph-name="atilde" unicode="&#xe3;" 
d="M289 34q-50 -42 -114 -42q-77 0 -119 40q-38 37 -38 97q0 72 51 105q60 39 204 39l1 51q0 45 -47 45q-23 0 -62 -16q-39 -17 -63 -17q-82 0 -82 90q0 51 18 80q100 46 207 46q122 0 175 -42q60 -48 60 -168q0 -44 -7 -112t-7 -83q0 -26 41 -22q13 -33 6 -66
q-14 -67 -115 -67q-78 0 -109 42zM190 141q0 -37 40 -37q21 0 36 14v7q0 20 2 58q-60 -6 -72 -11q-6 -10 -6 -31zM416 741q34 -9 34 -70q0 -40 -27 -66q-29 -29 -82 -29q-31 0 -72 19q-40 18 -63 18q-39 0 -85 -19q-34 9 -34 69q0 40 29 67q31 28 83 28q29 0 70 -18
q42 -18 63 -19q38 0 84 20z" />
    <glyph glyph-name="adieresis" unicode="&#xe4;" 
d="M289 34q-50 -42 -114 -42q-77 0 -119 40q-38 37 -38 97q0 72 51 105q60 39 204 39l1 51q0 45 -47 45q-23 0 -62 -16q-39 -17 -63 -17q-82 0 -82 90q0 51 18 80q100 46 207 46q122 0 175 -42q60 -48 60 -168q0 -44 -7 -112t-7 -83q0 -26 41 -22q13 -33 6 -66
q-14 -67 -115 -67q-78 0 -109 42zM190 141q0 -37 40 -37q21 0 36 14v7q0 20 2 58q-60 -6 -72 -11q-6 -10 -6 -31zM135 578q-109 0 -109 89q0 90 109 90q110 0 110 -90q0 -89 -110 -89zM380 578q-109 0 -109 89q0 90 109 90q110 0 110 -90q0 -89 -110 -89z" />
    <glyph glyph-name="aring" unicode="&#xe5;" 
d="M289 34q-50 -42 -114 -42q-77 0 -119 40q-38 37 -38 97q0 72 51 105q60 39 204 39l1 51q0 45 -47 45q-23 0 -62 -16q-39 -17 -63 -17q-82 0 -82 90q0 51 18 80q100 46 207 46q122 0 175 -42q60 -48 60 -168q0 -44 -7 -112t-7 -83q0 -26 41 -22q13 -33 6 -66
q-14 -67 -115 -67q-78 0 -109 42zM190 141q0 -37 40 -37q21 0 36 14v7q0 20 2 58q-60 -6 -72 -11q-6 -10 -6 -31zM252 578q-169 0 -169 139q0 140 169 140q172 0 172 -140q0 -139 -172 -139zM253 754q-50 0 -50 -41q0 -40 50 -40q49 0 49 40q0 41 -49 41z" />
    <glyph glyph-name="ae" unicode="&#xe6;" horiz-adv-x="767" 
d="M704 168q39 -8 39 -60q0 -49 -49 -84q-57 -39 -157 -39q-122 0 -193 71v-2q-58 -63 -158 -63q-82 0 -128 44q-41 39 -41 100q0 69 56 99q58 33 199 34q3 16 3 40q0 54 -61 54q-28 0 -65 -13q-38 -14 -59 -14q-64 0 -64 95q0 51 16 73q87 49 194 49q120 0 164 -33v-1
q58 34 138 34q213 0 213 -212q0 -64 -16 -106h-259q13 -95 108 -95q72 0 120 29zM293 130q-10 27 -14 49q-69 0 -82 -3q-20 -4 -20 -24q0 -48 49 -48q28 0 67 26zM476 317l107 8v12q0 57 -43 57q-57 0 -64 -77z" />
    <glyph glyph-name="ccedilla" unicode="&#xe7;" horiz-adv-x="443" 
d="M216 273q0 -137 107 -137q38 0 82 16q35 -11 35 -66q0 -101 -167 -101h-10q11 -9 32 -17q28 -12 32 -15q36 -18 36 -59q0 -50 -39 -77q-35 -24 -87 -24q-63 0 -92 20q-2 15 2 29q7 29 37 29q9 0 26 -3l26 -5q28 -3 28 22q0 12 -36 28t-36 46q0 18 9 34q-185 39 -185 265
q0 147 75 224q69 70 191 70q115 0 150 -28q11 -39 7 -78q-6 -78 -75 -78q-23 0 -50 5q-27 4 -39 4q-59 0 -59 -104z" />
    <glyph glyph-name="egrave" unicode="&#xe8;" horiz-adv-x="510" 
d="M219 226q13 -87 107 -87q61 0 113 29q41 -16 41 -68q0 -49 -45 -79q-53 -36 -156 -36q-128 0 -197 76q-65 71 -65 189q0 148 73 227q69 75 190 75q102 0 158 -54q55 -54 55 -151q0 -75 -28 -113zM218 317l104 8q2 10 2 25q0 44 -42 44q-56 0 -64 -77zM205 600
q-111 35 -111 102q0 57 46 84q22 14 45 16q175 -71 175 -150q0 -58 -44 -73q-55 4 -111 21z" />
    <glyph glyph-name="eacute" unicode="&#xe9;" horiz-adv-x="510" 
d="M219 226q13 -87 107 -87q61 0 113 29q41 -16 41 -68q0 -49 -45 -79q-53 -36 -156 -36q-128 0 -197 76q-65 71 -65 189q0 148 73 227q69 75 190 75q102 0 158 -54q55 -54 55 -151q0 -75 -28 -113zM218 317l104 8q2 10 2 25q0 44 -42 44q-56 0 -64 -77zM151 650
q0 49 88 105q43 27 87 45q23 -2 46 -16q45 -27 45 -84q0 -67 -111 -102q-55 -17 -111 -21q-44 15 -44 73z" />
    <glyph glyph-name="ecircumflex" unicode="&#xea;" horiz-adv-x="510" 
d="M219 226q13 -87 107 -87q61 0 113 29q41 -16 41 -68q0 -49 -45 -79q-53 -36 -156 -36q-128 0 -197 76q-65 71 -65 189q0 148 73 227q69 75 190 75q102 0 158 -54q55 -54 55 -151q0 -75 -28 -113zM218 317l104 8q2 10 2 25q0 44 -42 44q-56 0 -64 -77zM151 578
q-84 0 -84 60q0 38 64 82q67 46 136 46q102 0 200 -105q0 -29 -25 -54q-28 -29 -71 -29q-89 0 -133 77z" />
    <glyph glyph-name="edieresis" unicode="&#xeb;" horiz-adv-x="510" 
d="M219 226q13 -87 107 -87q61 0 113 29q41 -16 41 -68q0 -49 -45 -79q-53 -36 -156 -36q-128 0 -197 76q-65 71 -65 189q0 148 73 227q69 75 190 75q102 0 158 -54q55 -54 55 -151q0 -75 -28 -113zM218 317l104 8q2 10 2 25q0 44 -42 44q-56 0 -64 -77zM144 577
q-109 0 -109 89q0 90 109 90q110 0 110 -90q0 -89 -110 -89zM389 577q-109 0 -109 89q0 90 109 90q110 0 110 -90q0 -89 -110 -89z" />
    <glyph glyph-name="igrave" unicode="&#xec;" horiz-adv-x="292" 
d="M251 46q0 -54 -105 -54t-105 54v441q0 52 104 52q106 0 106 -52v-441zM85 598q-111 35 -111 102q0 57 46 84q22 14 45 16q175 -71 175 -150q0 -58 -44 -73q-55 4 -111 21z" />
    <glyph glyph-name="iacute" unicode="&#xed;" horiz-adv-x="292" 
d="M251 46q0 -54 -105 -54t-105 54v441q0 52 104 52q106 0 106 -52v-441zM31 650q0 49 88 105q43 27 87 45q23 -2 46 -16q45 -27 45 -84q0 -67 -111 -102q-55 -17 -111 -21q-44 15 -44 73z" />
    <glyph glyph-name="icircumflex" unicode="&#xee;" horiz-adv-x="292" 
d="M251 46q0 -54 -105 -54t-105 54v441q0 52 104 52q106 0 106 -52v-441zM31 577q-84 0 -84 60q0 38 64 82q67 46 136 46q102 0 200 -105q0 -29 -25 -54q-28 -29 -71 -29q-89 0 -133 77z" />
    <glyph glyph-name="idieresis" unicode="&#xef;" horiz-adv-x="292" 
d="M251 46q0 -54 -105 -54t-105 54v441q0 52 104 52q106 0 106 -52v-441zM49 575q-89 0 -89 73t89 73t89 -73t-89 -73zM248 575q-89 0 -89 73t89 73t89 -73t-89 -73z" />
    <glyph glyph-name="eth" unicode="&#xf0;" horiz-adv-x="569" 
d="M512 555q19 -101 19 -224q0 -145 -49 -231q-61 -108 -192 -108q-126 0 -196 68q-72 70 -72 204q0 148 76 221q68 66 189 66h16l-3 16q-87 15 -87 56q0 36 19 50h40q-14 40 -25 59q22 45 98 45q86 0 136 -116q88 -14 88 -58q0 -30 -20 -48h-37zM320 407h-1q-44 0 -69 -41
q-28 -43 -28 -122q0 -118 52 -118q27 0 37 32q12 38 12 152q0 52 -3 97z" />
    <glyph glyph-name="ntilde" unicode="&#xf1;" horiz-adv-x="561" 
d="M38 487q0 52 104 52q106 0 106 -52v-5q27 70 118 70q161 0 161 -205v-301q0 -54 -105 -54t-105 54v277q0 33 -10 46q-10 12 -39 12q-8 0 -20 -3v-332q0 -54 -105 -54t-105 54v441zM426 741q34 -9 34 -70q0 -40 -27 -66q-29 -29 -82 -29q-31 0 -72 19q-40 18 -63 18
q-39 0 -85 -19q-34 9 -34 69q0 40 29 67q31 28 83 28q29 0 70 -18q42 -18 63 -19q38 0 84 20z" />
    <glyph glyph-name="ograve" unicode="&#xf2;" horiz-adv-x="545" 
d="M468 471q61 -76 61 -199q0 -125 -63 -202q-69 -85 -197 -85t-194 83q-59 74 -59 201q0 134 67 208q69 75 200 75q118 0 185 -81zM271 392q-53 0 -53 -125q0 -79 14 -108q12 -25 41 -25q51 0 51 134q0 124 -53 124zM232 600q-111 35 -111 102q0 57 46 84q22 14 45 16
q175 -71 175 -150q0 -58 -44 -73q-55 4 -111 21z" />
    <glyph glyph-name="oacute" unicode="&#xf3;" horiz-adv-x="545" 
d="M468 471q61 -76 61 -199q0 -125 -63 -202q-69 -85 -197 -85t-194 83q-59 74 -59 201q0 134 67 208q69 75 200 75q118 0 185 -81zM271 392q-53 0 -53 -125q0 -79 14 -108q12 -25 41 -25q51 0 51 134q0 124 -53 124zM141 650q0 49 88 105q43 27 87 45q23 -2 46 -16
q45 -27 45 -84q0 -67 -111 -102q-55 -17 -111 -21q-44 15 -44 73z" />
    <glyph glyph-name="ocircumflex" unicode="&#xf4;" horiz-adv-x="545" 
d="M468 471q61 -76 61 -199q0 -125 -63 -202q-69 -85 -197 -85t-194 83q-59 74 -59 201q0 134 67 208q69 75 200 75q118 0 185 -81zM271 392q-53 0 -53 -125q0 -79 14 -108q12 -25 41 -25q51 0 51 134q0 124 -53 124zM162 577q-84 0 -84 60q0 38 64 82q67 46 136 46
q102 0 200 -105q0 -29 -25 -54q-28 -29 -71 -29q-89 0 -133 77z" />
    <glyph glyph-name="otilde" unicode="&#xf5;" horiz-adv-x="545" 
d="M468 471q61 -76 61 -199q0 -125 -63 -202q-69 -85 -197 -85t-194 83q-59 74 -59 201q0 134 67 208q69 75 200 75q118 0 185 -81zM271 392q-53 0 -53 -125q0 -79 14 -108q12 -25 41 -25q51 0 51 134q0 124 -53 124zM426 741q34 -9 34 -70q0 -40 -27 -66q-29 -29 -82 -29
q-31 0 -72 19q-40 18 -63 18q-39 0 -85 -19q-34 9 -34 69q0 40 29 67q31 28 83 28q29 0 70 -18q42 -18 63 -19q38 0 84 20z" />
    <glyph glyph-name="odieresis" unicode="&#xf6;" horiz-adv-x="545" 
d="M468 471q61 -76 61 -199q0 -125 -63 -202q-69 -85 -197 -85t-194 83q-59 74 -59 201q0 134 67 208q69 75 200 75q118 0 185 -81zM271 392q-53 0 -53 -125q0 -79 14 -108q12 -25 41 -25q51 0 51 134q0 124 -53 124zM150 579q-109 0 -109 89q0 90 109 90q110 0 110 -90
q0 -89 -110 -89zM395 579q-109 0 -109 89q0 90 109 90q110 0 110 -90q0 -89 -110 -89z" />
    <glyph glyph-name="divide" unicode="&#xf7;" horiz-adv-x="559" 
d="M101 275q-61 0 -61 68q0 39 21 61h402q55 0 55 -66q0 -47 -27 -63h-390zM280 103q-89 0 -89 73q0 74 89 74q91 0 91 -74q0 -73 -91 -73zM280 430q-89 0 -89 73q0 74 89 74q91 0 91 -74q0 -73 -91 -73z" />
    <glyph glyph-name="oslash" unicode="&#xf8;" horiz-adv-x="545" 
d="M300 551q0 79 80 79q57 0 70 -40l-23 -81q102 -73 102 -237q0 -118 -57 -194q-63 -83 -179 -92l-3 -30q-7 -64 -73 -64q-50 0 -62 32l18 76q-157 53 -157 269q0 134 67 208q69 75 200 75q11 0 17 -1zM271 392q-53 0 -53 -125q0 -79 14 -108q12 -25 41 -25q51 0 51 134
q0 124 -53 124z" />
    <glyph glyph-name="ugrave" unicode="&#xf9;" horiz-adv-x="566" 
d="M34 487q0 52 104 52q106 0 106 -52v-310q0 -47 42 -47q15 0 27 3v354q0 52 104 52q106 0 106 -52v-342q0 -24 41 -20q13 -33 6 -66q-14 -67 -115 -67q-83 0 -118 48q-34 -48 -130 -48q-86 0 -131 46q-42 42 -42 114v335zM241 598q-111 35 -111 102q0 57 46 84
q22 14 45 16q175 -71 175 -150q0 -58 -44 -73q-55 4 -111 21z" />
    <glyph glyph-name="uacute" unicode="&#xfa;" horiz-adv-x="566" 
d="M34 487q0 52 104 52q106 0 106 -52v-310q0 -47 42 -47q15 0 27 3v354q0 52 104 52q106 0 106 -52v-342q0 -24 41 -20q13 -33 6 -66q-14 -67 -115 -67q-83 0 -118 48q-34 -48 -130 -48q-86 0 -131 46q-42 42 -42 114v335zM147 650q0 49 88 105q43 27 87 45q23 -2 46 -16
q45 -27 45 -84q0 -67 -111 -102q-55 -17 -111 -21q-44 15 -44 73z" />
    <glyph glyph-name="ucircumflex" unicode="&#xfb;" horiz-adv-x="566" 
d="M34 487q0 52 104 52q106 0 106 -52v-310q0 -47 42 -47q15 0 27 3v354q0 52 104 52q106 0 106 -52v-342q0 -24 41 -20q13 -33 6 -66q-14 -67 -115 -67q-83 0 -118 48q-34 -48 -130 -48q-86 0 -131 46q-42 42 -42 114v335zM171 577q-84 0 -84 60q0 38 64 82q67 46 136 46
q102 0 200 -105q0 -29 -25 -54q-28 -29 -71 -29q-89 0 -133 77z" />
    <glyph glyph-name="udieresis" unicode="&#xfc;" horiz-adv-x="566" 
d="M34 487q0 52 104 52q106 0 106 -52v-310q0 -47 42 -47q15 0 27 3v354q0 52 104 52q106 0 106 -52v-342q0 -24 41 -20q13 -33 6 -66q-14 -67 -115 -67q-83 0 -118 48q-34 -48 -130 -48q-86 0 -131 46q-42 42 -42 114v335zM156 577q-109 0 -109 89q0 90 109 90
q110 0 110 -90q0 -89 -110 -89zM401 577q-109 0 -109 89q0 90 109 90q110 0 110 -90q0 -89 -110 -89z" />
    <glyph glyph-name="yacute" unicode="&#xfd;" horiz-adv-x="520" 
d="M321 -110q-33 -35 -108 -35q-94 0 -94 82q0 55 48 92l-169 463q0 15 12 30q24 30 84 30q82 0 112 -70q29 -67 60 -320l46 350q21 40 94 40q57 0 80 -16q21 -15 21 -52q0 -70 -186 -594zM139 651q0 49 88 105q43 27 87 45q23 -2 46 -16q45 -27 45 -84q0 -67 -111 -102
q-55 -17 -111 -21q-44 15 -44 73z" />
    <glyph glyph-name="thorn" unicode="&#xfe;" horiz-adv-x="555" 
d="M38 579q0 54 105 54t105 -54v-99q27 73 119 73q170 0 170 -273q0 -144 -68 -220q-60 -67 -155 -67q-39 0 -66 11v-72q0 -52 -104 -52q-106 0 -106 52v647zM320 359q-16 23 -51 23q-9 0 -21 -3v-261q41 -7 66 39q23 42 23 108q0 68 -17 94z" />
    <glyph glyph-name="ydieresis" unicode="&#xff;" horiz-adv-x="520" 
d="M321 -110q-33 -35 -108 -35q-94 0 -94 82q0 55 48 92l-169 463q0 15 12 30q24 30 84 30q82 0 112 -70q29 -67 60 -320l46 350q21 40 94 40q57 0 80 -16q21 -15 21 -52q0 -70 -186 -594zM137 579q-109 0 -109 89q0 90 109 90q110 0 110 -90q0 -89 -110 -89zM382 579
q-109 0 -109 89q0 90 109 90q110 0 110 -90q0 -89 -110 -89z" />
    <glyph glyph-name="dotlessi" unicode="&#x131;" horiz-adv-x="292" 
d="M251 46q0 -54 -105 -54t-105 54v441q0 52 104 52q106 0 106 -52v-441z" />
    <glyph glyph-name="Lslash" unicode="&#x141;" horiz-adv-x="433" 
d="M41 282q-59 14 -59 51q0 36 19 50h40l1 211q0 57 112 57q113 0 113 -57v-224q64 -13 64 -48q0 -43 -25 -57h-39v-112h140q23 -16 23 -61q0 -100 -119 -100h-102q-96 0 -135 31q-33 25 -33 78v181z" />
    <glyph glyph-name="lslash" unicode="&#x142;" horiz-adv-x="308" 
d="M32 330q-50 13 -50 53q0 36 19 50h31v233q0 52 104 52q106 0 106 -52v-244q56 -11 56 -50q0 -43 -25 -57h-31v-170q0 -24 41 -20q13 -33 6 -66q-14 -67 -115 -67q-142 0 -142 133v205z" />
    <glyph glyph-name="OE" unicode="&#x152;" horiz-adv-x="860" 
d="M819 153q23 -16 23 -61q0 -54 -25 -75q-29 -25 -104 -25h-105q-42 0 -137 -3q-95 -4 -144 -4q-153 0 -234 97q-73 89 -73 239q0 161 80 250q82 92 238 92q70 0 131 -6q60 -6 71 -6h250q29 -26 29 -84q-2 -55 -22 -76q-22 -23 -81 -23h-116v-82h186q44 0 44 -68
q0 -46 -25 -65q-26 -20 -86 -20h-119v-80h219zM382 154v327q-19 11 -54 11q-71 0 -71 -170q0 -107 19 -146q15 -34 54 -34t52 12z" />
    <glyph glyph-name="oe" unicode="&#x153;" horiz-adv-x="819" 
d="M756 168q39 -8 39 -60q0 -49 -49 -84q-57 -39 -157 -39q-99 0 -164 46q-63 -46 -156 -46q-128 0 -194 83q-59 74 -59 201q0 134 67 208q69 75 200 75q88 0 149 -47q64 47 158 47q213 0 213 -212q0 -64 -16 -106h-259q13 -95 108 -95q72 0 120 29zM271 392q-53 0 -53 -125
q0 -79 14 -108q12 -25 41 -25q51 0 51 134q0 124 -53 124zM528 317l107 8v12q0 57 -43 57q-57 0 -64 -77z" />
    <glyph glyph-name="Scaron" unicode="&#x160;" horiz-adv-x="517" 
d="M343 887q9 2 23 2q91 0 91 -78q0 -56 -74 -92q-68 -33 -161 -33q-52 58 -138 128q0 70 77 70q51 0 83 -39q16 -19 22 -39zM501 629q14 -43 10 -86q-8 -86 -96 -86q-25 0 -61 7q-37 7 -61 7q-75 0 -75 -42q0 -31 48 -36q15 -2 49 -2l57 -2q153 -12 153 -162
q0 -108 -67 -171q-74 -71 -220 -71q-226 0 -226 128q0 71 52 85q73 -42 172 -42q84 0 84 41q0 30 -48 37q-14 2 -49 4q-36 2 -56 5q-153 19 -153 180q0 111 71 174q76 66 221 66q150 0 195 -34z" />
    <glyph glyph-name="scaron" unicode="&#x161;" horiz-adv-x="470" 
d="M448 523q10 -38 6 -76q-9 -77 -79 -77q-22 0 -59 8q-37 7 -58 7q-55 0 -55 -34q0 -24 41 -27q13 -2 43 -2q32 0 49 -2q132 -11 132 -135q0 -86 -55 -138q-66 -62 -201 -62q-196 0 -196 111q0 58 42 72q55 -37 153 -37q65 0 65 38q0 22 -40 26q-10 2 -41 3q-29 1 -47 4
q-128 16 -128 149q0 93 63 146q66 55 193 55q122 0 172 -29zM319 778q9 2 23 2q91 0 91 -78q0 -56 -74 -92q-68 -33 -161 -33q-52 58 -138 128q0 70 77 70q51 0 83 -39q16 -19 22 -39z" />
    <glyph glyph-name="Ydieresis" unicode="&#x178;" horiz-adv-x="591" 
d="M175 707q-101 0 -101 83q0 84 101 84q103 0 103 -84q0 -83 -103 -83zM431 707q-101 0 -101 83q0 84 101 84q103 0 103 -84q0 -83 -103 -83zM182 51v156q-111 174 -182 385q0 30 33 51q32 21 78 21q58 0 87 -21q30 -21 48 -74q35 -103 67 -261l63 324q26 31 102 31
q107 0 107 -72q0 -99 -73 -239q-63 -122 -104 -150v-151q0 -59 -113 -59t-113 59z" />
    <glyph glyph-name="Zcaron" unicode="&#x17d;" horiz-adv-x="508" 
d="M328 903q10 2 25 2q99 0 99 -85q0 -61 -80 -99q-74 -36 -175 -36q-56 63 -149 139q0 75 66 75q50 0 86 -49q26 -36 26 -53zM472 153q21 -24 21 -70q0 -91 -101 -91h-297q-35 0 -58 28q-22 27 -22 67q0 39 33 99l175 295h-136q-78 0 -78 92q0 49 25 78h425q38 -13 38 -85
q0 -65 -38 -125l-183 -288h196z" />
    <glyph glyph-name="zcaron" unicode="&#x17e;" horiz-adv-x="477" 
d="M444 149q19 -22 19 -65q0 -84 -93 -84h-276q-32 0 -53 26q-21 25 -21 62q0 52 37 101l147 193h-108q-72 0 -72 85q0 45 23 72h376q35 -21 35 -79q0 -71 -43 -123l-153 -188h182zM311 778q9 2 23 2q91 0 91 -78q0 -56 -74 -92q-68 -33 -161 -33q-52 58 -138 128
q0 70 77 70q51 0 83 -39q16 -19 22 -39z" />
    <glyph glyph-name="florin" unicode="&#x192;" horiz-adv-x="426" 
d="M267 355q4 -72 4 -146q0 -140 -49 -219q-47 -77 -126 -77q-66 0 -82 44q-7 21 -2 43q92 76 92 250q0 62 -6 105h-76q-20 17 -20 58q0 50 72 68q-6 32 -6 69q0 185 232 185q80 0 125 -19q16 -30 16 -85q0 -75 -54 -84q-17 -3 -43 1l-31 4q-54 0 -54 -52v-2q74 2 126 2
q24 -17 24 -69q0 -76 -89 -76h-53z" />
    <glyph glyph-name="circumflex" unicode="&#x2c6;" horiz-adv-x="500" 
d="M141 577q-84 0 -84 60q0 38 64 82q67 46 136 46q102 0 200 -105q0 -29 -25 -54q-28 -29 -71 -29q-89 0 -133 77z" />
    <glyph glyph-name="caron" unicode="&#x2c7;" horiz-adv-x="500" 
d="M319 778q9 2 23 2q91 0 91 -78q0 -56 -74 -92q-68 -33 -161 -33q-52 58 -138 128q0 70 77 70q51 0 83 -39q16 -19 22 -39z" />
    <glyph glyph-name="breve" unicode="&#x2d8;" horiz-adv-x="500" 
d="M397 615q-47 -38 -131 -38q-94 0 -151 44q-52 39 -52 94q0 28 16 48q20 25 57 25q6 -20 24 -41q35 -41 93 -41q76 0 104 66q20 -1 41 -11q40 -20 40 -67q0 -46 -41 -79z" />
    <glyph glyph-name="dotaccent" unicode="&#x2d9;" horiz-adv-x="500" 
d="M248 577q-116 0 -116 94q0 96 116 96q117 0 117 -96q0 -94 -117 -94z" />
    <glyph glyph-name="ring" unicode="&#x2da;" horiz-adv-x="500" 
d="M246 569q-193 0 -193 159q0 161 193 161q198 0 198 -161q0 -159 -198 -159zM248 771q-58 0 -58 -47q0 -46 58 -46q56 0 56 46q0 47 -56 47z" />
    <glyph glyph-name="ogonek" unicode="&#x2db;" horiz-adv-x="500" 
d="M196 -184q-30 33 -30 83t40 88q43 39 106 39q14 0 21 -9q6 -9 0 -18q-58 -34 -58 -82q0 -60 89 -34q17 -11 17 -39q0 -63 -95 -63q-58 0 -90 35z" />
    <glyph glyph-name="tilde" unicode="&#x2dc;" horiz-adv-x="590" 
d="M436 741q34 -9 34 -70q0 -40 -27 -66q-29 -29 -82 -29q-31 0 -72 19q-40 18 -63 18q-39 0 -85 -19q-34 9 -34 69q0 40 29 67q31 28 83 28q29 0 70 -18q42 -18 63 -19q38 0 84 20z" />
    <glyph glyph-name="hungarumlaut" unicode="&#x2dd;" horiz-adv-x="500" 
d="M14 651q0 69 71 145q20 9 73 9q84 0 84 -76q0 -82 -115 -152q-113 0 -113 74zM261 651q0 69 71 145q20 9 73 9q84 0 84 -76q0 -82 -115 -152q-113 0 -113 74z" />
    <glyph glyph-name="uni03A9" unicode="&#x3a9;" horiz-adv-x="653" 
d="M552 578q66 -75 66 -201q0 -100 -61 -177q-30 -38 -61 -57l92 -1q35 -15 35 -63q0 -93 -122 -93q-97 0 -155 22q-10 113 19 210q33 107 33 147q0 127 -71 127t-71 -127q0 -39 34 -147q29 -96 18 -210q-58 -22 -155 -22q-122 0 -122 93q0 48 34 63h89q-29 19 -59 58
q-59 78 -59 177q0 126 66 201q75 85 225 85t225 -85z" />
    <glyph glyph-name="pi" unicode="&#x3c0;" horiz-adv-x="707" 
d="M22 445q0 100 129 100q70 0 172 -6q103 -6 175 -6q49 0 134 14q53 -20 53 -84q0 -86 -102 -98v-145q0 -51 19 -69q13 -13 42 -13l25 -1q14 -18 14 -61q0 -45 -26 -66q-33 -25 -117 -25q-85 0 -123 53q-39 53 -39 172q0 100 2 158q-39 1 -99 5q6 -78 6 -176
q0 -113 -37 -163q-35 -49 -111 -49q-113 0 -113 87q0 44 15 62h36q34 0 47 55q13 54 9 183q-43 -3 -73 -8q-38 27 -38 81z" />
    <glyph glyph-name="endash" unicode="&#x2013;" horiz-adv-x="489" 
d="M100 221q-82 0 -82 86q0 65 36 80h328q83 0 83 -86q0 -65 -36 -80h-329z" />
    <glyph glyph-name="emdash" unicode="&#x2014;" horiz-adv-x="701" 
d="M100 221q-82 0 -82 86q0 65 36 80h542q83 0 83 -86q0 -65 -36 -80h-543z" />
    <glyph glyph-name="quoteleft" unicode="&#x2018;" horiz-adv-x="287" 
d="M206 500q20 4 41 -4q40 -15 40 -70q0 -46 -32 -73q-33 -29 -92 -29q-143 0 -143 135q0 95 50 163q55 75 144 75q48 0 65 -31q9 -15 8 -31q-68 -58 -81 -135z" />
    <glyph glyph-name="quoteright" unicode="&#x2019;" horiz-adv-x="287" 
d="M80 521q-20 -3 -40 4q-41 15 -41 70q0 46 32 74q33 28 92 28q143 0 143 -135q0 -95 -50 -163q-55 -75 -144 -75q-47 0 -65 31q-9 16 -8 31q68 58 81 135z" />
    <glyph glyph-name="quotesinglbase" unicode="&#x201a;" horiz-adv-x="328" 
d="M112 24q-20 -3 -40 4q-41 15 -41 70q0 46 32 74q33 28 92 28q143 0 143 -135q0 -95 -50 -163q-55 -75 -144 -75q-47 0 -65 31q-9 16 -8 31q68 58 81 135z" />
    <glyph glyph-name="quotedblleft" unicode="&#x201c;" horiz-adv-x="586" 
d="M206 500q20 4 41 -4q40 -15 40 -70q0 -46 -32 -73q-33 -29 -92 -29q-143 0 -143 135q0 95 50 163q55 75 144 75q48 0 65 -31q9 -15 8 -31q-68 -58 -81 -135zM489 500q20 4 41 -4q40 -15 40 -70q0 -46 -32 -73q-33 -29 -92 -29q-143 0 -143 135q0 95 50 163q55 75 144 75
q48 0 65 -31q9 -15 8 -31q-68 -58 -81 -135z" />
    <glyph glyph-name="quotedblright" unicode="&#x201d;" horiz-adv-x="586" 
d="M380 526q-20 -3 -40 4q-41 15 -41 70q0 46 32 74q33 28 92 28q143 0 143 -135q0 -95 -50 -163q-55 -75 -144 -75q-47 0 -65 31q-9 16 -8 31q68 58 81 135zM97 526q-20 -3 -40 4q-41 15 -41 70q0 46 32 74q33 28 92 28q143 0 143 -135q0 -95 -50 -163q-55 -75 -144 -75
q-47 0 -65 31q-9 16 -8 31q68 58 81 135z" />
    <glyph glyph-name="quotedblbase" unicode="&#x201e;" horiz-adv-x="611" 
d="M395 24q-20 -3 -40 4q-41 15 -41 70q0 46 32 74q33 28 92 28q143 0 143 -135q0 -95 -50 -163q-55 -75 -144 -75q-47 0 -65 31q-9 16 -8 31q68 58 81 135zM112 24q-20 -3 -40 4q-41 15 -41 70q0 46 32 74q33 28 92 28q143 0 143 -135q0 -95 -50 -163q-55 -75 -144 -75
q-47 0 -65 31q-9 16 -8 31q68 58 81 135z" />
    <glyph glyph-name="dagger" unicode="&#x2020;" 
d="M355 274q-5 -292 -29 -372q-13 -40 -34 -54q-16 -10 -50 -10q-45 0 -62 21q-16 146 -23 417q-69 1 -107 3q-35 15 -35 73q0 35 26 53q32 21 113 31v114q0 128 111 128q66 0 93 -31q0 -139 -1 -200q26 1 85 1q60 -26 60 -82q0 -92 -112 -92h-35z" />
    <glyph glyph-name="daggerdbl" unicode="&#x2021;" 
d="M347 54q-10 -140 -35 -183q-19 -33 -70 -33q-45 0 -62 21q-7 68 -14 197q-65 1 -96 3q-35 15 -35 73q0 39 19 55q25 21 105 31l-3 98q-68 1 -106 3q-35 15 -35 73q0 35 26 53q32 21 113 31v74q0 128 111 128q66 0 93 -31v-160q26 1 84 1q60 -26 60 -82q0 -92 -112 -92
h-34l-2 -87l68 1q60 -26 60 -82q0 -49 -22 -70q-23 -22 -80 -22h-33z" />
    <glyph glyph-name="bullet" unicode="&#x2022;" horiz-adv-x="409" 
d="M90 412q33 33 108 33q140 0 140 -131t-140 -131q-139 0 -139 131q0 67 31 98z" />
    <glyph glyph-name="ellipsis" unicode="&#x2026;" horiz-adv-x="923" 
d="M156 -15q-126 0 -126 103q0 104 126 104q128 0 128 -104q0 -103 -128 -103zM460 -15q-126 0 -126 103q0 104 126 104q128 0 128 -104q0 -103 -128 -103zM762 -15q-126 0 -126 103q0 104 126 104q128 0 128 -104q0 -103 -128 -103z" />
    <glyph glyph-name="perthousand" unicode="&#x2030;" horiz-adv-x="1337" 
d="M986 44q-49 51 -49 136q0 220 198 220q175 0 175 -199q0 -100 -55 -156q-52 -53 -137 -53q-82 0 -132 52zM1170 194q0 48 -9 67q-9 16 -30 16q-36 0 -36 -84q0 -90 38 -90q37 0 37 91zM572 673q26 6 53 1q52 -10 52 -64q0 -45 -47 -123l-103 -169q-95 -156 -197 -329
q-6 -4 -23 -4q-103 0 -28 141zM576 44q-49 51 -49 136q0 220 198 220q175 0 175 -199q0 -100 -55 -156q-52 -53 -137 -53q-82 0 -132 52zM760 194q0 48 -9 67q-9 16 -30 16q-36 0 -36 -84q0 -90 38 -90q37 0 37 91zM72 309q-49 51 -49 136q0 220 198 220q175 0 175 -199
q0 -100 -55 -156q-52 -53 -137 -53q-82 0 -132 52zM256 459q0 48 -9 67q-9 16 -30 16q-36 0 -36 -84q0 -90 38 -90q37 0 37 91z" />
    <glyph glyph-name="guilsinglleft" unicode="&#x2039;" horiz-adv-x="317" 
d="M279 464q23 -23 23 -59q0 -56 -112 -145q21 -54 115 -149q-1 -17 -14 -35q-25 -35 -81 -35q-70 0 -133 86q-56 76 -56 133q0 35 76 129q79 97 120 97q39 0 62 -22z" />
    <glyph glyph-name="guilsinglright" unicode="&#x203a;" horiz-adv-x="317" 
d="M47 64q-23 22 -23 58q0 56 112 145q-21 54 -115 149q2 18 14 35q25 35 81 35q70 0 133 -85q56 -77 56 -134q0 -35 -76 -129q-79 -97 -120 -97q-39 0 -62 23z" />
    <glyph glyph-name="uni203E" unicode="&#x203e;" horiz-adv-x="500" 
d="M262 577q-102 0 -143 17q-42 17 -42 60q0 40 16 53q43 9 165 9q181 0 181 -70q0 -43 -24 -59q-29 -10 -153 -10z" />
    <glyph glyph-name="fraction" unicode="&#x2044;" horiz-adv-x="358" 
d="M161 600q17 77 89 77q60 0 68 -46l-134 -573q-17 -72 -79 -72q-46 0 -65 35z" />
    <glyph glyph-name="Euro" unicode="&#x20ac;" horiz-adv-x="598" 
d="M283 435h136q53 0 53 -51q0 -36 -19 -49h-191v-4q0 -21 1 -31h136q53 0 53 -51q0 -36 -19 -49h-141q32 -43 114 -43q81 0 130 21q33 -15 33 -81q0 -112 -191 -112q-235 0 -288 215h-37q-47 0 -47 52q0 31 16 48h56v35h-25q-47 0 -47 52q0 30 16 48h68q52 228 297 228
q116 0 167 -34q15 -41 13 -81q-4 -82 -85 -82q-23 0 -64 5q-42 5 -57 5q-52 0 -78 -41z" />
    <glyph glyph-name="trademark" unicode="&#x2122;" horiz-adv-x="913" 
d="M880 588q10 -107 18 -293q0 -51 -70 -51q-51 0 -71 25l-6 256l-33 -217q-11 -64 -93 -64q-86 0 -98 65l-38 217l-2 -240q-1 -42 -62 -42q-42 0 -59 22q9 232 18 324q7 71 107 71q94 0 106 -73l33 -188l35 190q7 38 27 53q25 18 85 18q95 0 103 -73zM262 533v-248
q0 -41 -76 -41q-78 0 -78 41v248h-34q-59 0 -59 62q0 35 22 59h264q55 0 55 -63q0 -41 -28 -58h-66z" />
    <glyph glyph-name="Omega" unicode="&#x2126;" horiz-adv-x="653" 
d="M552 578q66 -75 66 -201q0 -100 -61 -177q-30 -38 -61 -57l92 -1q35 -15 35 -63q0 -93 -122 -93q-97 0 -155 22q-10 113 19 210q33 107 33 147q0 127 -71 127t-71 -127q0 -39 34 -147q29 -96 18 -210q-58 -22 -155 -22q-122 0 -122 93q0 48 34 63h89q-29 19 -59 58
q-59 78 -59 177q0 126 66 201q75 85 225 85t225 -85z" />
    <glyph glyph-name="partialdiff" unicode="&#x2202;" horiz-adv-x="553" 
d="M91 478q62 66 173 72q-51 94 -118 135q-6 24 3 47q20 47 101 47q116 0 193 -107q88 -121 88 -341q0 -145 -49 -231q-61 -108 -192 -108q-126 0 -196 68q-72 70 -72 204q0 140 69 214zM314 407q-41 -2 -66 -43q-26 -44 -26 -120q0 -118 52 -118q27 0 37 32q12 38 12 152
q0 52 -9 97z" />
    <glyph glyph-name="Delta" unicode="&#x2206;" horiz-adv-x="664" 
d="M117 0l-10 -1q-56 0 -83 38q-14 18 -16 37q91 319 143 484q32 101 182 101q149 0 189 -126q129 -412 129 -449q0 -85 -118 -85zM397 172q-66 280 -80 280q-15 0 -77 -273q47 -3 157 -7z" />
    <glyph glyph-name="product" unicode="&#x220f;" horiz-adv-x="827" 
d="M65 31q0 70 52 87v350h-1q-86 0 -86 95q0 56 29 88h659q79 0 79 -95q0 -65 -38 -88h-52v-354l31 -4q17 -13 17 -66q0 -103 -136 -103q-60 0 -179 18q-15 16 -15 72q0 70 51 87v350h-128v-354l30 -4q17 -13 17 -66q0 -103 -136 -103q-60 0 -179 18q-15 16 -15 72z" />
    <glyph glyph-name="summation" unicode="&#x2211;" horiz-adv-x="522" 
d="M477 102q23 -16 23 -61q0 -100 -148 -100h-188q-102 0 -128 81q-13 40 -5 80l151 185q-161 147 -161 258q0 81 54 106h384q39 -26 39 -84q-3 -99 -113 -99h-131l138 -176l-143 -190h228z" />
    <glyph glyph-name="minus" unicode="&#x2212;" horiz-adv-x="609" 
d="M85 235q-38 25 -38 88q0 69 80 93q90 27 364 27q19 -3 38 -15q37 -24 37 -72q0 -52 -33 -86q-34 -35 -84 -35h-364z" />
    <glyph glyph-name="uni2215" unicode="&#x2215;" horiz-adv-x="331" 
d="M146 647q20 87 108 87q73 0 82 -52l-163 -647q-20 -81 -94 -81q-57 0 -79 40z" />
    <glyph glyph-name="radical" unicode="&#x221a;" horiz-adv-x="549" 
d="M715 861q30 -19 30 -72q0 -61 -39 -85q-43 -26 -150 -19q-104 -507 -126 -595q-26 -104 -150 -104q-86 0 -131 48l-138 452q1 18 13 36q25 35 84 35q91 0 109 -93q27 -144 61 -339q44 221 113 630q20 106 119 106h205z" />
    <glyph glyph-name="infinity" unicode="&#x221e;" horiz-adv-x="1116" 
d="M104 53q-82 73 -82 210q0 138 77 213q78 76 221 76q154 0 253 -119q107 119 243 119q278 0 278 -289q0 -136 -91 -210q-81 -67 -207 -67q-151 0 -250 126q-110 -126 -246 -126q-122 0 -196 67zM256 356q-34 -31 -34 -92q0 -58 34 -91q29 -29 69 -29q52 0 128 117
q-68 121 -127 121q-42 0 -70 -26zM668 281q36 -71 58 -97q32 -40 69 -40q43 0 69 29q30 32 30 91q0 118 -98 118q-55 0 -128 -101z" />
    <glyph glyph-name="integral" unicode="&#x222b;" horiz-adv-x="274" 
d="M383 732q13 -40 10 -81q-7 -81 -89 -81q-65 0 -70 -5q-10 -11 -10 -102v-416q0 -249 -191 -249q-123 0 -123 100q0 48 31 71q8 -6 40 -6q70 0 70 108v424q0 257 212 257q91 0 120 -20z" />
    <glyph glyph-name="approxequal" unicode="&#x2248;" horiz-adv-x="558" 
d="M487 500q49 -9 49 -68q0 -91 -155 -91q-43 0 -106 18t-95 18q-55 0 -110 -19q-48 9 -48 67q0 91 152 91q42 0 107 -17q68 -18 98 -19q53 0 108 20zM487 301q49 -9 49 -68q0 -91 -155 -91q-43 0 -106 18t-95 18q-55 0 -110 -19q-48 9 -48 67q0 91 152 91q42 0 107 -17
q68 -18 98 -19q53 0 108 20z" />
    <glyph glyph-name="notequal" unicode="&#x2260;" horiz-adv-x="511" 
d="M100 346q-82 0 -82 86q0 65 36 80h163l19 88q17 77 89 77q60 0 68 -46l-28 -119h37q83 0 83 -86q0 -65 -36 -80h-123l-12 -51h88q83 0 83 -86q0 -65 -36 -80h-174l-16 -71q-17 -72 -79 -72q-46 0 -65 35l22 108h-37q-82 0 -82 86q0 65 36 80h118l10 51h-82z" />
    <glyph glyph-name="lessequal" unicode="&#x2264;" horiz-adv-x="408" 
d="M386 343q1 -28 -9 -56q-22 -56 -82 -56q-88 0 -183 73q-91 69 -91 124q0 48 108 131q106 82 163 82q45 0 69 -28q20 -24 20 -59q0 -56 -92 -96q-46 -20 -92 -29zM107 28q-82 0 -82 86q0 65 36 80h240q83 0 83 -86q0 -65 -36 -80h-241z" />
    <glyph glyph-name="greaterequal" unicode="&#x2265;" horiz-adv-x="408" 
d="M26 529q-1 28 10 56q21 56 81 56q88 0 183 -73q91 -69 91 -124q0 -48 -108 -131q-106 -82 -163 -82q-45 0 -69 29q-20 23 -20 58q0 56 92 96q46 20 92 29zM107 28q-82 0 -82 86q0 65 36 80h240q83 0 83 -86q0 -65 -36 -80h-241z" />
    <glyph glyph-name="lozenge" unicode="&#x25ca;" horiz-adv-x="558" 
d="M271 537l-66 -193l77 -206q64 171 64 206q0 27 -75 193zM420 46q-41 -83 -140 -83q-77 0 -119 37l-139 336q83 209 126 328q26 71 137 71q103 0 138 -78q113 -252 113 -298q0 -78 -116 -313z" />
    <glyph glyph-name="quotedbl" unicode="&#x22;" horiz-adv-x="524" 
d="M20 591q0 99 113 99q55 0 84 -26q14 -14 17 -27q0 -153 -36 -218q-33 -61 -109 -61q-37 0 -69 13v220zM290 591q0 99 113 99q55 0 84 -26q14 -14 17 -27q0 -153 -36 -218q-33 -61 -109 -61q-37 0 -69 13v220z" />
    <glyph glyph-name="exclam" unicode="!" horiz-adv-x="308" 
d="M153 -15q-126 0 -126 103q0 104 126 104q128 0 128 -104q0 -103 -128 -103zM243 267q-22 -20 -83 -20q-126 0 -126 240q0 194 136 194q58 0 91 -34q17 -18 22 -35q-40 -193 -40 -345z" />
    <glyph glyph-name="apple" horiz-adv-x="869" 
d="M545 95q-15 -56 -35 -77q-23 -26 -67 -26q-54 0 -74 19q-16 42 -31 84h-57q-103 0 -103 75q0 31 17 47h98l-26 66h-75q-90 0 -90 78q0 39 23 52h90l-30 71q-125 0 -125 82q0 40 24 59h697q28 -15 28 -57q0 -84 -125 -84l-26 -71h96q23 -17 23 -55q0 -75 -92 -75h-72
l-23 -66h90q26 -16 26 -53q0 -69 -102 -69h-59zM447 138l64 346h-145z" />
    <glyph glyph-name="dcroat" unicode="&#x111;" horiz-adv-x="571" 
d="M311 127v282q-89 5 -89 -148q0 -82 21 -113q15 -23 46 -23q10 0 22 2zM521 557v-412q0 -24 41 -20q13 -33 6 -66q-14 -67 -115 -67q-77 0 -115 44q-25 -44 -109 -44q-211 0 -211 266q0 146 71 222q67 72 188 72q7 0 34 -3v12q-37 4 -61 10q-63 16 -63 64q0 33 36 48
q50 2 93 3q17 32 99 32q88 0 103 -36q32 -3 53 -8q63 -15 63 -66q0 -33 -36 -49q-41 -2 -77 -2z" />
    <glyph glyph-name="Dcroat" unicode="&#x110;" horiz-adv-x="642" 
d="M42 406v141q0 65 50 90q55 28 204 28q161 0 244 -85q82 -84 82 -242q0 -176 -92 -268q-85 -85 -232 -85q-256 0 -256 133v120q-43 5 -69 14q-63 22 -63 86q0 44 36 64q51 3 96 4zM267 397q15 -3 27 -7q63 -20 63 -88q0 -44 -36 -66q-28 -2 -54 -2v-64q16 -5 43 -5
q81 0 81 153q0 92 -23 128q-19 30 -61 30q-30 0 -40 -5v-74z" />
    <glyph glyph-name="Itilde" unicode="&#x128;" horiz-adv-x="321" 
d="M276 52q0 -60 -115 -60q-116 0 -116 60v541q0 58 114 58q117 0 117 -58v-541zM308 847q34 -9 34 -70q0 -40 -27 -66q-29 -29 -82 -29q-31 0 -72 19q-40 18 -63 18q-39 0 -85 -19q-34 9 -34 69q0 40 29 67q31 28 83 28q29 0 70 -18q42 -18 63 -19q38 0 84 20z" />
    <glyph glyph-name="Utilde" unicode="&#x168;" horiz-adv-x="641" 
d="M605 262q0 -123 -67 -196q-74 -81 -216 -81q-283 0 -283 274l-1 334q0 58 114 58q117 0 117 -58v-357q0 -52 15 -73q14 -20 48 -20t49 20q16 22 16 76l-1 354q0 58 103 58q106 0 106 -58v-331zM469 847q34 -9 34 -70q0 -40 -27 -66q-29 -29 -82 -29q-31 0 -72 19
q-40 18 -63 18q-39 0 -85 -19q-34 9 -34 69q0 40 29 67q31 28 83 28q29 0 70 -18q42 -18 63 -19q38 0 84 20z" />
    <glyph glyph-name="utilde" unicode="&#x169;" horiz-adv-x="571" 
d="M34 487q0 52 104 52q106 0 106 -52v-310q0 -47 42 -47q15 0 27 3v354q0 52 104 52q106 0 106 -52v-342q0 -24 41 -20q13 -33 6 -66q-14 -67 -115 -67q-83 0 -118 48q-34 -48 -130 -48q-86 0 -131 46q-42 42 -42 114v335zM451 741q34 -9 34 -70q0 -40 -27 -66
q-29 -29 -82 -29q-31 0 -72 19q-40 18 -63 18q-39 0 -85 -19q-34 9 -34 69q0 40 29 67q31 28 83 28q29 0 70 -18q42 -18 63 -19q38 0 84 20z" />
    <glyph glyph-name="Ohorn" unicode="&#x1a0;" horiz-adv-x="661" 
d="M381 458q-16 34 -53 34q-71 0 -71 -170q0 -107 19 -146q15 -34 54 -34q35 0 51 35q19 42 19 146q0 96 -19 135zM579 552q62 -86 62 -226q0 -149 -77 -241q-84 -101 -237 -101t-234 98q-73 88 -73 239q0 161 80 250q82 92 238 92q90 0 155 -35q16 -5 22 0q20 17 1 37
l-20 17q-14 11 -19 18q-19 23 0 48q10 13 23 21q35 -10 74 -59q33 -41 35 -83q2 -44 -30 -75z" />
    <glyph glyph-name="ohorn" unicode="&#x1a1;" horiz-adv-x="545" 
d="M271 392q-53 0 -53 -125q0 -79 14 -108q12 -25 41 -25q51 0 51 134q0 124 -53 124zM502 415q27 -61 27 -143q0 -125 -63 -202q-69 -85 -197 -85t-194 83q-59 74 -59 201q0 134 67 208q69 75 200 75q78 0 133 -35q35 -18 45 -10q20 17 1 37l-20 17q-14 11 -19 18
q-19 23 0 48q10 13 23 21q35 -10 74 -59q33 -41 35 -83q2 -49 -39 -82q-7 -5 -14 -9z" />
    <glyph glyph-name="Uhorn" unicode="&#x1af;" horiz-adv-x="641" 
d="M605 531v-269q0 -123 -67 -196q-74 -81 -216 -81q-283 0 -283 274l-1 334q0 58 114 58q117 0 117 -58v-357q0 -52 15 -73q14 -20 48 -20t49 20q16 22 16 76l-1 354q0 58 103 58q68 0 92 -24q14 -4 20 1q20 17 1 37l-20 17q-14 11 -19 18q-19 23 0 48q10 13 23 21
q35 -10 74 -59q33 -41 35 -83q2 -49 -39 -82q-27 -22 -61 -14z" />
    <glyph glyph-name="uhorn" unicode="&#x1b0;" horiz-adv-x="571" 
d="M523 417v-272q0 -24 41 -20q13 -33 6 -66q-14 -67 -115 -67q-83 0 -118 48q-34 -48 -130 -48q-86 0 -131 46q-42 42 -42 114v335q0 52 104 52q106 0 106 -52v-310q0 -47 42 -47q15 0 27 3v354q0 52 104 52q78 0 98 -28q25 -10 33 -4q20 17 1 37l-20 17q-14 11 -19 18
q-19 23 0 48q10 13 23 21q35 -10 74 -59q33 -41 35 -83q2 -49 -39 -82q-34 -27 -80 -7z" />
    <glyph glyph-name="uni1EA0" unicode="&#x1ea0;" horiz-adv-x="611" 
d="M353 108h-129l-3 -23q-11 -92 -114 -92q-56 0 -83 28q-13 13 -15 27q60 345 112 510q32 101 182 101q154 0 186 -101q102 -317 102 -480q0 -85 -118 -85q-59 0 -85 22q-23 20 -31 69zM266 421q-3 -16 -9 -69q-7 -60 -13 -102h87q-7 47 -14 102l-9 69q-7 50 -22 50
q-13 0 -20 -50zM300 -201q-109 0 -109 89q0 90 109 90q110 0 110 -90q0 -89 -110 -89z" />
    <glyph glyph-name="uni1EA1" unicode="&#x1ea1;" 
d="M289 34q-50 -42 -114 -42q-77 0 -119 40q-38 37 -38 97q0 72 51 105q60 39 204 39l1 51q0 45 -47 45q-23 0 -62 -16q-39 -17 -63 -17q-82 0 -82 90q0 51 18 80q100 46 207 46q122 0 175 -42q60 -48 60 -168q0 -44 -7 -112t-7 -83q0 -26 41 -22q13 -33 6 -66
q-14 -67 -115 -67q-78 0 -109 42zM190 141q0 -37 40 -37q21 0 36 14v7q0 20 2 58q-60 -6 -72 -11q-6 -10 -6 -31zM266 -201q-109 0 -109 89q0 90 109 90q110 0 110 -90q0 -89 -110 -89z" />
    <glyph glyph-name="uni1EA2" unicode="&#x1ea2;" horiz-adv-x="611" 
d="M353 108h-129l-3 -23q-11 -92 -114 -92q-56 0 -83 28q-13 13 -15 27q60 345 112 510q32 101 182 101q154 0 186 -101q102 -317 102 -480q0 -85 -118 -85q-59 0 -85 22q-23 20 -31 69zM266 421q-3 -16 -9 -69q-7 -60 -13 -102h87q-7 47 -14 102l-9 69q-7 50 -22 50
q-13 0 -20 -50zM365 891q25 -27 25 -70q0 -42 -34 -73q-36 -33 -89 -33q-12 0 -17 7q-5 8 -1 16q49 28 49 69q0 50 -75 28q-14 10 -14 33q0 53 80 53q49 0 76 -30z" />
    <glyph glyph-name="uni1EA3" unicode="&#x1ea3;" 
d="M289 34q-50 -42 -114 -42q-77 0 -119 40q-38 37 -38 97q0 72 51 105q60 39 204 39l1 51q0 45 -47 45q-23 0 -62 -16q-39 -17 -63 -17q-82 0 -82 90q0 51 18 80q100 46 207 46q122 0 175 -42q60 -48 60 -168q0 -44 -7 -112t-7 -83q0 -26 41 -22q13 -33 6 -66
q-14 -67 -115 -67q-78 0 -109 42zM190 141q0 -37 40 -37q21 0 36 14v7q0 20 2 58q-60 -6 -72 -11q-6 -10 -6 -31zM332 785q25 -27 25 -70q0 -42 -34 -73q-36 -33 -89 -33q-12 0 -17 7q-5 8 -1 16q49 28 49 69q0 50 -75 28q-14 10 -14 33q0 53 80 53q49 0 76 -30z" />
    <glyph glyph-name="uni1EA4" unicode="&#x1ea4;" horiz-adv-x="611" 
d="M353 108h-129l-3 -23q-11 -92 -114 -92q-56 0 -83 28q-13 13 -15 27q60 345 112 510q32 101 182 101q154 0 186 -101q102 -317 102 -480q0 -85 -118 -85q-59 0 -85 22q-23 20 -31 69zM266 421q-3 -16 -9 -69q-7 -60 -13 -102h87q-7 47 -14 102l-9 69q-7 50 -22 50
q-13 0 -20 -50zM184 685q-84 0 -84 60q0 38 64 82q67 46 136 46q102 0 200 -105q0 -29 -25 -54q-28 -29 -71 -29q-89 0 -133 77zM233 983q0 49 88 105q43 27 87 45q23 -2 46 -16q45 -27 45 -84q0 -67 -111 -102q-55 -17 -111 -21q-44 15 -44 73z" />
    <glyph glyph-name="uni1EA5" unicode="&#x1ea5;" 
d="M289 34q-50 -42 -114 -42q-77 0 -119 40q-38 37 -38 97q0 72 51 105q60 39 204 39l1 51q0 45 -47 45q-23 0 -62 -16q-39 -17 -63 -17q-82 0 -82 90q0 51 18 80q100 46 207 46q122 0 175 -42q60 -48 60 -168q0 -44 -7 -112t-7 -83q0 -26 41 -22q13 -33 6 -66
q-14 -67 -115 -67q-78 0 -109 42zM190 141q0 -37 40 -37q21 0 36 14v7q0 20 2 58q-60 -6 -72 -11q-6 -10 -6 -31zM151 577q-84 0 -84 60q0 38 64 82q67 46 136 46q102 0 200 -105q0 -29 -25 -54q-28 -29 -71 -29q-89 0 -133 77zM196 880q0 49 88 105q43 27 87 45
q23 -2 46 -16q45 -27 45 -84q0 -67 -111 -102q-55 -17 -111 -21q-44 15 -44 73z" />
    <glyph glyph-name="uni1EA6" unicode="&#x1ea6;" horiz-adv-x="611" 
d="M353 108h-129l-3 -23q-11 -92 -114 -92q-56 0 -83 28q-13 13 -15 27q60 345 112 510q32 101 182 101q154 0 186 -101q102 -317 102 -480q0 -85 -118 -85q-59 0 -85 22q-23 20 -31 69zM266 421q-3 -16 -9 -69q-7 -60 -13 -102h87q-7 47 -14 102l-9 69q-7 50 -22 50
q-13 0 -20 -50zM184 685q-84 0 -84 60q0 38 64 82q67 46 136 46q102 0 200 -105q0 -29 -25 -54q-28 -29 -71 -29q-89 0 -133 77zM347 907q-111 35 -111 102q0 57 46 84q22 14 45 16q175 -71 175 -150q0 -58 -44 -73q-55 4 -111 21z" />
    <glyph glyph-name="uni1EA7" unicode="&#x1ea7;" 
d="M289 34q-50 -42 -114 -42q-77 0 -119 40q-38 37 -38 97q0 72 51 105q60 39 204 39l1 51q0 45 -47 45q-23 0 -62 -16q-39 -17 -63 -17q-82 0 -82 90q0 51 18 80q100 46 207 46q122 0 175 -42q60 -48 60 -168q0 -44 -7 -112t-7 -83q0 -26 41 -22q13 -33 6 -66
q-14 -67 -115 -67q-78 0 -109 42zM190 141q0 -37 40 -37q21 0 36 14v7q0 20 2 58q-60 -6 -72 -11q-6 -10 -6 -31zM151 577q-84 0 -84 60q0 38 64 82q67 46 136 46q102 0 200 -105q0 -29 -25 -54q-28 -29 -71 -29q-89 0 -133 77zM288 807q-111 35 -111 102q0 57 46 84
q22 14 45 16q175 -71 175 -150q0 -58 -44 -73q-55 4 -111 21z" />
    <glyph glyph-name="uni1EA8" unicode="&#x1ea8;" horiz-adv-x="611" 
d="M353 108h-129l-3 -23q-11 -92 -114 -92q-56 0 -83 28q-13 13 -15 27q60 345 112 510q32 101 182 101q154 0 186 -101q102 -317 102 -480q0 -85 -118 -85q-59 0 -85 22q-23 20 -31 69zM266 421q-3 -16 -9 -69q-7 -60 -13 -102h87q-7 47 -14 102l-9 69q-7 50 -22 50
q-13 0 -20 -50zM184 685q-84 0 -84 60q0 38 64 82q67 46 136 46q102 0 200 -105q0 -29 -25 -54q-28 -29 -71 -29q-89 0 -133 77zM394 1093q25 -27 25 -70q0 -42 -34 -73q-36 -33 -89 -33q-12 0 -17 7q-5 8 -1 16q49 28 49 69q0 50 -75 28q-14 10 -14 33q0 53 80 53
q49 0 76 -30z" />
    <glyph glyph-name="uni1EA9" unicode="&#x1ea9;" 
d="M289 34q-50 -42 -114 -42q-77 0 -119 40q-38 37 -38 97q0 72 51 105q60 39 204 39l1 51q0 45 -47 45q-23 0 -62 -16q-39 -17 -63 -17q-82 0 -82 90q0 51 18 80q100 46 207 46q122 0 175 -42q60 -48 60 -168q0 -44 -7 -112t-7 -83q0 -26 41 -22q13 -33 6 -66
q-14 -67 -115 -67q-78 0 -109 42zM190 141q0 -37 40 -37q21 0 36 14v7q0 20 2 58q-60 -6 -72 -11q-6 -10 -6 -31zM151 577q-84 0 -84 60q0 38 64 82q67 46 136 46q102 0 200 -105q0 -29 -25 -54q-28 -29 -71 -29q-89 0 -133 77zM350 985q25 -27 25 -70q0 -42 -34 -73
q-36 -33 -89 -33q-12 0 -17 7q-5 8 -1 16q49 28 49 69q0 50 -75 28q-14 10 -14 33q0 53 80 53q49 0 76 -30z" />
    <glyph glyph-name="uni1EAA" unicode="&#x1eaa;" horiz-adv-x="611" 
d="M353 108h-129l-3 -23q-11 -92 -114 -92q-56 0 -83 28q-13 13 -15 27q60 345 112 510q32 101 182 101q154 0 186 -101q102 -317 102 -480q0 -85 -118 -85q-59 0 -85 22q-23 20 -31 69zM266 421q-3 -16 -9 -69q-7 -60 -13 -102h87q-7 47 -14 102l-9 69q-7 50 -22 50
q-13 0 -20 -50zM184 685q-84 0 -84 60q0 38 64 82q67 46 136 46q102 0 200 -105q0 -29 -25 -54q-28 -29 -71 -29q-89 0 -133 77zM511 1064q34 -9 34 -70q0 -40 -27 -66q-29 -29 -82 -29q-31 0 -72 19q-40 18 -63 18q-39 0 -85 -19q-34 9 -34 69q0 40 29 67q31 28 83 28
q29 0 70 -18q42 -18 63 -19q38 0 84 20z" />
    <glyph glyph-name="uni1EAB" unicode="&#x1eab;" 
d="M289 34q-50 -42 -114 -42q-77 0 -119 40q-38 37 -38 97q0 72 51 105q60 39 204 39l1 51q0 45 -47 45q-23 0 -62 -16q-39 -17 -63 -17q-82 0 -82 90q0 51 18 80q100 46 207 46q122 0 175 -42q60 -48 60 -168q0 -44 -7 -112t-7 -83q0 -26 41 -22q13 -33 6 -66
q-14 -67 -115 -67q-78 0 -109 42zM190 141q0 -37 40 -37q21 0 36 14v7q0 20 2 58q-60 -6 -72 -11q-6 -10 -6 -31zM151 577q-84 0 -84 60q0 38 64 82q67 46 136 46q102 0 200 -105q0 -29 -25 -54q-28 -29 -71 -29q-89 0 -133 77zM490 965q34 -9 34 -70q0 -40 -27 -66
q-29 -29 -82 -29q-31 0 -72 19q-40 18 -63 18q-39 0 -85 -19q-34 9 -34 69q0 40 29 67q31 28 83 28q29 0 70 -18q42 -18 63 -19q38 0 84 20z" />
    <glyph glyph-name="uni1EAC" unicode="&#x1eac;" horiz-adv-x="611" 
d="M353 108h-129l-3 -23q-11 -92 -114 -92q-56 0 -83 28q-13 13 -15 27q60 345 112 510q32 101 182 101q154 0 186 -101q102 -317 102 -480q0 -85 -118 -85q-59 0 -85 22q-23 20 -31 69zM266 421q-3 -16 -9 -69q-7 -60 -13 -102h87q-7 47 -14 102l-9 69q-7 50 -22 50
q-13 0 -20 -50zM184 683q-84 0 -84 60q0 38 64 82q67 46 136 46q102 0 200 -105q0 -29 -25 -54q-28 -29 -71 -29q-89 0 -133 77zM300 -201q-109 0 -109 89q0 90 109 90q110 0 110 -90q0 -89 -110 -89z" />
    <glyph glyph-name="uni1EAD" unicode="&#x1ead;" 
d="M289 34q-50 -42 -114 -42q-77 0 -119 40q-38 37 -38 97q0 72 51 105q60 39 204 39l1 51q0 45 -47 45q-23 0 -62 -16q-39 -17 -63 -17q-82 0 -82 90q0 51 18 80q100 46 207 46q122 0 175 -42q60 -48 60 -168q0 -44 -7 -112t-7 -83q0 -26 41 -22q13 -33 6 -66
q-14 -67 -115 -67q-78 0 -109 42zM190 141q0 -37 40 -37q21 0 36 14v7q0 20 2 58q-60 -6 -72 -11q-6 -10 -6 -31zM151 577q-84 0 -84 60q0 38 64 82q67 46 136 46q102 0 200 -105q0 -29 -25 -54q-28 -29 -71 -29q-89 0 -133 77zM266 -201q-109 0 -109 89q0 90 109 90
q110 0 110 -90q0 -89 -110 -89z" />
    <glyph glyph-name="uni1EAE" unicode="&#x1eae;" horiz-adv-x="611" 
d="M353 108h-129l-3 -23q-11 -92 -114 -92q-56 0 -83 28q-13 13 -15 27q60 345 112 510q32 101 182 101q154 0 186 -101q102 -317 102 -480q0 -85 -118 -85q-59 0 -85 22q-23 20 -31 69zM266 421q-3 -16 -9 -69q-7 -60 -13 -102h87q-7 47 -14 102l-9 69q-7 50 -22 50
q-13 0 -20 -50zM460 740q-47 -38 -131 -38q-94 0 -151 44q-52 39 -52 94q0 28 16 48q20 25 57 25q6 -20 24 -41q35 -41 93 -41q76 0 104 66q20 -1 41 -11q40 -20 40 -67q0 -46 -41 -79zM264 967q0 49 88 105q43 27 87 45q23 -2 46 -16q45 -27 45 -84q0 -67 -111 -102
q-55 -17 -111 -21q-44 15 -44 73z" />
    <glyph glyph-name="uni1EAF" unicode="&#x1eaf;" 
d="M289 34q-50 -42 -114 -42q-77 0 -119 40q-38 37 -38 97q0 72 51 105q60 39 204 39l1 51q0 45 -47 45q-23 0 -62 -16q-39 -17 -63 -17q-82 0 -82 90q0 51 18 80q100 46 207 46q122 0 175 -42q60 -48 60 -168q0 -44 -7 -112t-7 -83q0 -26 41 -22q13 -33 6 -66
q-14 -67 -115 -67q-78 0 -109 42zM190 141q0 -37 40 -37q21 0 36 14v7q0 20 2 58q-60 -6 -72 -11q-6 -10 -6 -31zM413 615q-47 -38 -131 -38q-94 0 -151 44q-52 39 -52 94q0 28 16 48q20 25 57 25q6 -20 24 -41q35 -41 93 -41q76 0 104 66q20 -1 41 -11q40 -20 40 -67
q0 -46 -41 -79zM221 877q0 49 88 105q43 27 87 45q23 -2 46 -16q45 -27 45 -84q0 -67 -111 -102q-55 -17 -111 -21q-44 15 -44 73z" />
    <glyph glyph-name="uni1EB0" unicode="&#x1eb0;" horiz-adv-x="611" 
d="M353 108h-129l-3 -23q-11 -92 -114 -92q-56 0 -83 28q-13 13 -15 27q60 345 112 510q32 101 182 101q154 0 186 -101q102 -317 102 -480q0 -85 -118 -85q-59 0 -85 22q-23 20 -31 69zM266 421q-3 -16 -9 -69q-7 -60 -13 -102h87q-7 47 -14 102l-9 69q-7 50 -22 50
q-13 0 -20 -50zM460 740q-47 -38 -131 -38q-94 0 -151 44q-52 39 -52 94q0 28 16 48q20 25 57 25q6 -20 24 -41q35 -41 93 -41q76 0 104 66q20 -1 41 -11q40 -20 40 -67q0 -46 -41 -79zM235 947q-111 35 -111 102q0 57 46 84q22 14 45 16q175 -71 175 -150q0 -58 -44 -73
q-55 4 -111 21z" />
    <glyph glyph-name="uni1EB1" unicode="&#x1eb1;" 
d="M289 34q-50 -42 -114 -42q-77 0 -119 40q-38 37 -38 97q0 72 51 105q60 39 204 39l1 51q0 45 -47 45q-23 0 -62 -16q-39 -17 -63 -17q-82 0 -82 90q0 51 18 80q100 46 207 46q122 0 175 -42q60 -48 60 -168q0 -44 -7 -112t-7 -83q0 -26 41 -22q13 -33 6 -66
q-14 -67 -115 -67q-78 0 -109 42zM190 141q0 -37 40 -37q21 0 36 14v7q0 20 2 58q-60 -6 -72 -11q-6 -10 -6 -31zM413 615q-47 -38 -131 -38q-94 0 -151 44q-52 39 -52 94q0 28 16 48q20 25 57 25q6 -20 24 -41q35 -41 93 -41q76 0 104 66q20 -1 41 -11q40 -20 40 -67
q0 -46 -41 -79zM179 814q-111 35 -111 102q0 57 46 84q22 14 45 16q175 -71 175 -150q0 -58 -44 -73q-55 4 -111 21z" />
    <glyph glyph-name="uni1EB2" unicode="&#x1eb2;" horiz-adv-x="611" 
d="M353 108h-129l-3 -23q-11 -92 -114 -92q-56 0 -83 28q-13 13 -15 27q60 345 112 510q32 101 182 101q154 0 186 -101q102 -317 102 -480q0 -85 -118 -85q-59 0 -85 22q-23 20 -31 69zM266 421q-3 -16 -9 -69q-7 -60 -13 -102h87q-7 47 -14 102l-9 69q-7 50 -22 50
q-13 0 -20 -50zM460 740q-47 -38 -131 -38q-94 0 -151 44q-52 39 -52 94q0 28 16 48q20 25 57 25q6 -20 24 -41q35 -41 93 -41q76 0 104 66q20 -1 41 -11q40 -20 40 -67q0 -46 -41 -79zM394 1071q25 -27 25 -70q0 -42 -34 -73q-36 -33 -89 -33q-12 0 -17 7q-5 8 -1 16
q49 28 49 69q0 50 -75 28q-14 10 -14 33q0 53 80 53q49 0 76 -30z" />
    <glyph glyph-name="uni1EB3" unicode="&#x1eb3;" 
d="M289 34q-50 -42 -114 -42q-77 0 -119 40q-38 37 -38 97q0 72 51 105q60 39 204 39l1 51q0 45 -47 45q-23 0 -62 -16q-39 -17 -63 -17q-82 0 -82 90q0 51 18 80q100 46 207 46q122 0 175 -42q60 -48 60 -168q0 -44 -7 -112t-7 -83q0 -26 41 -22q13 -33 6 -66
q-14 -67 -115 -67q-78 0 -109 42zM190 141q0 -37 40 -37q21 0 36 14v7q0 20 2 58q-60 -6 -72 -11q-6 -10 -6 -31zM413 615q-47 -38 -131 -38q-94 0 -151 44q-52 39 -52 94q0 28 16 48q20 25 57 25q6 -20 24 -41q35 -41 93 -41q76 0 104 66q20 -1 41 -11q40 -20 40 -67
q0 -46 -41 -79zM356 970q25 -27 25 -70q0 -42 -34 -73q-36 -33 -89 -33q-12 0 -17 7q-5 8 -1 16q49 28 49 69q0 50 -75 28q-14 10 -14 33q0 53 80 53q49 0 76 -30z" />
    <glyph glyph-name="uni1EB4" unicode="&#x1eb4;" horiz-adv-x="611" 
d="M353 108h-129l-3 -23q-11 -92 -114 -92q-56 0 -83 28q-13 13 -15 27q60 345 112 510q32 101 182 101q154 0 186 -101q102 -317 102 -480q0 -85 -118 -85q-59 0 -85 22q-23 20 -31 69zM266 421q-3 -16 -9 -69q-7 -60 -13 -102h87q-7 47 -14 102l-9 69q-7 50 -22 50
q-13 0 -20 -50zM460 740q-47 -38 -131 -38q-94 0 -151 44q-52 39 -52 94q0 28 16 48q20 25 57 25q6 -20 24 -41q35 -41 93 -41q76 0 104 66q20 -1 41 -11q40 -20 40 -67q0 -46 -41 -79zM602 1075q34 -9 34 -70q0 -40 -27 -66q-29 -29 -82 -29q-31 0 -72 19q-40 18 -63 18
q-39 0 -85 -19q-34 9 -34 69q0 40 29 67q31 28 83 28q29 0 70 -18q42 -18 63 -19q38 0 84 20z" />
    <glyph glyph-name="uni1EB5" unicode="&#x1eb5;" 
d="M289 34q-50 -42 -114 -42q-77 0 -119 40q-38 37 -38 97q0 72 51 105q60 39 204 39l1 51q0 45 -47 45q-23 0 -62 -16q-39 -17 -63 -17q-82 0 -82 90q0 51 18 80q100 46 207 46q122 0 175 -42q60 -48 60 -168q0 -44 -7 -112t-7 -83q0 -26 41 -22q13 -33 6 -66
q-14 -67 -115 -67q-78 0 -109 42zM190 141q0 -37 40 -37q21 0 36 14v7q0 20 2 58q-60 -6 -72 -11q-6 -10 -6 -31zM413 615q-47 -38 -131 -38q-94 0 -151 44q-52 39 -52 94q0 28 16 48q20 25 57 25q6 -20 24 -41q35 -41 93 -41q76 0 104 66q20 -1 41 -11q40 -20 40 -67
q0 -46 -41 -79zM578 948q34 -9 34 -70q0 -40 -27 -66q-29 -29 -82 -29q-31 0 -72 19q-40 18 -63 18q-39 0 -85 -19q-34 9 -34 69q0 40 29 67q31 28 83 28q29 0 70 -18q42 -18 63 -19q38 0 84 20z" />
    <glyph glyph-name="uni1EB6" unicode="&#x1eb6;" horiz-adv-x="611" 
d="M353 108h-129l-3 -23q-11 -92 -114 -92q-56 0 -83 28q-13 13 -15 27q60 345 112 510q32 101 182 101q154 0 186 -101q102 -317 102 -480q0 -85 -118 -85q-59 0 -85 22q-23 20 -31 69zM266 421q-3 -16 -9 -69q-7 -60 -13 -102h87q-7 47 -14 102l-9 69q-7 50 -22 50
q-13 0 -20 -50zM460 740q-47 -38 -131 -38q-94 0 -151 44q-52 39 -52 94q0 28 16 48q20 25 57 25q6 -20 24 -41q35 -41 93 -41q76 0 104 66q20 -1 41 -11q40 -20 40 -67q0 -46 -41 -79z" />
    <glyph glyph-name="uni1EB7" unicode="&#x1eb7;" 
d="M289 34q-50 -42 -114 -42q-77 0 -119 40q-38 37 -38 97q0 72 51 105q60 39 204 39l1 51q0 45 -47 45q-23 0 -62 -16q-39 -17 -63 -17q-82 0 -82 90q0 51 18 80q100 46 207 46q122 0 175 -42q60 -48 60 -168q0 -44 -7 -112t-7 -83q0 -26 41 -22q13 -33 6 -66
q-14 -67 -115 -67q-78 0 -109 42zM190 141q0 -37 40 -37q21 0 36 14v7q0 20 2 58q-60 -6 -72 -11q-6 -10 -6 -31zM413 615q-47 -38 -131 -38q-94 0 -151 44q-52 39 -52 94q0 28 16 48q20 25 57 25q6 -20 24 -41q35 -41 93 -41q76 0 104 66q20 -1 41 -11q40 -20 40 -67
q0 -46 -41 -79zM266 -201q-109 0 -109 89q0 90 109 90q110 0 110 -90q0 -89 -110 -89z" />
    <glyph glyph-name="uni1EB8" unicode="&#x1eb8;" horiz-adv-x="522" 
d="M478 153q23 -16 23 -61q0 -54 -25 -75q-29 -25 -104 -25h-163q-96 0 -135 31q-33 25 -33 78v483q0 29 23 49q22 18 54 18h331q29 -26 29 -84q-2 -55 -22 -76q-22 -23 -81 -23h-116v-82h186q44 0 44 -68q0 -46 -25 -65q-26 -20 -86 -20h-119v-80h219zM271 -201
q-109 0 -109 89q0 90 109 90q110 0 110 -90q0 -89 -110 -89z" />
    <glyph glyph-name="uni1EB9" unicode="&#x1eb9;" horiz-adv-x="508" 
d="M218 226q13 -87 107 -87q61 0 113 29q41 -16 41 -68q0 -49 -45 -79q-53 -36 -156 -36q-128 0 -197 76q-65 71 -65 189q0 148 73 227q69 75 190 75q102 0 158 -54q55 -54 55 -151q0 -75 -28 -113zM217 317l104 8q2 10 2 25q0 44 -42 44q-56 0 -64 -77zM254 -201
q-109 0 -109 89q0 90 109 90q110 0 110 -90q0 -89 -110 -89z" />
    <glyph glyph-name="uni1EBA" unicode="&#x1eba;" horiz-adv-x="522" 
d="M478 153q23 -16 23 -61q0 -54 -25 -75q-29 -25 -104 -25h-163q-96 0 -135 31q-33 25 -33 78v483q0 29 23 49q22 18 54 18h331q29 -26 29 -84q-2 -55 -22 -76q-22 -23 -81 -23h-116v-82h186q44 0 44 -68q0 -46 -25 -65q-26 -20 -86 -20h-119v-80h219zM336 891
q25 -27 25 -70q0 -42 -34 -73q-36 -33 -89 -33q-12 0 -17 7q-5 8 -1 16q49 28 49 69q0 50 -75 28q-14 10 -14 33q0 53 80 53q49 0 76 -30z" />
    <glyph glyph-name="uni1EBB" unicode="&#x1ebb;" horiz-adv-x="508" 
d="M218 226q13 -87 107 -87q61 0 113 29q41 -16 41 -68q0 -49 -45 -79q-53 -36 -156 -36q-128 0 -197 76q-65 71 -65 189q0 148 73 227q69 75 190 75q102 0 158 -54q55 -54 55 -151q0 -75 -28 -113zM217 317l104 8q2 10 2 25q0 44 -42 44q-56 0 -64 -77zM319 785
q25 -27 25 -70q0 -42 -34 -73q-36 -33 -89 -33q-12 0 -17 7q-5 8 -1 16q49 28 49 69q0 50 -75 28q-14 10 -14 33q0 53 80 53q49 0 76 -30z" />
    <glyph glyph-name="uni1EBC" unicode="&#x1ebc;" horiz-adv-x="522" 
d="M478 153q23 -16 23 -61q0 -54 -25 -75q-29 -25 -104 -25h-163q-96 0 -135 31q-33 25 -33 78v483q0 29 23 49q22 18 54 18h331q29 -26 29 -84q-2 -55 -22 -76q-22 -23 -81 -23h-116v-82h186q44 0 44 -68q0 -46 -25 -65q-26 -20 -86 -20h-119v-80h219zM419 847
q34 -9 34 -70q0 -40 -27 -66q-29 -29 -82 -29q-31 0 -72 19q-40 18 -63 18q-39 0 -85 -19q-34 9 -34 69q0 40 29 67q31 28 83 28q29 0 70 -18q42 -18 63 -19q38 0 84 20z" />
    <glyph glyph-name="uni1EBD" unicode="&#x1ebd;" horiz-adv-x="508" 
d="M218 226q13 -87 107 -87q61 0 113 29q41 -16 41 -68q0 -49 -45 -79q-53 -36 -156 -36q-128 0 -197 76q-65 71 -65 189q0 148 73 227q69 75 190 75q102 0 158 -54q55 -54 55 -151q0 -75 -28 -113zM217 317l104 8q2 10 2 25q0 44 -42 44q-56 0 -64 -77zM439 747
q34 -9 34 -70q0 -40 -27 -66q-29 -29 -82 -29q-31 0 -72 19q-40 18 -63 18q-39 0 -85 -19q-34 9 -34 69q0 40 29 67q31 28 83 28q29 0 70 -18q42 -18 63 -19q38 0 84 20z" />
    <glyph glyph-name="uni1EBE" unicode="&#x1ebe;" horiz-adv-x="519" 
d="M478 153q23 -16 23 -61q0 -54 -25 -75q-29 -25 -104 -25h-163q-96 0 -135 31q-33 25 -33 78v483q0 29 23 49q22 18 54 18h331q29 -26 29 -84q-2 -55 -22 -76q-22 -23 -81 -23h-116v-82h186q44 0 44 -68q0 -46 -25 -65q-26 -20 -86 -20h-119v-80h219zM161 684
q-84 0 -84 60q0 38 64 82q67 46 136 46q102 0 200 -105q0 -29 -25 -54q-28 -29 -71 -29q-89 0 -133 77zM212 990q0 49 88 105q43 27 87 45q23 -2 46 -16q45 -27 45 -84q0 -67 -111 -102q-55 -17 -111 -21q-44 15 -44 73z" />
    <glyph glyph-name="uni1EBF" unicode="&#x1ebf;" horiz-adv-x="508" 
d="M218 226q13 -87 107 -87q61 0 113 29q41 -16 41 -68q0 -49 -45 -79q-53 -36 -156 -36q-128 0 -197 76q-65 71 -65 189q0 148 73 227q69 75 190 75q102 0 158 -54q55 -54 55 -151q0 -75 -28 -113zM217 317l104 8q2 10 2 25q0 44 -42 44q-56 0 -64 -77zM138 577
q-84 0 -84 60q0 38 64 82q67 46 136 46q102 0 200 -105q0 -29 -25 -54q-28 -29 -71 -29q-89 0 -133 77zM193 883q0 49 88 105q43 27 87 45q23 -2 46 -16q45 -27 45 -84q0 -67 -111 -102q-55 -17 -111 -21q-44 15 -44 73z" />
    <glyph glyph-name="uni1EC0" unicode="&#x1ec0;" horiz-adv-x="519" 
d="M478 153q23 -16 23 -61q0 -54 -25 -75q-29 -25 -104 -25h-163q-96 0 -135 31q-33 25 -33 78v483q0 29 23 49q22 18 54 18h331q29 -26 29 -84q-2 -55 -22 -76q-22 -23 -81 -23h-116v-82h186q44 0 44 -68q0 -46 -25 -65q-26 -20 -86 -20h-119v-80h219zM161 684
q-84 0 -84 60q0 38 64 82q67 46 136 46q102 0 200 -105q0 -29 -25 -54q-28 -29 -71 -29q-89 0 -133 77zM347 907q-111 35 -111 102q0 57 46 84q22 14 45 16q175 -71 175 -150q0 -58 -44 -73q-55 4 -111 21z" />
    <glyph glyph-name="uni1EC1" unicode="&#x1ec1;" horiz-adv-x="508" 
d="M218 226q13 -87 107 -87q61 0 113 29q41 -16 41 -68q0 -49 -45 -79q-53 -36 -156 -36q-128 0 -197 76q-65 71 -65 189q0 148 73 227q69 75 190 75q102 0 158 -54q55 -54 55 -151q0 -75 -28 -113zM217 317l104 8q2 10 2 25q0 44 -42 44q-56 0 -64 -77zM138 577
q-84 0 -84 60q0 38 64 82q67 46 136 46q102 0 200 -105q0 -29 -25 -54q-28 -29 -71 -29q-89 0 -133 77zM315 827q-111 35 -111 102q0 57 46 84q22 14 45 16q175 -71 175 -150q0 -58 -44 -73q-55 4 -111 21z" />
    <glyph glyph-name="uni1EC2" unicode="&#x1ec2;" horiz-adv-x="519" 
d="M478 153q23 -16 23 -61q0 -54 -25 -75q-29 -25 -104 -25h-163q-96 0 -135 31q-33 25 -33 78v483q0 29 23 49q22 18 54 18h331q29 -26 29 -84q-2 -55 -22 -76q-22 -23 -81 -23h-116v-82h186q44 0 44 -68q0 -46 -25 -65q-26 -20 -86 -20h-119v-80h219zM161 684
q-84 0 -84 60q0 38 64 82q67 46 136 46q102 0 200 -105q0 -29 -25 -54q-28 -29 -71 -29q-89 0 -133 77zM362 1080q25 -27 25 -70q0 -42 -34 -73q-36 -33 -89 -33q-12 0 -17 7q-5 8 -1 16q49 28 49 69q0 50 -75 28q-14 10 -14 33q0 53 80 53q49 0 76 -30z" />
    <glyph glyph-name="uni1EC3" unicode="&#x1ec3;" horiz-adv-x="508" 
d="M218 226q13 -87 107 -87q61 0 113 29q41 -16 41 -68q0 -49 -45 -79q-53 -36 -156 -36q-128 0 -197 76q-65 71 -65 189q0 148 73 227q69 75 190 75q102 0 158 -54q55 -54 55 -151q0 -75 -28 -113zM217 317l104 8q2 10 2 25q0 44 -42 44q-56 0 -64 -77zM138 577
q-84 0 -84 60q0 38 64 82q67 46 136 46q102 0 200 -105q0 -29 -25 -54q-28 -29 -71 -29q-89 0 -133 77zM341 979q25 -27 25 -70q0 -42 -34 -73q-36 -33 -89 -33q-12 0 -17 7q-5 8 -1 16q49 28 49 69q0 50 -75 28q-14 10 -14 33q0 53 80 53q49 0 76 -30z" />
    <glyph glyph-name="uni1EC4" unicode="&#x1ec4;" horiz-adv-x="519" 
d="M478 153q23 -16 23 -61q0 -54 -25 -75q-29 -25 -104 -25h-163q-96 0 -135 31q-33 25 -33 78v483q0 29 23 49q22 18 54 18h331q29 -26 29 -84q-2 -55 -22 -76q-22 -23 -81 -23h-116v-82h186q44 0 44 -68q0 -46 -25 -65q-26 -20 -86 -20h-119v-80h219zM161 684
q-84 0 -84 60q0 38 64 82q67 46 136 46q102 0 200 -105q0 -29 -25 -54q-28 -29 -71 -29q-89 0 -133 77zM497 1062q34 -9 34 -70q0 -40 -27 -66q-29 -29 -82 -29q-31 0 -72 19q-40 18 -63 18q-39 0 -85 -19q-34 9 -34 69q0 40 29 67q31 28 83 28q29 0 70 -18q42 -18 63 -19
q38 0 84 20z" />
    <glyph glyph-name="uni1EC5" unicode="&#x1ec5;" horiz-adv-x="508" 
d="M218 226q13 -87 107 -87q61 0 113 29q41 -16 41 -68q0 -49 -45 -79q-53 -36 -156 -36q-128 0 -197 76q-65 71 -65 189q0 148 73 227q69 75 190 75q102 0 158 -54q55 -54 55 -151q0 -75 -28 -113zM217 317l104 8q2 10 2 25q0 44 -42 44q-56 0 -64 -77zM138 577
q-84 0 -84 60q0 38 64 82q67 46 136 46q102 0 200 -105q0 -29 -25 -54q-28 -29 -71 -29q-89 0 -133 77zM481 963q34 -9 34 -70q0 -40 -27 -66q-29 -29 -82 -29q-31 0 -72 19q-40 18 -63 18q-39 0 -85 -19q-34 9 -34 69q0 40 29 67q31 28 83 28q29 0 70 -18q42 -18 63 -19
q38 0 84 20z" />
    <glyph glyph-name="uni1EC6" unicode="&#x1ec6;" horiz-adv-x="522" 
d="M478 153q23 -16 23 -61q0 -54 -25 -75q-29 -25 -104 -25h-163q-96 0 -135 31q-33 25 -33 78v483q0 29 23 49q22 18 54 18h331q29 -26 29 -84q-2 -55 -22 -76q-22 -23 -81 -23h-116v-82h186q44 0 44 -68q0 -46 -25 -65q-26 -20 -86 -20h-119v-80h219zM155 683
q-84 0 -84 60q0 38 64 82q67 46 136 46q102 0 200 -105q0 -29 -25 -54q-28 -29 -71 -29q-89 0 -133 77zM271 -218q-109 0 -109 89q0 90 109 90q110 0 110 -90q0 -89 -110 -89z" />
    <glyph glyph-name="uni1EC7" unicode="&#x1ec7;" horiz-adv-x="508" 
d="M218 226q13 -87 107 -87q61 0 113 29q41 -16 41 -68q0 -49 -45 -79q-53 -36 -156 -36q-128 0 -197 76q-65 71 -65 189q0 148 73 227q69 75 190 75q102 0 158 -54q55 -54 55 -151q0 -75 -28 -113zM217 317l104 8q2 10 2 25q0 44 -42 44q-56 0 -64 -77zM138 577
q-84 0 -84 60q0 38 64 82q67 46 136 46q102 0 200 -105q0 -29 -25 -54q-28 -29 -71 -29q-89 0 -133 77zM278 -223q-109 0 -109 89q0 90 109 90q110 0 110 -90q0 -89 -110 -89z" />
    <glyph glyph-name="uni1EC8" unicode="&#x1ec8;" horiz-adv-x="321" 
d="M276 52q0 -60 -115 -60q-116 0 -116 60v541q0 58 114 58q117 0 117 -58v-541zM226 891q25 -27 25 -70q0 -42 -34 -73q-36 -33 -89 -33q-12 0 -17 7q-5 8 -1 16q49 28 49 69q0 50 -75 28q-14 10 -14 33q0 53 80 53q49 0 76 -30z" />
    <glyph glyph-name="uni1EC9" unicode="&#x1ec9;" horiz-adv-x="292" 
d="M251 46q0 -54 -105 -54t-105 54v441q0 52 104 52q106 0 106 -52v-441zM211 785q25 -27 25 -70q0 -42 -34 -73q-36 -33 -89 -33q-12 0 -17 7q-5 8 -1 16q49 28 49 69q0 50 -75 28q-14 10 -14 33q0 53 80 53q49 0 76 -30z" />
    <glyph glyph-name="uni1ECA" unicode="&#x1eca;" horiz-adv-x="321" 
d="M276 52q0 -60 -115 -60q-116 0 -116 60v541q0 58 114 58q117 0 117 -58v-541zM160 -201q-109 0 -109 89q0 90 109 90q110 0 110 -90q0 -89 -110 -89z" />
    <glyph glyph-name="uni1ECB" unicode="&#x1ecb;" horiz-adv-x="292" 
d="M251 46q0 -54 -105 -54t-105 54v441q0 52 104 52q106 0 106 -52v-441zM32 668q0 97 114 97t114 -97q0 -95 -114 -95t-114 95zM146 -201q-109 0 -109 89q0 90 109 90q110 0 110 -90q0 -89 -110 -89z" />
    <glyph glyph-name="uni1ECC" unicode="&#x1ecc;" horiz-adv-x="661" 
d="M569 565q72 -89 72 -239q0 -149 -77 -241q-84 -101 -237 -101t-234 98q-73 88 -73 239q0 161 80 250q82 92 238 92q151 0 231 -98zM381 458q-16 34 -53 34q-71 0 -71 -170q0 -107 19 -146q15 -34 54 -34q35 0 51 35q19 42 19 146q0 96 -19 135zM330 -201q-109 0 -109 89
q0 90 109 90q110 0 110 -90q0 -89 -110 -89z" />
    <glyph glyph-name="uni1ECD" unicode="&#x1ecd;" horiz-adv-x="545" 
d="M468 471q61 -76 61 -199q0 -125 -63 -202q-69 -85 -197 -85t-194 83q-59 74 -59 201q0 134 67 208q69 75 200 75q118 0 185 -81zM271 392q-53 0 -53 -125q0 -79 14 -108q12 -25 41 -25q51 0 51 134q0 124 -53 124zM272 -201q-109 0 -109 89q0 90 109 90q110 0 110 -90
q0 -89 -110 -89z" />
    <glyph glyph-name="uni1ECE" unicode="&#x1ece;" horiz-adv-x="661" 
d="M569 565q72 -89 72 -239q0 -149 -77 -241q-84 -101 -237 -101t-234 98q-73 88 -73 239q0 161 80 250q82 92 238 92q151 0 231 -98zM381 458q-16 34 -53 34q-71 0 -71 -170q0 -107 19 -146q15 -34 54 -34q35 0 51 35q19 42 19 146q0 96 -19 135zM396 891q25 -27 25 -70
q0 -42 -34 -73q-36 -33 -89 -33q-12 0 -17 7q-5 8 -1 16q49 28 49 69q0 50 -75 28q-14 10 -14 33q0 53 80 53q49 0 76 -30z" />
    <glyph glyph-name="uni1ECF" unicode="&#x1ecf;" horiz-adv-x="545" 
d="M468 471q61 -76 61 -199q0 -125 -63 -202q-69 -85 -197 -85t-194 83q-59 74 -59 201q0 134 67 208q69 75 200 75q118 0 185 -81zM271 392q-53 0 -53 -125q0 -79 14 -108q12 -25 41 -25q51 0 51 134q0 124 -53 124zM338 785q25 -27 25 -70q0 -42 -34 -73q-36 -33 -89 -33
q-12 0 -17 7q-5 8 -1 16q49 28 49 69q0 50 -75 28q-14 10 -14 33q0 53 80 53q49 0 76 -30z" />
    <glyph glyph-name="uni1ED0" unicode="&#x1ed0;" horiz-adv-x="661" 
d="M569 565q72 -89 72 -239q0 -149 -77 -241q-84 -101 -237 -101t-234 98q-73 88 -73 239q0 161 80 250q82 92 238 92q151 0 231 -98zM381 458q-16 34 -53 34q-71 0 -71 -170q0 -107 19 -146q15 -34 54 -34q35 0 51 35q19 42 19 146q0 96 -19 135zM221 685q-84 0 -84 60
q0 38 64 82q67 46 136 46q102 0 200 -105q0 -29 -25 -54q-28 -29 -71 -29q-89 0 -133 77zM288 981q0 49 88 105q43 27 87 45q23 -2 46 -16q45 -27 45 -84q0 -67 -111 -102q-55 -17 -111 -21q-44 15 -44 73z" />
    <glyph glyph-name="uni1ED1" unicode="&#x1ed1;" horiz-adv-x="545" 
d="M468 471q61 -76 61 -199q0 -125 -63 -202q-69 -85 -197 -85t-194 83q-59 74 -59 201q0 134 67 208q69 75 200 75q118 0 185 -81zM271 392q-53 0 -53 -125q0 -79 14 -108q12 -25 41 -25q51 0 51 134q0 124 -53 124zM157 577q-84 0 -84 60q0 38 64 82q67 46 136 46
q102 0 200 -105q0 -29 -25 -54q-28 -29 -71 -29q-89 0 -133 77zM217 872q0 49 88 105q43 27 87 45q23 -2 46 -16q45 -27 45 -84q0 -67 -111 -102q-55 -17 -111 -21q-44 15 -44 73z" />
    <glyph glyph-name="uni1ED2" unicode="&#x1ed2;" horiz-adv-x="661" 
d="M569 565q72 -89 72 -239q0 -149 -77 -241q-84 -101 -237 -101t-234 98q-73 88 -73 239q0 161 80 250q82 92 238 92q151 0 231 -98zM381 458q-16 34 -53 34q-71 0 -71 -170q0 -107 19 -146q15 -34 54 -34q35 0 51 35q19 42 19 146q0 96 -19 135zM221 685q-84 0 -84 60
q0 38 64 82q67 46 136 46q102 0 200 -105q0 -29 -25 -54q-28 -29 -71 -29q-89 0 -133 77zM347 907q-111 35 -111 102q0 57 46 84q22 14 45 16q175 -71 175 -150q0 -58 -44 -73q-55 4 -111 21z" />
    <glyph glyph-name="uni1ED3" unicode="&#x1ed3;" horiz-adv-x="545" 
d="M468 471q61 -76 61 -199q0 -125 -63 -202q-69 -85 -197 -85t-194 83q-59 74 -59 201q0 134 67 208q69 75 200 75q118 0 185 -81zM271 392q-53 0 -53 -125q0 -79 14 -108q12 -25 41 -25q51 0 51 134q0 124 -53 124zM157 577q-84 0 -84 60q0 38 64 82q67 46 136 46
q102 0 200 -105q0 -29 -25 -54q-28 -29 -71 -29q-89 0 -133 77zM338 807q-111 35 -111 102q0 57 46 84q22 14 45 16q175 -71 175 -150q0 -58 -44 -73q-55 4 -111 21z" />
    <glyph glyph-name="uni1ED4" unicode="&#x1ed4;" horiz-adv-x="661" 
d="M569 565q72 -89 72 -239q0 -149 -77 -241q-84 -101 -237 -101t-234 98q-73 88 -73 239q0 161 80 250q82 92 238 92q151 0 231 -98zM381 458q-16 34 -53 34q-71 0 -71 -170q0 -107 19 -146q15 -34 54 -34q35 0 51 35q19 42 19 146q0 96 -19 135zM221 685q-84 0 -84 60
q0 38 64 82q67 46 136 46q102 0 200 -105q0 -29 -25 -54q-28 -29 -71 -29q-89 0 -133 77zM394 1071q25 -27 25 -70q0 -42 -34 -73q-36 -33 -89 -33q-12 0 -17 7q-5 8 -1 16q49 28 49 69q0 50 -75 28q-14 10 -14 33q0 53 80 53q49 0 76 -30z" />
    <glyph glyph-name="uni1ED5" unicode="&#x1ed5;" horiz-adv-x="545" 
d="M468 471q61 -76 61 -199q0 -125 -63 -202q-69 -85 -197 -85t-194 83q-59 74 -59 201q0 134 67 208q69 75 200 75q118 0 185 -81zM271 392q-53 0 -53 -125q0 -79 14 -108q12 -25 41 -25q51 0 51 134q0 124 -53 124zM157 577q-84 0 -84 60q0 38 64 82q67 46 136 46
q102 0 200 -105q0 -29 -25 -54q-28 -29 -71 -29q-89 0 -133 77zM394 978q25 -27 25 -70q0 -42 -34 -73q-36 -33 -89 -33q-12 0 -17 7q-5 8 -1 16q49 28 49 69q0 50 -75 28q-14 10 -14 33q0 53 80 53q49 0 76 -30z" />
    <glyph glyph-name="uni1ED6" unicode="&#x1ed6;" horiz-adv-x="661" 
d="M569 565q72 -89 72 -239q0 -149 -77 -241q-84 -101 -237 -101t-234 98q-73 88 -73 239q0 161 80 250q82 92 238 92q151 0 231 -98zM381 458q-16 34 -53 34q-71 0 -71 -170q0 -107 19 -146q15 -34 54 -34q35 0 51 35q19 42 19 146q0 96 -19 135zM221 685q-84 0 -84 60
q0 38 64 82q67 46 136 46q102 0 200 -105q0 -29 -25 -54q-28 -29 -71 -29q-89 0 -133 77zM556 1064q34 -9 34 -70q0 -40 -27 -66q-29 -29 -82 -29q-31 0 -72 19q-40 18 -63 18q-39 0 -85 -19q-34 9 -34 69q0 40 29 67q31 28 83 28q29 0 70 -18q42 -18 63 -19q38 0 84 20z
" />
    <glyph glyph-name="uni1ED7" unicode="&#x1ed7;" horiz-adv-x="545" 
d="M468 471q61 -76 61 -199q0 -125 -63 -202q-69 -85 -197 -85t-194 83q-59 74 -59 201q0 134 67 208q69 75 200 75q118 0 185 -81zM271 392q-53 0 -53 -125q0 -79 14 -108q12 -25 41 -25q51 0 51 134q0 124 -53 124zM157 577q-84 0 -84 60q0 38 64 82q67 46 136 46
q102 0 200 -105q0 -29 -25 -54q-28 -29 -71 -29q-89 0 -133 77zM481 951q34 -9 34 -70q0 -40 -27 -66q-29 -29 -82 -29q-31 0 -72 19q-40 18 -63 18q-39 0 -85 -19q-34 9 -34 69q0 40 29 67q31 28 83 28q29 0 70 -18q42 -18 63 -19q38 0 84 20z" />
    <glyph glyph-name="uni1ED8" unicode="&#x1ed8;" horiz-adv-x="661" 
d="M569 565q72 -89 72 -239q0 -149 -77 -241q-84 -101 -237 -101t-234 98q-73 88 -73 239q0 161 80 250q82 92 238 92q151 0 231 -98zM381 458q-16 34 -53 34q-71 0 -71 -170q0 -107 19 -146q15 -34 54 -34q35 0 51 35q19 42 19 146q0 96 -19 135zM215 683q-84 0 -84 60
q0 38 64 82q67 46 136 46q102 0 200 -105q0 -29 -25 -54q-28 -29 -71 -29q-89 0 -133 77zM313 -229q-109 0 -109 89q0 90 109 90q110 0 110 -90q0 -89 -110 -89z" />
    <glyph glyph-name="uni1ED9" unicode="&#x1ed9;" horiz-adv-x="545" 
d="M468 471q61 -76 61 -199q0 -125 -63 -202q-69 -85 -197 -85t-194 83q-59 74 -59 201q0 134 67 208q69 75 200 75q118 0 185 -81zM271 392q-53 0 -53 -125q0 -79 14 -108q12 -25 41 -25q51 0 51 134q0 124 -53 124zM157 577q-84 0 -84 60q0 38 64 82q67 46 136 46
q102 0 200 -105q0 -29 -25 -54q-28 -29 -71 -29q-89 0 -133 77zM259 -234q-109 0 -109 89q0 90 109 90q110 0 110 -90q0 -89 -110 -89z" />
    <glyph glyph-name="uni1EDB" unicode="&#x1edb;" horiz-adv-x="545" 
d="M271 392q-53 0 -53 -125q0 -79 14 -108q12 -25 41 -25q51 0 51 134q0 124 -53 124zM502 415q27 -61 27 -143q0 -125 -63 -202q-69 -85 -197 -85t-194 83q-59 74 -59 201q0 134 67 208q69 75 200 75q78 0 133 -35q35 -18 45 -10q20 17 1 37l-20 17q-14 11 -19 18
q-19 23 0 48q10 13 23 21q35 -10 74 -59q33 -41 35 -83q2 -49 -39 -82q-7 -5 -14 -9zM154 650q0 49 88 105q43 27 87 45q23 -2 46 -16q45 -27 45 -84q0 -67 -111 -102q-55 -17 -111 -21q-44 15 -44 73z" />
    <glyph glyph-name="uni1EDA" unicode="&#x1eda;" horiz-adv-x="661" 
d="M381 458q-16 34 -53 34q-71 0 -71 -170q0 -107 19 -146q15 -34 54 -34q35 0 51 35q19 42 19 146q0 96 -19 135zM579 552q62 -86 62 -226q0 -149 -77 -241q-84 -101 -237 -101t-234 98q-73 88 -73 239q0 161 80 250q82 92 238 92q90 0 155 -35q16 -5 22 0q20 17 1 37
l-20 17q-14 11 -19 18q-19 23 0 48q10 13 23 21q35 -10 74 -59q33 -41 35 -83q2 -44 -30 -75zM209 795q0 49 88 105q43 27 87 45q23 -2 46 -16q45 -27 45 -84q0 -67 -111 -102q-55 -17 -111 -21q-44 15 -44 73z" />
    <glyph glyph-name="uni1EDC" unicode="&#x1edc;" horiz-adv-x="661" 
d="M381 458q-16 34 -53 34q-71 0 -71 -170q0 -107 19 -146q15 -34 54 -34q35 0 51 35q19 42 19 146q0 96 -19 135zM579 552q62 -86 62 -226q0 -149 -77 -241q-84 -101 -237 -101t-234 98q-73 88 -73 239q0 161 80 250q82 92 238 92q90 0 155 -35q16 -5 22 0q20 17 1 37
l-20 17q-14 11 -19 18q-19 23 0 48q10 13 23 21q35 -10 74 -59q33 -41 35 -83q2 -44 -30 -75zM259 750q-111 35 -111 102q0 57 46 84q22 14 45 16q175 -71 175 -150q0 -58 -44 -73q-55 4 -111 21z" />
    <glyph glyph-name="uni1EDE" unicode="&#x1ede;" horiz-adv-x="661" 
d="M381 458q-16 34 -53 34q-71 0 -71 -170q0 -107 19 -146q15 -34 54 -34q35 0 51 35q19 42 19 146q0 96 -19 135zM579 552q62 -86 62 -226q0 -149 -77 -241q-84 -101 -237 -101t-234 98q-73 88 -73 239q0 161 80 250q82 92 238 92q90 0 155 -35q16 -5 22 0q20 17 1 37
l-20 17q-14 11 -19 18q-19 23 0 48q10 13 23 21q35 -10 74 -59q33 -41 35 -83q2 -44 -30 -75zM396 891q25 -27 25 -70q0 -42 -34 -73q-36 -33 -89 -33q-12 0 -17 7q-5 8 -1 16q49 28 49 69q0 50 -75 28q-14 10 -14 33q0 53 80 53q49 0 76 -30z" />
    <glyph glyph-name="uni1EDF" unicode="&#x1edf;" horiz-adv-x="545" 
d="M271 392q-53 0 -53 -125q0 -79 14 -108q12 -25 41 -25q51 0 51 134q0 124 -53 124zM502 415q27 -61 27 -143q0 -125 -63 -202q-69 -85 -197 -85t-194 83q-59 74 -59 201q0 134 67 208q69 75 200 75q78 0 133 -35q35 -18 45 -10q20 17 1 37l-20 17q-14 11 -19 18
q-19 23 0 48q10 13 23 21q35 -10 74 -59q33 -41 35 -83q2 -49 -39 -82q-7 -5 -14 -9zM334 785q25 -27 25 -70q0 -42 -34 -73q-36 -33 -89 -33q-12 0 -17 7q-5 8 -1 16q49 28 49 69q0 50 -75 28q-14 10 -14 33q0 53 80 53q49 0 76 -30z" />
    <glyph glyph-name="uni1EE0" unicode="&#x1ee0;" horiz-adv-x="661" 
d="M381 458q-16 34 -53 34q-71 0 -71 -170q0 -107 19 -146q15 -34 54 -34q35 0 51 35q19 42 19 146q0 96 -19 135zM579 552q62 -86 62 -226q0 -149 -77 -241q-84 -101 -237 -101t-234 98q-73 88 -73 239q0 161 80 250q82 92 238 92q90 0 155 -35q16 -5 22 0q20 17 1 37
l-20 17q-14 11 -19 18q-19 23 0 48q10 13 23 21q35 -10 74 -59q33 -41 35 -83q2 -44 -30 -75zM417 888q34 -9 34 -70q0 -40 -27 -66q-29 -29 -82 -29q-31 0 -72 19q-40 18 -63 18q-39 0 -85 -19q-34 9 -34 69q0 40 29 67q31 28 83 28q29 0 70 -18q42 -18 63 -19q38 0 84 20z
" />
    <glyph glyph-name="uni1EE1" unicode="&#x1ee1;" horiz-adv-x="545" 
d="M271 392q-53 0 -53 -125q0 -79 14 -108q12 -25 41 -25q51 0 51 134q0 124 -53 124zM502 415q27 -61 27 -143q0 -125 -63 -202q-69 -85 -197 -85t-194 83q-59 74 -59 201q0 134 67 208q69 75 200 75q78 0 133 -35q35 -18 45 -10q20 17 1 37l-20 17q-14 11 -19 18
q-19 23 0 48q10 13 23 21q35 -10 74 -59q33 -41 35 -83q2 -49 -39 -82q-7 -5 -14 -9zM388 781q34 -9 34 -70q0 -40 -27 -66q-29 -29 -82 -29q-31 0 -72 19q-40 18 -63 18q-39 0 -85 -19q-34 9 -34 69q0 40 29 67q31 28 83 28q29 0 70 -18q42 -18 63 -19q38 0 84 20z" />
    <glyph glyph-name="uni1EE2" unicode="&#x1ee2;" horiz-adv-x="661" 
d="M381 458q-16 34 -53 34q-71 0 -71 -170q0 -107 19 -146q15 -34 54 -34q35 0 51 35q19 42 19 146q0 96 -19 135zM579 552q62 -86 62 -226q0 -149 -77 -241q-84 -101 -237 -101t-234 98q-73 88 -73 239q0 161 80 250q82 92 238 92q90 0 155 -35q16 -5 22 0q20 17 1 37
l-20 17q-14 11 -19 18q-19 23 0 48q10 13 23 21q35 -10 74 -59q33 -41 35 -83q2 -44 -30 -75zM330 -223q-109 0 -109 89q0 90 109 90q110 0 110 -90q0 -89 -110 -89z" />
    <glyph glyph-name="uni1EE3" unicode="&#x1ee3;" horiz-adv-x="545" 
d="M271 392q-53 0 -53 -125q0 -79 14 -108q12 -25 41 -25q51 0 51 134q0 124 -53 124zM502 415q27 -61 27 -143q0 -125 -63 -202q-69 -85 -197 -85t-194 83q-59 74 -59 201q0 134 67 208q69 75 200 75q78 0 133 -35q35 -18 45 -10q20 17 1 37l-20 17q-14 11 -19 18
q-19 23 0 48q10 13 23 21q35 -10 74 -59q33 -41 35 -83q2 -49 -39 -82q-7 -5 -14 -9zM246 -215q-109 0 -109 89q0 90 109 90q110 0 110 -90q0 -89 -110 -89z" />
    <glyph glyph-name="uni1EE4" unicode="&#x1ee4;" horiz-adv-x="641" 
d="M605 262q0 -123 -67 -196q-74 -81 -216 -81q-283 0 -283 274l-1 334q0 58 114 58q117 0 117 -58v-357q0 -52 15 -73q14 -20 48 -20t49 20q16 22 16 76l-1 354q0 58 103 58q106 0 106 -58v-331zM323 -218q-109 0 -109 89q0 90 109 90q110 0 110 -90q0 -89 -110 -89z" />
    <glyph glyph-name="uni1EE5" unicode="&#x1ee5;" horiz-adv-x="571" 
d="M34 487q0 52 104 52q106 0 106 -52v-310q0 -47 42 -47q15 0 27 3v354q0 52 104 52q106 0 106 -52v-342q0 -24 41 -20q13 -33 6 -66q-14 -67 -115 -67q-83 0 -118 48q-34 -48 -130 -48q-86 0 -131 46q-42 42 -42 114v335zM292 -227q-109 0 -109 89q0 90 109 90
q110 0 110 -90q0 -89 -110 -89z" />
    <glyph glyph-name="uni1EE6" unicode="&#x1ee6;" horiz-adv-x="641" 
d="M605 262q0 -123 -67 -196q-74 -81 -216 -81q-283 0 -283 274l-1 334q0 58 114 58q117 0 117 -58v-357q0 -52 15 -73q14 -20 48 -20t49 20q16 22 16 76l-1 354q0 58 103 58q106 0 106 -58v-331zM387 891q25 -27 25 -70q0 -42 -34 -73q-36 -33 -89 -33q-12 0 -17 7
q-5 8 -1 16q49 28 49 69q0 50 -75 28q-14 10 -14 33q0 53 80 53q49 0 76 -30z" />
    <glyph glyph-name="uni1EE7" unicode="&#x1ee7;" horiz-adv-x="571" 
d="M34 487q0 52 104 52q106 0 106 -52v-310q0 -47 42 -47q15 0 27 3v354q0 52 104 52q106 0 106 -52v-342q0 -24 41 -20q13 -33 6 -66q-14 -67 -115 -67q-83 0 -118 48q-34 -48 -130 -48q-86 0 -131 46q-42 42 -42 114v335zM369 785q25 -27 25 -70q0 -42 -34 -73
q-36 -33 -89 -33q-12 0 -17 7q-5 8 -1 16q49 28 49 69q0 50 -75 28q-14 10 -14 33q0 53 80 53q49 0 76 -30z" />
    <glyph glyph-name="uni1EE8" unicode="&#x1ee8;" horiz-adv-x="641" 
d="M605 531v-269q0 -123 -67 -196q-74 -81 -216 -81q-283 0 -283 274l-1 334q0 58 114 58q117 0 117 -58v-357q0 -52 15 -73q14 -20 48 -20t49 20q16 22 16 76l-1 354q0 58 103 58q68 0 92 -24q14 -4 20 1q20 17 1 37l-20 17q-14 11 -19 18q-19 23 0 48q10 13 23 21
q35 -10 74 -59q33 -41 35 -83q2 -49 -39 -82q-27 -22 -61 -14zM241 766q0 49 88 105q43 27 87 45q23 -2 46 -16q45 -27 45 -84q0 -67 -111 -102q-55 -17 -111 -21q-44 15 -44 73z" />
    <glyph glyph-name="uni1EE9" unicode="&#x1ee9;" horiz-adv-x="571" 
d="M523 417v-272q0 -24 41 -20q13 -33 6 -66q-14 -67 -115 -67q-83 0 -118 48q-34 -48 -130 -48q-86 0 -131 46q-42 42 -42 114v335q0 52 104 52q106 0 106 -52v-310q0 -47 42 -47q15 0 27 3v354q0 52 104 52q78 0 98 -28q25 -10 33 -4q20 17 1 37l-20 17q-14 11 -19 18
q-19 23 0 48q10 13 23 21q35 -10 74 -59q33 -41 35 -83q2 -49 -39 -82q-34 -27 -80 -7zM188 669q0 49 88 105q43 27 87 45q23 -2 46 -16q45 -27 45 -84q0 -67 -111 -102q-55 -17 -111 -21q-44 15 -44 73z" />
    <glyph glyph-name="uni1EEA" unicode="&#x1eea;" horiz-adv-x="641" 
d="M605 531v-269q0 -123 -67 -196q-74 -81 -216 -81q-283 0 -283 274l-1 334q0 58 114 58q117 0 117 -58v-357q0 -52 15 -73q14 -20 48 -20t49 20q16 22 16 76l-1 354q0 58 103 58q68 0 92 -24q14 -4 20 1q20 17 1 37l-20 17q-14 11 -19 18q-19 23 0 48q10 13 23 21
q35 -10 74 -59q33 -41 35 -83q2 -49 -39 -82q-27 -22 -61 -14zM286 737q-111 35 -111 102q0 57 46 84q22 14 45 16q175 -71 175 -150q0 -58 -44 -73q-55 4 -111 21z" />
    <glyph glyph-name="uni1EEB" unicode="&#x1eeb;" horiz-adv-x="571" 
d="M523 417v-272q0 -24 41 -20q13 -33 6 -66q-14 -67 -115 -67q-83 0 -118 48q-34 -48 -130 -48q-86 0 -131 46q-42 42 -42 114v335q0 52 104 52q106 0 106 -52v-310q0 -47 42 -47q15 0 27 3v354q0 52 104 52q78 0 98 -28q25 -10 33 -4q20 17 1 37l-20 17q-14 11 -19 18
q-19 23 0 48q10 13 23 21q35 -10 74 -59q33 -41 35 -83q2 -49 -39 -82q-34 -27 -80 -7zM231 620q-111 35 -111 102q0 57 46 84q22 14 45 16q175 -71 175 -150q0 -58 -44 -73q-55 4 -111 21z" />
    <glyph glyph-name="uni1EEC" unicode="&#x1eec;" horiz-adv-x="641" 
d="M605 531v-269q0 -123 -67 -196q-74 -81 -216 -81q-283 0 -283 274l-1 334q0 58 114 58q117 0 117 -58v-357q0 -52 15 -73q14 -20 48 -20t49 20q16 22 16 76l-1 354q0 58 103 58q68 0 92 -24q14 -4 20 1q20 17 1 37l-20 17q-14 11 -19 18q-19 23 0 48q10 13 23 21
q35 -10 74 -59q33 -41 35 -83q2 -49 -39 -82q-27 -22 -61 -14zM437 891q25 -27 25 -70q0 -42 -34 -73q-36 -33 -89 -33q-12 0 -17 7q-5 8 -1 16q49 28 49 69q0 50 -75 28q-14 10 -14 33q0 53 80 53q49 0 76 -30z" />
    <glyph glyph-name="uni1EED" unicode="&#x1eed;" horiz-adv-x="571" 
d="M523 417v-272q0 -24 41 -20q13 -33 6 -66q-14 -67 -115 -67q-83 0 -118 48q-34 -48 -130 -48q-86 0 -131 46q-42 42 -42 114v335q0 52 104 52q106 0 106 -52v-310q0 -47 42 -47q15 0 27 3v354q0 52 104 52q78 0 98 -28q25 -10 33 -4q20 17 1 37l-20 17q-14 11 -19 18
q-19 23 0 48q10 13 23 21q35 -10 74 -59q33 -41 35 -83q2 -49 -39 -82q-34 -27 -80 -7zM398 785q25 -27 25 -70q0 -42 -34 -73q-36 -33 -89 -33q-12 0 -17 7q-5 8 -1 16q49 28 49 69q0 50 -75 28q-14 10 -14 33q0 53 80 53q49 0 76 -30z" />
    <glyph glyph-name="uni1EEE" unicode="&#x1eee;" horiz-adv-x="641" 
d="M605 531v-269q0 -123 -67 -196q-74 -81 -216 -81q-283 0 -283 274l-1 334q0 58 114 58q117 0 117 -58v-357q0 -52 15 -73q14 -20 48 -20t49 20q16 22 16 76l-1 354q0 58 103 58q68 0 92 -24q14 -4 20 1q20 17 1 37l-20 17q-14 11 -19 18q-19 23 0 48q10 13 23 21
q35 -10 74 -59q33 -41 35 -83q2 -49 -39 -82q-27 -22 -61 -14zM486 860q34 -9 34 -70q0 -40 -27 -66q-29 -29 -82 -29q-31 0 -72 19q-40 18 -63 18q-39 0 -85 -19q-34 9 -34 69q0 40 29 67q31 28 83 28q29 0 70 -18q42 -18 63 -19q38 0 84 20z" />
    <glyph glyph-name="uni1EEF" unicode="&#x1eef;" horiz-adv-x="571" 
d="M523 417v-272q0 -24 41 -20q13 -33 6 -66q-14 -67 -115 -67q-83 0 -118 48q-34 -48 -130 -48q-86 0 -131 46q-42 42 -42 114v335q0 52 104 52q106 0 106 -52v-310q0 -47 42 -47q15 0 27 3v354q0 52 104 52q78 0 98 -28q25 -10 33 -4q20 17 1 37l-20 17q-14 11 -19 18
q-19 23 0 48q10 13 23 21q35 -10 74 -59q33 -41 35 -83q2 -49 -39 -82q-34 -27 -80 -7zM439 749q34 -9 34 -70q0 -40 -27 -66q-29 -29 -82 -29q-31 0 -72 19q-40 18 -63 18q-39 0 -85 -19q-34 9 -34 69q0 40 29 67q31 28 83 28q29 0 70 -18q42 -18 63 -19q38 0 84 20z" />
    <glyph glyph-name="uni1EF0" unicode="&#x1ef0;" horiz-adv-x="641" 
d="M605 531v-269q0 -123 -67 -196q-74 -81 -216 -81q-283 0 -283 274l-1 334q0 58 114 58q117 0 117 -58v-357q0 -52 15 -73q14 -20 48 -20t49 20q16 22 16 76l-1 354q0 58 103 58q68 0 92 -24q14 -4 20 1q20 17 1 37l-20 17q-14 11 -19 18q-19 23 0 48q10 13 23 21
q35 -10 74 -59q33 -41 35 -83q2 -49 -39 -82q-27 -22 -61 -14zM327 -223q-109 0 -109 89q0 90 109 90q110 0 110 -90q0 -89 -110 -89z" />
    <glyph glyph-name="uni1EF1" unicode="&#x1ef1;" horiz-adv-x="571" 
d="M523 417v-272q0 -24 41 -20q13 -33 6 -66q-14 -67 -115 -67q-83 0 -118 48q-34 -48 -130 -48q-86 0 -131 46q-42 42 -42 114v335q0 52 104 52q106 0 106 -52v-310q0 -47 42 -47q15 0 27 3v354q0 52 104 52q78 0 98 -28q25 -10 33 -4q20 17 1 37l-20 17q-14 11 -19 18
q-19 23 0 48q10 13 23 21q35 -10 74 -59q33 -41 35 -83q2 -49 -39 -82q-34 -27 -80 -7zM273 -217q-109 0 -109 89q0 90 109 90q110 0 110 -90q0 -89 -110 -89z" />
    <glyph glyph-name="Ygrave" unicode="&#x1ef2;" horiz-adv-x="591" 
d="M182 51v156q-111 174 -182 385q0 30 33 51q32 21 78 21q58 0 87 -21q30 -21 48 -74q35 -103 67 -261l63 324q26 31 102 31q107 0 107 -72q0 -99 -73 -239q-63 -122 -104 -150v-151q0 -59 -113 -59t-113 59zM253 742q-111 35 -111 102q0 57 46 84q22 14 45 16
q175 -71 175 -150q0 -58 -44 -73q-55 4 -111 21z" />
    <glyph glyph-name="ygrave" unicode="&#x1ef3;" horiz-adv-x="529" 
d="M328 -110q-33 -35 -108 -35q-94 0 -94 82q0 55 48 92l-169 463q0 15 12 30q24 30 84 30q82 0 112 -70q29 -67 60 -320l46 350q21 40 94 40q57 0 80 -16q21 -15 21 -52q0 -70 -186 -594zM214 630q-111 35 -111 102q0 57 46 84q22 14 45 16q175 -71 175 -150q0 -58 -44 -73
q-55 4 -111 21z" />
    <glyph glyph-name="uni1EF4" unicode="&#x1ef4;" horiz-adv-x="591" 
d="M182 51v156q-111 174 -182 385q0 30 33 51q32 21 78 21q58 0 87 -21q30 -21 48 -74q35 -103 67 -261l63 324q26 31 102 31q107 0 107 -72q0 -99 -73 -239q-63 -122 -104 -150v-151q0 -59 -113 -59t-113 59zM292 -223q-109 0 -109 89q0 90 109 90q110 0 110 -90
q0 -89 -110 -89z" />
    <glyph glyph-name="uni1EF5" unicode="&#x1ef5;" horiz-adv-x="529" 
d="M328 -110q-33 -35 -108 -35q-94 0 -94 82q0 55 48 92l-169 463q0 15 12 30q24 30 84 30q82 0 112 -70q29 -67 60 -320l46 350q21 40 94 40q57 0 80 -16q21 -15 21 -52q0 -70 -186 -594zM484 -189q-109 0 -109 89q0 90 109 90q110 0 110 -90q0 -89 -110 -89z" />
    <glyph glyph-name="uni1EF6" unicode="&#x1ef6;" horiz-adv-x="591" 
d="M182 51v156q-111 174 -182 385q0 30 33 51q32 21 78 21q58 0 87 -21q30 -21 48 -74q35 -103 67 -261l63 324q26 31 102 31q107 0 107 -72q0 -99 -73 -239q-63 -122 -104 -150v-151q0 -59 -113 -59t-113 59zM358 891q25 -27 25 -70q0 -42 -34 -73q-36 -33 -89 -33
q-12 0 -17 7q-5 8 -1 16q49 28 49 69q0 50 -75 28q-14 10 -14 33q0 53 80 53q49 0 76 -30z" />
    <glyph glyph-name="uni1EF7" unicode="&#x1ef7;" horiz-adv-x="529" 
d="M328 -110q-33 -35 -108 -35q-94 0 -94 82q0 55 48 92l-169 463q0 15 12 30q24 30 84 30q82 0 112 -70q29 -67 60 -320l46 350q21 40 94 40q57 0 80 -16q21 -15 21 -52q0 -70 -186 -594zM325 785q25 -27 25 -70q0 -42 -34 -73q-36 -33 -89 -33q-12 0 -17 7q-5 8 -1 16
q49 28 49 69q0 50 -75 28q-14 10 -14 33q0 53 80 53q49 0 76 -30z" />
    <glyph glyph-name="uni1EF8" unicode="&#x1ef8;" horiz-adv-x="591" 
d="M182 51v156q-111 174 -182 385q0 30 33 51q32 21 78 21q58 0 87 -21q30 -21 48 -74q35 -103 67 -261l63 324q26 31 102 31q107 0 107 -72q0 -99 -73 -239q-63 -122 -104 -150v-151q0 -59 -113 -59t-113 59zM440 847q34 -9 34 -70q0 -40 -27 -66q-29 -29 -82 -29
q-31 0 -72 19q-40 18 -63 18q-39 0 -85 -19q-34 9 -34 69q0 40 29 67q31 28 83 28q29 0 70 -18q42 -18 63 -19q38 0 84 20z" />
    <glyph glyph-name="uni1EF9" unicode="&#x1ef9;" horiz-adv-x="529" 
d="M328 -110q-33 -35 -108 -35q-94 0 -94 82q0 55 48 92l-169 463q0 15 12 30q24 30 84 30q82 0 112 -70q29 -67 60 -320l46 350q21 40 94 40q57 0 80 -16q21 -15 21 -52q0 -70 -186 -594zM407 741q34 -9 34 -70q0 -40 -27 -66q-29 -29 -82 -29q-31 0 -72 19q-40 18 -63 18
q-39 0 -85 -19q-34 9 -34 69q0 40 29 67q31 28 83 28q29 0 70 -18q42 -18 63 -19q38 0 84 20z" />
    <glyph glyph-name="abreve" unicode="&#x103;" 
d="M289 34q-50 -42 -114 -42q-77 0 -119 40q-38 37 -38 97q0 72 51 105q60 39 204 39l1 51q0 45 -47 45q-23 0 -62 -16q-39 -17 -63 -17q-82 0 -82 90q0 51 18 80q100 46 207 46q122 0 175 -42q60 -48 60 -168q0 -44 -7 -112t-7 -83q0 -26 41 -22q13 -33 6 -66
q-14 -67 -115 -67q-78 0 -109 42zM190 141q0 -37 40 -37q21 0 36 14v7q0 20 2 58q-60 -6 -72 -11q-6 -10 -6 -31zM398 641q-47 -38 -131 -38q-94 0 -151 44q-52 39 -52 94q0 28 16 48q20 25 57 25q6 -20 24 -41q35 -41 93 -41q76 0 104 66q20 -1 41 -11q40 -20 40 -67
q0 -46 -41 -79z" />
    <glyph glyph-name="Abreve" unicode="&#x102;" horiz-adv-x="611" 
d="M353 108h-129l-3 -23q-11 -92 -114 -92q-56 0 -83 28q-13 13 -15 27q60 345 112 510q32 101 182 101q154 0 186 -101q102 -317 102 -480q0 -85 -118 -85q-59 0 -85 22q-23 20 -31 69zM266 421q-3 -16 -9 -69q-7 -60 -13 -102h87q-7 47 -14 102l-9 69q-7 50 -22 50
q-13 0 -20 -50zM460 740q-47 -38 -131 -38q-94 0 -151 44q-52 39 -52 94q0 28 16 48q20 25 57 25q6 -20 24 -41q35 -41 93 -41q76 0 104 66q20 -1 41 -11q40 -20 40 -67q0 -46 -41 -79z" />
    <glyph glyph-name="itilde" unicode="&#x129;" horiz-adv-x="292" 
d="M251 46q0 -54 -105 -54t-105 54v441q0 52 104 52q106 0 106 -52v-441zM294 741q34 -9 34 -70q0 -40 -27 -66q-29 -29 -82 -29q-31 0 -72 19q-40 18 -63 18q-39 0 -85 -19q-34 9 -34 69q0 40 29 67q31 28 83 28q29 0 70 -18q42 -18 63 -19q38 0 84 20z" />
    <glyph glyph-name="uni1EDD" unicode="&#x1edd;" horiz-adv-x="545" 
d="M271 392q-53 0 -53 -125q0 -79 14 -108q12 -25 41 -25q51 0 51 134q0 124 -53 124zM502 415q27 -61 27 -143q0 -125 -63 -202q-69 -85 -197 -85t-194 83q-59 74 -59 201q0 134 67 208q69 75 200 75q78 0 133 -35q35 -18 45 -10q20 17 1 37l-20 17q-14 11 -19 18
q-19 23 0 48q10 13 23 21q35 -10 74 -59q33 -41 35 -83q2 -49 -39 -82q-7 -5 -14 -9zM213 627q-111 35 -111 102q0 57 46 84q22 14 45 16q175 -71 175 -150q0 -58 -44 -73q-55 4 -111 21z" />
    <glyph glyph-name="gravecomb" unicode="&#x300;" horiz-adv-x="0" 
d="M-231 708q-111 35 -111 102q0 57 46 84q22 14 45 16q175 -71 175 -150q0 -58 -44 -73q-55 4 -111 21z" />
    <glyph glyph-name="acutecomb" unicode="&#x301;" horiz-adv-x="0" 
d="M-327 650q0 49 88 105q43 27 87 45q23 -2 46 -16q45 -27 45 -84q0 -67 -111 -102q-55 -17 -111 -21q-44 15 -44 73z" />
    <glyph glyph-name="tildecomb" unicode="&#x303;" horiz-adv-x="0" 
d="M-42 741q34 -9 34 -70q0 -40 -27 -66q-29 -29 -82 -29q-31 0 -72 19q-40 18 -63 18q-39 0 -85 -19q-34 9 -34 69q0 40 29 67q31 28 83 28q29 0 70 -18q42 -18 63 -19q38 0 84 20z" />
    <glyph glyph-name="dotbelowcomb" unicode="&#x323;" horiz-adv-x="278" 
d="M145 -201q-109 0 -109 89q0 90 109 90q110 0 110 -90q0 -89 -110 -89z" />
    <glyph glyph-name="uni031B" unicode="&#x31b;" horiz-adv-x="0" 
 />
    <glyph glyph-name="hookabovecomb" unicode="&#x309;" horiz-adv-x="307" 
d="M203 785q25 -27 25 -70q0 -42 -34 -73q-36 -33 -89 -33q-12 0 -17 7q-5 8 -1 16q49 28 49 69q0 50 -75 28q-14 10 -14 33q0 53 80 53q49 0 76 -30z" />
    </font>
</defs>
</svg>
